<?xml version="1.0" standalone="no"?>
<!DOCTYPE svg PUBLIC "-//W3C//DTD SVG 1.1//EN" "http://www.w3.org/Graphics/SVG/1.1/DTD/svg11.dtd" >
<svg xmlns="http://www.w3.org/2000/svg" xmlns:xlink="http://www.w3.org/1999/xlink" version="1.1">
<metadata>
Created by FontForge 20141024 at Thu Apr 16 14:41:22 2015
 By System Administrator
Copyright (c) 2010 by Jackson Cavanaugh / Okay Type &#38; Design, LLC. All rights reserved.
</metadata>
<defs>
<font id="AlrightSans-Bold" horiz-adv-x="614" >
  <font-face 
    font-family="Alright Sans"
    font-weight="400"
    font-stretch="normal"
    units-per-em="1000"
    panose-1="0 0 5 0 0 0 0 0 0 0"
    ascent="760"
    descent="-240"
    x-height="537"
    cap-height="700"
    bbox="-125 -364 1340 1051"
    underline-thickness="50"
    underline-position="-50"
    stemh="123"
    stemv="152"
    unicode-range="U+0020-FB06"
  />
<missing-glyph horiz-adv-x="900" 
d="M200 -237v992h500v-992h-500zM301 -164h298l-149 330zM599 683h-298l149 -335zM399 259l-126 284v-567zM501 259l126 -282v565z" />
    <glyph glyph-name="f_i" unicode="fi" horiz-adv-x="662" 
d="M101 0v426h-85v102h85v23c0 148 83 212 243 212c84 0 176 -26 240 -63l-53 -95c-45 24 -113 48 -174 48c-79 0 -109 -32 -109 -105v-20h135v-102h-135v-426h-147zM453 0v529h147v-529h-147z" />
    <glyph glyph-name="f_l" unicode="fl" horiz-adv-x="672" 
d="M101 0v426h-85v102h85v23c0 144 95 213 257 213c163 0 252 -69 252 -217v-547h-147v549c0 69 -30 104 -107 104c-78 0 -108 -35 -108 -104v-21h137v-102h-137v-426h-147z" />
    <glyph glyph-name="f_j" unicode="fj" horiz-adv-x="662" 
d="M101 0v426h-85v102h85v23c0 148 83 212 243 212c84 0 176 -26 240 -63l-53 -95c-45 24 -113 48 -174 48c-79 0 -109 -32 -109 -105v-20h135v-102h-135v-426h-147zM453 -13v542h147v-534c0 -141 -68 -205 -188 -205c-45 0 -82 11 -108 20l31 108c19 -6 37 -10 56 -10
c40 0 62 20 62 79z" />
    <glyph glyph-name="f_f" unicode="ff" horiz-adv-x="763" 
d="M449 0v426h-201v-426h-147v426h-85v102h85v22c0 144 85 206 225 206c71 0 129 -18 180 -46c39 38 96 54 163 54c42 0 88 -11 123 -24l-36 -100c-23 7 -46 13 -79 13c-56 0 -81 -33 -81 -95v-30h135v-102h-135v-426h-147zM248 528h201v22c0 27 2 51 8 73
c-33 17 -72 26 -114 26c-68 0 -95 -34 -95 -96v-25z" />
    <glyph glyph-name="f_b" unicode="fb" horiz-adv-x="1010" 
d="M101 0v426h-85v102h85v23c0 144 95 213 257 213c163 0 252 -69 252 -217v-70c40 46 95 72 154 72c124 0 208 -93 208 -274c0 -187 -85 -287 -206 -287c-71 0 -123 31 -164 75l-10 -63h-129v549c0 69 -30 104 -107 104c-78 0 -108 -35 -108 -104v-21h137v-102h-137v-426
h-147zM610 153c33 -37 66 -53 111 -53c70 0 104 69 104 174c0 106 -34 163 -104 163c-44 0 -80 -20 -111 -56v-228z" />
    <glyph glyph-name="f_h" unicode="fh" horiz-adv-x="1000" 
d="M101 0v426h-85v102h85v23c0 144 95 213 257 213c163 0 252 -69 252 -217v-72c40 41 94 75 160 75c122 0 171 -74 171 -195v-355h-146v359c0 48 -19 81 -70 81c-44 0 -84 -23 -115 -63v-377h-147v549c0 69 -30 104 -107 104c-78 0 -108 -35 -108 -104v-21h137v-102h-137
v-426h-147z" />
    <glyph glyph-name="f_k" unicode="fk" horiz-adv-x="1004" 
d="M101 0v426h-85v102h85v23c0 144 95 213 257 213c163 0 252 -69 252 -217v-245l195 235h154l-154 -177l187 -360h-167l-116 251l-99 -114v-137h-147v549c0 69 -30 104 -107 104c-78 0 -108 -35 -108 -104v-21h137v-102h-137v-426h-147z" />
    <glyph glyph-name="f_f_i" unicode="ffi" horiz-adv-x="1010" 
d="M449 0v426h-201v-426h-147v426h-85v102h85v22c0 144 85 206 225 206c72 0 130 -18 181 -47c41 37 103 54 185 54c84 0 175 -26 239 -63l-53 -95c-44 24 -113 48 -173 48c-79 0 -109 -32 -109 -105v-20h134v-102h-134v-426h-147zM800 0v529h147v-529h-147zM248 528h201v23
c0 26 2 50 8 72c-33 17 -72 26 -114 26c-68 0 -95 -34 -95 -96v-25z" />
    <glyph glyph-name="f_f_l" unicode="ffl" horiz-adv-x="1020" 
d="M449 0v426h-201v-426h-147v426h-85v102h85v22c0 144 85 206 225 206c74 0 133 -19 185 -49c44 38 110 57 194 57c163 0 252 -69 252 -217v-547h-147v549c0 69 -30 104 -107 104c-78 0 -107 -35 -107 -104v-21h136v-102h-136v-426h-147zM248 553v-25h201v23
c0 26 3 49 9 71c-33 18 -72 27 -115 27c-68 0 -95 -34 -95 -96z" />
    <glyph glyph-name="f_f_j" unicode="ffj" horiz-adv-x="1010" 
d="M449 0v426h-201v-426h-147v426h-85v102h85v22c0 144 85 206 225 206c72 0 130 -18 181 -47c41 37 103 54 185 54c84 0 175 -26 239 -63l-53 -95c-44 24 -113 48 -173 48c-79 0 -109 -32 -109 -105v-20h134v-102h-134v-426h-147zM800 -13v542h147v-534
c0 -141 -68 -205 -187 -205c-45 0 -83 11 -108 20l31 108c18 -6 37 -10 56 -10c39 0 61 20 61 79zM248 553v-25h201v23c0 26 2 50 8 72c-33 17 -72 26 -114 26c-68 0 -95 -34 -95 -96z" />
    <glyph glyph-name="f_f_f" unicode="fff" horiz-adv-x="1110" 
d="M449 0v426h-201v-426h-147v426h-85v102h85v22c0 144 85 206 225 206c72 0 131 -19 182 -47c39 34 94 51 164 51c73 0 132 -19 184 -48c39 36 95 52 160 52c43 0 88 -11 123 -24l-36 -100c-22 7 -46 13 -78 13c-57 0 -82 -33 -82 -95v-30h135v-102h-135v-426h-146v426
h-201v-426h-147zM596 528h201v22c0 28 3 54 9 76c-34 17 -73 26 -116 26c-67 0 -94 -37 -94 -99v-25zM248 553v-25h201v22c0 27 3 51 8 72c-33 18 -71 27 -114 27c-68 0 -95 -34 -95 -96z" />
    <glyph glyph-name="f_f_b" unicode="ffb" horiz-adv-x="1356" 
d="M449 0v426h-201v-426h-147v426h-85v102h85v22c0 144 85 206 225 206c74 0 133 -19 185 -49c44 38 110 57 194 57c163 0 252 -69 252 -217v-70c41 46 95 72 154 72c124 0 208 -93 208 -274c0 -187 -84 -287 -205 -287c-72 0 -123 31 -165 75l-9 -63h-130v549
c0 69 -30 104 -107 104c-78 0 -107 -35 -107 -104v-21h136v-102h-136v-426h-147zM957 153c34 -37 67 -53 111 -53c70 0 105 69 105 174c0 106 -35 163 -105 163c-43 0 -79 -20 -111 -56v-228zM248 553v-25h201v23c0 26 3 49 9 71c-33 18 -72 27 -115 27
c-68 0 -95 -34 -95 -96z" />
    <glyph glyph-name="f_f_h" unicode="ffh" horiz-adv-x="1347" 
d="M449 0v426h-201v-426h-147v426h-85v102h85v22c0 144 85 206 225 206c74 0 133 -19 185 -49c44 38 110 57 194 57c163 0 252 -69 252 -217v-72c39 41 94 75 161 75c120 0 171 -74 171 -195v-355h-146v359c0 48 -20 81 -71 81c-44 0 -84 -23 -115 -63v-377h-147v549
c0 69 -30 104 -107 104c-78 0 -107 -35 -107 -104v-21h136v-102h-136v-426h-147zM248 553v-25h201v23c0 26 3 49 9 71c-33 18 -72 27 -115 27c-68 0 -95 -34 -95 -96z" />
    <glyph glyph-name="f_f_k" unicode="ffk" horiz-adv-x="1351" 
d="M449 0v426h-201v-426h-147v426h-85v102h85v22c0 144 85 206 225 206c74 0 133 -19 185 -49c44 38 110 57 194 57c163 0 252 -69 252 -217v-245l196 235h154l-154 -176l187 -361h-167l-117 250l-99 -113v-137h-147v549c0 69 -30 104 -107 104c-78 0 -107 -35 -107 -104
v-21h136v-102h-136v-426h-147zM248 553v-25h201v23c0 26 3 49 9 71c-33 18 -72 27 -115 27c-68 0 -95 -34 -95 -96z" />
    <glyph glyph-name=".notdef" horiz-adv-x="900" 
d="M200 -237v992h500v-992h-500zM301 -164h298l-149 330zM599 683h-298l149 -335zM399 259l-126 284v-567zM501 259l126 -282v565z" />
    <glyph glyph-name="space" unicode=" " horiz-adv-x="239" 
 />
    <glyph glyph-name="A" unicode="A" horiz-adv-x="713" 
d="M17 0l253 700h172l253 -700h-162l-44 131h-266l-43 -131h-163zM354 532l-93 -284h189l-94 284h-2z" />
    <glyph glyph-name="B" unicode="B" horiz-adv-x="677" 
d="M68 0v700h294c169 0 247 -79 247 -188c0 -73 -40 -121 -105 -149c77 -25 131 -77 131 -163c0 -129 -101 -200 -259 -200h-308zM218 121h155c68 0 111 31 111 92c0 59 -44 89 -111 89h-155v-181zM218 408h132c71 0 107 35 107 87c0 49 -36 84 -107 84h-132v-171z" />
    <glyph glyph-name="C" unicode="C" horiz-adv-x="705" 
d="M41 354c0 207 151 358 365 358c97 0 181 -31 254 -89l-82 -104c-49 39 -101 65 -169 65c-130 0 -215 -91 -215 -230c0 -144 83 -238 215 -238c70 0 126 27 173 73l90 -96c-75 -70 -162 -105 -271 -105c-214 0 -360 153 -360 366z" />
    <glyph glyph-name="D" unicode="D" horiz-adv-x="723" 
d="M68 0v700h230c250 0 385 -129 385 -347c0 -223 -126 -353 -385 -353h-230zM219 123h90c147 0 221 87 221 229c0 137 -79 225 -221 225h-90v-454z" />
    <glyph glyph-name="E" unicode="E" horiz-adv-x="634" 
d="M68 0v700h510v-132h-359v-154h320v-117h-320v-165h363v-132h-514z" />
    <glyph glyph-name="F" unicode="F" horiz-adv-x="620" 
d="M68 0v700h502v-132h-350v-164h302v-124h-302v-280h-152z" />
    <glyph glyph-name="G" unicode="G" horiz-adv-x="732" 
d="M41 354c0 202 142 358 365 358c105 0 187 -34 258 -86l-79 -102c-51 36 -107 60 -175 60c-131 0 -215 -97 -215 -230c0 -145 80 -238 215 -238c47 0 90 11 122 30v140h-158v103h296v-320c-70 -51 -161 -81 -265 -81c-222 0 -364 151 -364 366z" />
    <glyph glyph-name="H" unicode="H" horiz-adv-x="712" 
d="M68 0v700h152v-280h273v280h151v-700h-151v290h-273v-290h-152z" />
    <glyph glyph-name="I" unicode="I" horiz-adv-x="287" 
d="M68 0v700h152v-700h-152z" />
    <glyph glyph-name="J" unicode="J" horiz-adv-x="572" 
d="M32 126l114 74c27 -49 64 -79 114 -79c61 0 96 41 96 113v466h151v-469c0 -160 -93 -243 -239 -243c-102 0 -183 49 -236 138z" />
    <glyph glyph-name="K" unicode="K" horiz-adv-x="692" 
d="M68 0v700h152v-327l266 327h167l-219 -261l241 -439h-171l-167 323l-117 -140v-183h-152z" />
    <glyph glyph-name="L" unicode="L" horiz-adv-x="602" 
d="M68 0v700h152v-569h348v-131h-500z" />
    <glyph glyph-name="M" unicode="M" horiz-adv-x="861" 
d="M68 0v700h152l211 -299l212 299h150v-700h-144v484l-219 -302l-218 302v-484h-144z" />
    <glyph glyph-name="N" unicode="N" horiz-adv-x="736" 
d="M68 0v700h144l312 -461v461h143v-700h-143l-312 459v-459h-144z" />
    <glyph glyph-name="O" unicode="O" horiz-adv-x="808" 
d="M41 352c0 210 151 360 363 360c213 0 363 -150 363 -360c0 -212 -150 -364 -363 -364c-212 0 -363 152 -363 364zM195 352c0 -143 87 -236 209 -236c123 0 210 93 210 236c0 140 -86 233 -210 233c-123 0 -209 -93 -209 -233z" />
    <glyph glyph-name="P" unicode="P" horiz-adv-x="677" 
d="M68 0v700h293c201 0 270 -110 270 -222c0 -111 -70 -224 -269 -224h-142v-254h-152zM220 372h140c82 0 120 45 120 104c0 60 -39 103 -119 103h-141v-207z" />
    <glyph glyph-name="Q" unicode="Q" horiz-adv-x="813" 
d="M41 352c0 210 151 360 363 360c213 0 363 -150 363 -360c0 -89 -26 -167 -73 -228l79 -67l-76 -81l-82 73c-58 -39 -130 -61 -211 -61c-212 0 -363 152 -363 364zM402 239l70 78l110 -99c20 36 32 82 32 134c0 140 -86 233 -210 233c-123 0 -209 -93 -209 -233
c0 -143 87 -236 209 -236c40 0 77 10 108 29z" />
    <glyph glyph-name="R" unicode="R" horiz-adv-x="700" 
d="M68 0v700h308c200 0 269 -110 269 -222c0 -82 -41 -156 -128 -193l134 -285h-163l-108 261h-160v-261h-152zM220 372h154c80 0 119 45 119 104c0 61 -40 103 -118 103h-155v-207z" />
    <glyph glyph-name="S" unicode="S" horiz-adv-x="631" 
d="M38 65l72 118c62 -37 136 -63 206 -63c75 0 114 31 114 76c0 131 -378 43 -378 308c0 115 95 208 257 208c92 0 174 -22 252 -59l-56 -119c-62 31 -127 46 -189 46c-67 0 -107 -32 -107 -74c0 -129 378 -38 378 -308c0 -118 -90 -210 -270 -210c-105 0 -212 35 -279 77z
" />
    <glyph glyph-name="T" unicode="T" horiz-adv-x="665" 
d="M257 0v566h-231v134h614v-134h-232v-566h-151z" />
    <glyph glyph-name="U" unicode="U" horiz-adv-x="721" 
d="M65 266v434h153v-434c0 -95 58 -149 143 -149c84 0 143 54 143 149v434h152v-434c0 -187 -123 -278 -295 -278s-296 91 -296 278z" />
    <glyph glyph-name="V" unicode="V" horiz-adv-x="708" 
d="M268 0l-251 700h164l172 -524h2l173 524h164l-253 -700h-171z" />
    <glyph glyph-name="W" unicode="W" horiz-adv-x="1071" 
d="M242 0l-220 700h158l146 -484h2l139 484h138l139 -484h2l146 484h158l-221 -700h-155l-137 475h-2l-138 -475h-155z" />
    <glyph glyph-name="X" unicode="X" horiz-adv-x="721" 
d="M25 0l239 357l-231 343h183l147 -225l147 225h179l-232 -343l240 -357h-182l-156 239l-155 -239h-179z" />
    <glyph glyph-name="Y" unicode="Y" horiz-adv-x="703" 
d="M275 0v281l-262 419h175l163 -270h2l164 270h173l-262 -419v-281h-153z" />
    <glyph glyph-name="Z" unicode="Z" horiz-adv-x="651" 
d="M46 0v113l354 452h-354v135h553v-113l-353 -451h366v-136h-566z" />
    <glyph glyph-name="a" unicode="a" horiz-adv-x="566" 
d="M39 130c0 117 111 178 310 192v47c0 40 -23 64 -74 64s-105 -21 -171 -53l-52 108c72 36 156 61 229 61c154 0 214 -75 214 -185v-224c0 -29 17 -42 44 -42v-101c-101 0 -143 15 -173 66c-45 -48 -95 -75 -167 -75c-94 0 -160 57 -160 142zM185 147c0 -32 25 -54 62 -54
c45 0 79 19 102 45v103c-83 -5 -164 -26 -164 -94z" />
    <glyph glyph-name="b" unicode="b" horiz-adv-x="609" 
d="M63 0v755h147v-278c40 44 95 72 154 72c124 0 208 -93 208 -274c0 -189 -85 -287 -206 -287c-71 0 -122 31 -164 75l-9 -63h-130zM210 153c34 -37 66 -53 110 -53c71 0 105 69 105 174c0 106 -34 163 -105 163c-43 0 -78 -20 -110 -56v-228z" />
    <glyph glyph-name="c" unicode="c" horiz-adv-x="527" 
d="M36 272c0 172 116 277 273 277c65 0 131 -20 190 -66l-74 -95c-31 24 -67 42 -112 42c-71 0 -129 -56 -129 -158c0 -107 57 -166 129 -166c48 0 80 17 113 44l80 -85c-59 -52 -121 -77 -197 -77c-156 0 -273 105 -273 284z" />
    <glyph glyph-name="d" unicode="d" horiz-adv-x="608" 
d="M243 -12c-121 0 -206 98 -206 287c0 181 84 274 209 274c59 0 114 -28 154 -72v278h147v-755h-130l-9 63c-42 -44 -94 -75 -165 -75zM289 100c44 0 78 16 111 53v228c-32 36 -68 56 -111 56c-71 0 -105 -57 -105 -163c0 -105 34 -174 105 -174z" />
    <glyph glyph-name="e" unicode="e" horiz-adv-x="584" 
d="M37 272c0 172 120 278 269 278c154 0 239 -101 239 -245c0 -21 -2 -49 -5 -65h-354c8 -91 51 -136 132 -136c54 0 104 18 149 46l61 -93c-66 -46 -141 -70 -221 -70c-158 0 -270 105 -270 285zM310 444c-60 0 -107 -42 -121 -120h217c0 68 -26 120 -96 120z" />
    <glyph glyph-name="f" unicode="f" horiz-adv-x="416" 
d="M101 0v426h-85v103h85v27c0 154 93 208 221 208c41 0 88 -11 122 -24l-35 -100c-24 7 -46 13 -79 13c-57 0 -82 -33 -82 -95v-30h135v-102h-135v-426h-147z" />
    <glyph glyph-name="g" unicode="g" horiz-adv-x="595" 
d="M16 -69c0 50 29 85 78 111c-23 21 -33 46 -33 72c0 39 23 69 57 89c-47 33 -78 84 -78 150c0 118 100 196 232 196c60 0 113 -17 153 -46c36 28 81 46 151 46v-97c-37 0 -68 -2 -96 -10c14 -26 22 -56 22 -89c0 -126 -113 -196 -230 -196c-28 0 -56 4 -82 11
c-14 -6 -21 -17 -21 -30c0 -26 33 -36 146 -40c158 -6 246 -49 246 -151c0 -98 -87 -157 -274 -157c-170 0 -271 47 -271 141zM272 254c55 0 92 39 92 99s-37 100 -92 100c-54 0 -92 -40 -92 -100s38 -99 92 -99zM297 -18c-42 1 -77 6 -107 14c-24 -14 -37 -34 -37 -59
c0 -38 37 -56 130 -56c98 0 143 16 143 50c0 36 -29 47 -129 51z" />
    <glyph glyph-name="h" unicode="h" horiz-adv-x="599" 
d="M63 0v755h147v-280c40 41 94 74 161 74c121 0 171 -73 171 -194v-355h-147v359c0 48 -19 81 -70 81c-44 0 -83 -23 -115 -63v-377h-147z" />
    <glyph glyph-name="i" unicode="i" horiz-adv-x="272" 
d="M63 0v529h147v-529h-147zM63 624v126h147v-126h-147z" />
    <glyph glyph-name="j" unicode="j" horiz-adv-x="284" 
d="M74 -13v542h147v-534c0 -141 -67 -205 -187 -205c-45 0 -83 11 -108 20l31 108c18 -6 37 -10 56 -10c40 0 61 20 61 79zM74 623v127h147v-127h-147z" />
    <glyph glyph-name="k" unicode="k" horiz-adv-x="585" 
d="M63 0v755h147v-453l196 235h154l-166 -190l179 -347h-166l-110 236l-87 -99v-137h-147z" />
    <glyph glyph-name="l" unicode="l" horiz-adv-x="274" 
d="M64 0v755h147v-755h-147z" />
    <glyph glyph-name="m" unicode="m" horiz-adv-x="906" 
d="M61 0v537h139l6 -58c42 40 101 71 158 71c73 0 118 -30 142 -79c52 50 110 79 176 79c112 0 166 -74 166 -192v-358h-146v361c0 50 -20 78 -65 78c-39 0 -77 -21 -110 -57c1 -12 2 -23 2 -35v-347h-147v361c0 50 -20 78 -65 78c-40 0 -81 -22 -110 -61v-378h-146z" />
    <glyph glyph-name="n" unicode="n" horiz-adv-x="597" 
d="M61 0v537h138l7 -62c39 41 96 75 163 75c120 0 171 -74 171 -195v-355h-147v359c0 48 -20 81 -70 81c-45 0 -84 -23 -116 -63v-377h-146z" />
    <glyph glyph-name="o" unicode="o" 
d="M37 274c0 166 116 275 271 275c153 0 268 -109 268 -275c0 -177 -108 -286 -268 -286c-162 0 -271 109 -271 286zM185 273c0 -106 44 -175 123 -175c76 0 120 69 120 175c0 99 -48 165 -120 165c-74 0 -123 -66 -123 -165z" />
    <glyph glyph-name="p" unicode="p" horiz-adv-x="607" 
d="M207 57v-257h-145v737h132l11 -65c41 47 95 77 157 77c124 0 208 -93 208 -274c0 -189 -85 -287 -205 -287c-67 0 -118 29 -158 69zM207 153c34 -37 67 -53 111 -53c71 0 106 69 106 174c0 106 -35 163 -106 163c-43 0 -79 -20 -111 -56v-228z" />
    <glyph glyph-name="q" unicode="q" horiz-adv-x="608" 
d="M289 100c45 0 78 16 112 53v228c-33 36 -68 56 -112 56c-70 0 -105 -57 -105 -163c0 -105 35 -174 105 -174zM243 -12c-121 0 -206 98 -206 287c0 181 84 274 209 274c63 0 116 -30 157 -77l11 65h133v-737h-146v257c-40 -40 -90 -69 -158 -69z" />
    <glyph glyph-name="r" unicode="r" horiz-adv-x="443" 
d="M61 0v537h135l10 -83c41 72 92 98 153 98c25 0 48 -4 66 -11l-21 -134c-19 7 -42 12 -72 12c-55 0 -92 -34 -125 -96v-323h-146z" />
    <glyph glyph-name="s" unicode="s" horiz-adv-x="509" 
d="M31 46l56 102c52 -29 110 -49 166 -49c50 0 80 16 80 51c0 91 -290 31 -290 232c0 109 99 167 213 167c59 0 124 -12 200 -47l-52 -102c-51 25 -110 38 -146 38c-44 0 -72 -17 -72 -50c0 -89 288 -26 288 -229c0 -111 -92 -171 -219 -171c-82 0 -156 21 -224 58z" />
    <glyph glyph-name="t" unicode="t" horiz-adv-x="437" 
d="M101 163v270h-85v104h85v134h147v-134h147v-104h-147v-267c0 -40 15 -60 49 -60c27 0 52 9 73 24l54 -88c-41 -32 -98 -54 -157 -54c-112 0 -166 55 -166 175z" />
    <glyph glyph-name="u" unicode="u" horiz-adv-x="598" 
d="M58 182v355h147v-358c0 -48 17 -81 69 -81c46 0 84 23 117 61v378h147v-537h-136l-9 62c-39 -40 -98 -74 -164 -74c-121 0 -171 73 -171 194z" />
    <glyph glyph-name="v" unicode="v" horiz-adv-x="542" 
d="M192 0l-178 537h145l114 -378h2l114 378h139l-179 -537h-157z" />
    <glyph glyph-name="w" unicode="w" horiz-adv-x="845" 
d="M189 0l-175 537h143l108 -348h2l97 348h118l98 -348h2l107 348h141l-175 -537h-133l-99 330h-2l-99 -330h-133z" />
    <glyph glyph-name="x" unicode="x" horiz-adv-x="547" 
d="M18 0l170 272l-166 265h153l99 -167l98 167h153l-165 -265l168 -272h-149l-106 173l-106 -173h-149z" />
    <glyph glyph-name="y" unicode="y" horiz-adv-x="556" 
d="M49 -76c25 -9 50 -17 73 -17c37 0 57 13 71 54l17 45l-195 531h147l118 -354h2l117 354h142l-200 -567c-52 -144 -115 -180 -210 -180c-45 0 -88 9 -122 20z" />
    <glyph glyph-name="z" unicode="z" horiz-adv-x="522" 
d="M42 0v96l255 329h-248v112h427v-98l-252 -328h262v-111h-444z" />
    <glyph glyph-name="A.small" unicode="&#xe06c;" horiz-adv-x="632" 
d="M15 0l222 564h159l220 -564h-154l-34 95h-226l-33 -95h-154zM314 411l-75 -211h152l-75 211h-2z" />
    <glyph glyph-name="B.small" unicode="&#xe06d;" horiz-adv-x="605" 
d="M63 0v564h258c151 0 220 -63 220 -152c0 -59 -35 -98 -83 -119c68 -20 107 -68 107 -130c0 -108 -92 -163 -231 -163h-271zM211 331h104c54 0 83 21 83 63c0 40 -29 63 -83 63h-104v-126zM211 108h120c54 0 84 22 84 65c0 44 -30 66 -84 66h-120v-131z" />
    <glyph glyph-name="C.small" unicode="&#xe06e;" horiz-adv-x="618" 
d="M40 287c0 162 121 291 311 291c76 0 156 -24 222 -76l-75 -97c-43 35 -90 55 -142 55c-99 0 -168 -71 -168 -173c0 -106 66 -182 168 -182c59 0 103 22 145 62l85 -85c-61 -58 -139 -94 -236 -94c-193 0 -310 131 -310 299z" />
    <glyph glyph-name="D.small" unicode="&#xe06f;" horiz-adv-x="634" 
d="M63 0v564h205c213 0 326 -105 326 -276c0 -179 -106 -288 -326 -288h-205zM211 114h63c120 0 172 66 172 175c0 100 -57 163 -172 163h-63v-338z" />
    <glyph glyph-name="E.small" unicode="&#xe070;" horiz-adv-x="553" 
d="M63 0v564h438v-116h-290v-111h257v-104h-257v-117h294v-116h-442z" />
    <glyph glyph-name="F.small" unicode="&#xe071;" horiz-adv-x="552" 
d="M63 0v564h442v-116h-294v-112h254v-105h-254v-231h-148z" />
    <glyph glyph-name="G.small" unicode="&#xe072;" horiz-adv-x="646" 
d="M40 286c0 165 121 292 317 292c73 0 153 -24 220 -67l-69 -96c-45 27 -93 45 -151 45c-107 0 -169 -76 -169 -174c0 -102 59 -181 169 -181c42 0 79 9 107 23v97h-127v93h254v-257c-61 -46 -147 -73 -237 -73c-192 0 -314 125 -314 298z" />
    <glyph glyph-name="H.small" unicode="&#xe073;" horiz-adv-x="638" 
d="M63 0v564h148v-215h217v215h147v-564h-147v228h-217v-228h-148z" />
    <glyph glyph-name="I.small" unicode="&#xe074;" horiz-adv-x="273" 
d="M63 0v564h147v-564h-147z" />
    <glyph glyph-name="J.small" unicode="&#xe075;" horiz-adv-x="499" 
d="M22 95l101 69c22 -35 52 -58 92 -58c54 0 77 33 77 89v369h148v-371c0 -123 -72 -205 -214 -205c-94 0 -158 40 -204 107z" />
    <glyph glyph-name="K.small" unicode="&#xe076;" horiz-adv-x="629" 
d="M64 0v564h147v-243l209 243h174l-193 -212l212 -352h-168l-141 246l-93 -102v-144h-147z" />
    <glyph glyph-name="L.small" unicode="&#xe077;" horiz-adv-x="547" 
d="M63 0v564h147v-443h304v-121h-451z" />
    <glyph glyph-name="M.small" unicode="&#xe078;" horiz-adv-x="760" 
d="M63 0v564h139l178 -230l179 230h138v-564h-141v362l-176 -222l-175 221v-361h-142z" />
    <glyph glyph-name="N.small" unicode="&#xe079;" horiz-adv-x="653" 
d="M63 0v564h136l251 -342v342h140v-564h-135l-252 342v-342h-140z" />
    <glyph glyph-name="O.small" unicode="&#xe07a;" horiz-adv-x="696" 
d="M40 286c0 171 137 292 309 292c170 0 307 -121 307 -292c0 -181 -135 -298 -307 -298c-174 0 -309 117 -309 298zM188 286c0 -108 68 -181 161 -181c91 0 159 73 159 181c0 101 -69 174 -159 174c-92 0 -161 -73 -161 -174z" />
    <glyph glyph-name="P.small" unicode="&#xe07b;" horiz-adv-x="611" 
d="M211 290h111c67 0 95 35 95 79c0 46 -28 81 -95 81h-111v-160zM63 0v564h266c173 0 234 -97 234 -194c0 -95 -61 -193 -234 -193h-118v-177h-148z" />
    <glyph glyph-name="Q.small" unicode="&#xe07c;" horiz-adv-x="699" 
d="M40 286c0 171 137 292 309 292c170 0 307 -121 307 -292c0 -73 -22 -136 -60 -184l67 -53l-64 -73l-73 62c-50 -32 -111 -50 -177 -50c-174 0 -309 117 -309 298zM344 193l56 68l86 -72c14 27 22 60 22 97c0 101 -69 174 -159 174c-92 0 -161 -73 -161 -174
c0 -108 68 -181 161 -181c29 0 55 7 78 20z" />
    <glyph glyph-name="R.small" unicode="&#xe07d;" horiz-adv-x="627" 
d="M63 0v564h276c174 0 235 -97 235 -194c0 -65 -28 -126 -101 -159l106 -211h-153l-84 187h-3h-128v-187h-148zM211 291h121c67 0 96 35 96 80c0 44 -29 79 -96 79h-121v-159z" />
    <glyph glyph-name="S.small" unicode="&#xe07e;" horiz-adv-x="560" 
d="M36 54l67 104c52 -33 120 -54 177 -54c65 0 95 22 95 54c0 101 -323 38 -323 246c0 101 86 174 235 174c75 0 153 -18 217 -49l-56 -105c-52 25 -117 39 -164 39c-55 0 -85 -22 -85 -51c0 -98 322 -29 322 -250c0 -99 -78 -174 -239 -174c-93 0 -182 27 -246 66z" />
    <glyph glyph-name="T.small" unicode="&#xe07f;" horiz-adv-x="587" 
d="M220 0v444h-194v120h535v-120h-194v-444h-147z" />
    <glyph glyph-name="U.small" unicode="&#xe080;" horiz-adv-x="628" 
d="M59 213v351h148v-351c0 -70 43 -108 107 -108c63 0 107 38 107 108v351h148v-351c0 -148 -109 -226 -255 -226s-255 78 -255 226z" />
    <glyph glyph-name="V.small" unicode="&#xe081;" horiz-adv-x="625" 
d="M233 0l-219 564h154l143 -408h2l146 408h153l-221 -564h-158z" />
    <glyph glyph-name="W.small" unicode="&#xe082;" horiz-adv-x="929" 
d="M206 0l-187 564h150l115 -370h2l110 370h144l106 -372h2l117 372h144l-186 -564h-144l-115 369h-2l-111 -369h-145z" />
    <glyph glyph-name="X.small" unicode="&#xe083;" horiz-adv-x="640" 
d="M20 0l209 287l-201 277h170l122 -172l122 172h170l-201 -277l208 -287h-169l-131 184l-131 -184h-168z" />
    <glyph glyph-name="Y.small" unicode="&#xe084;" horiz-adv-x="633" 
d="M243 0v212l-230 352h173l130 -215h2l129 215h173l-230 -352v-212h-147z" />
    <glyph glyph-name="Z.small" unicode="&#xe085;" horiz-adv-x="577" 
d="M44 0v99l291 346h-292v119h485v-97l-291 -347h302v-120h-495z" />
    <glyph glyph-name="Aacute" unicode="&#xc1;" horiz-adv-x="713" 
d="M17 0l253 700h172l253 -700h-162l-44 131h-266l-43 -131h-163zM354 532l-93 -284h189l-94 284h-2zM289 755l111 150l115 -67l-120 -83h-106z" />
    <glyph glyph-name="Agrave" unicode="&#xc0;" horiz-adv-x="713" 
d="M17 0l253 700h172l253 -700h-162l-44 131h-266l-43 -131h-163zM354 532l-93 -284h189l-94 284h-2zM317 755l-119 83l114 67l112 -150h-107z" />
    <glyph glyph-name="Acircumflex" unicode="&#xc2;" horiz-adv-x="713" 
d="M17 0l253 700h172l253 -700h-162l-44 131h-266l-43 -131h-163zM354 532l-93 -284h189l-94 284h-2zM168 755l117 133h142l117 -133h-99l-88 65h-1l-89 -65h-99z" />
    <glyph glyph-name="Adieresis" unicode="&#xc4;" horiz-adv-x="713" 
d="M17 0l253 700h172l253 -700h-162l-44 131h-266l-43 -131h-163zM354 532l-93 -284h189l-94 284h-2zM416 764v115h116v-115h-116zM181 764v115h116v-115h-116z" />
    <glyph glyph-name="Atilde" unicode="&#xc3;" horiz-adv-x="713" 
d="M17 0l253 700h172l253 -700h-162l-44 131h-266l-43 -131h-163zM354 532l-93 -284h189l-94 284h-2zM180 756c-10 88 35 140 107 140c66 0 92 -52 131 -52c24 0 35 16 32 43h82c10 -87 -35 -141 -108 -141c-65 0 -91 52 -131 52c-23 0 -35 -15 -31 -42h-82z" />
    <glyph glyph-name="Aring" unicode="&#xc5;" horiz-adv-x="713" 
d="M17 0l248 686c-18 20 -29 46 -29 76c0 67 54 116 120 116c67 0 120 -49 120 -116c0 -30 -11 -57 -29 -77l248 -685h-162l-44 131h-266l-43 -131h-163zM354 532l-93 -284h189l-94 284h-2zM294 762c0 -33 25 -60 57 -62h10c32 2 57 29 57 62c0 36 -27 63 -62 63
c-34 0 -62 -27 -62 -63z" />
    <glyph glyph-name="Acaron" unicode="&#x1cd;" horiz-adv-x="713" 
d="M17 0l253 700h172l253 -700h-162l-44 131h-266l-43 -131h-163zM354 532l-93 -284h189l-94 284h-2zM284 755l-116 133h99l87 -64h2l88 64h100l-117 -133h-143z" />
    <glyph glyph-name="Amacron" unicode="&#x100;" horiz-adv-x="713" 
d="M17 0l253 700h172l253 -700h-162l-44 131h-266l-43 -131h-163zM354 532l-93 -284h189l-94 284h-2zM190 776v90h332v-90h-332z" />
    <glyph glyph-name="Abreve" unicode="&#x102;" horiz-adv-x="713" 
d="M17 0l253 700h172l253 -700h-162l-44 131h-266l-43 -131h-163zM356 750c-102 0 -162 54 -178 138h94c12 -32 40 -53 84 -53s73 21 85 53h92c-15 -84 -78 -138 -177 -138zM354 532l-93 -284h189l-94 284h-2z" />
    <glyph glyph-name="Ainvertedbreve" unicode="&#x202;" horiz-adv-x="713" 
d="M17 0l253 700h172l253 -700h-162l-44 131h-266l-43 -131h-163zM355 892c102 0 162 -52 178 -137h-94c-12 33 -41 53 -84 53c-44 0 -72 -20 -84 -53h-93c15 85 78 137 177 137zM354 532l-93 -284h189l-94 284h-2z" />
    <glyph glyph-name="Adoublegrave" unicode="&#x200;" horiz-adv-x="713" 
d="M17 0l253 700h172l253 -700h-162l-44 131h-266l-43 -131h-163zM354 532l-93 -284h189l-94 284h-2zM335 755h-107l-120 83l115 67zM535 755h-107l-121 83l115 67z" />
    <glyph glyph-name="Adotabove" unicode="&#x226;" horiz-adv-x="713" 
d="M17 0l253 700h172l253 -700h-162l-44 131h-266l-43 -131h-163zM354 532l-93 -284h189l-94 284h-2zM297 764v115h117v-115h-117z" />
    <glyph glyph-name="Aringacute" unicode="&#x1fa;" horiz-adv-x="713" 
d="M17 0l248 686c-18 20 -29 46 -29 76c0 67 54 116 120 116c67 0 120 -49 120 -116c0 -30 -11 -57 -29 -77l248 -685h-162l-44 131h-266l-43 -131h-163zM354 532l-93 -284h189l-94 284h-2zM289 901l111 150l115 -67l-120 -83h-106zM356 700c35 0 62 28 62 62
c0 36 -27 63 -62 63c-34 0 -62 -27 -62 -63c0 -33 25 -60 57 -62h5z" />
    <glyph glyph-name="Adieresismacron" unicode="&#x1de;" horiz-adv-x="713" 
d="M17 0l253 700h172l253 -700h-162l-44 131h-266l-43 -131h-163zM354 532l-93 -284h189l-94 284h-2zM416 755v115h116v-115h-116zM181 755v115h116v-115h-116zM190 919v90h332v-90h-332z" />
    <glyph glyph-name="Aogonek" unicode="&#x104;" horiz-adv-x="713" 
d="M708 -97v-98c-23 -8 -49 -12 -78 -12c-73 0 -120 40 -120 101c0 42 22 79 61 106h-38l-44 131h-266l-43 -131h-163l253 700h172l253 -700c-57 -17 -82 -38 -82 -70c0 -23 17 -36 43 -36c19 0 36 5 49 11zM354 532l-93 -284h189l-94 284h-2z" />
    <glyph glyph-name="AE" unicode="&#xc6;" horiz-adv-x="1059" 
d="M12 0l315 700h676v-132h-436l42 -152h355v-121h-321l45 -163h320v-132h-446l-34 131h-289l-55 -131h-172zM419 557l-128 -304h206z" />
    <glyph glyph-name="AEacute" unicode="&#x1fc;" horiz-adv-x="1059" 
d="M562 0l-34 131h-289l-55 -131h-172l315 700h676v-132h-436l42 -152h355v-121h-321l45 -163h320v-132h-446zM419 557l-128 -304h206zM434 755l111 150l115 -67l-120 -83h-106z" />
    <glyph glyph-name="AEmacron" unicode="&#x1e2;" horiz-adv-x="1059" 
d="M562 0l-34 131h-289l-55 -131h-172l315 700h676v-132h-436l42 -152h355v-121h-321l45 -163h320v-132h-446zM419 557l-128 -304h206zM335 776v90h332v-90h-332z" />
    <glyph glyph-name="Cacute" unicode="&#x106;" horiz-adv-x="705" 
d="M41 354c0 207 151 358 365 358c97 0 181 -31 254 -89l-82 -104c-49 39 -101 65 -169 65c-130 0 -215 -91 -215 -230c0 -144 83 -238 215 -238c70 0 126 27 173 73l90 -96c-75 -70 -162 -105 -271 -105c-214 0 -360 153 -360 366zM313 755l111 150l115 -67l-120 -83h-106z
" />
    <glyph glyph-name="Ccircumflex" unicode="&#x108;" horiz-adv-x="705" 
d="M41 354c0 207 151 358 365 358c97 0 181 -31 254 -89l-82 -104c-49 39 -101 65 -169 65c-130 0 -215 -91 -215 -230c0 -144 83 -238 215 -238c70 0 126 27 173 73l90 -96c-75 -70 -162 -105 -271 -105c-214 0 -360 153 -360 366zM192 755l117 133h142l117 -133h-99
l-88 65h-1l-89 -65h-99z" />
    <glyph glyph-name="Ccaron" unicode="&#x10c;" horiz-adv-x="705" 
d="M41 354c0 207 151 358 365 358c97 0 181 -31 254 -89l-82 -104c-49 39 -101 65 -169 65c-130 0 -215 -91 -215 -230c0 -144 83 -238 215 -238c70 0 126 27 173 73l90 -96c-75 -70 -162 -105 -271 -105c-214 0 -360 153 -360 366zM308 755l-116 133h99l87 -64h2l88 64h100
l-117 -133h-143z" />
    <glyph glyph-name="Cdotaccent" unicode="&#x10a;" horiz-adv-x="705" 
d="M321 764v115h117v-115h-117zM41 354c0 207 151 358 365 358c97 0 181 -31 254 -89l-82 -104c-49 39 -101 65 -169 65c-130 0 -215 -91 -215 -230c0 -144 83 -238 215 -238c70 0 126 27 173 73l90 -96c-75 -70 -162 -105 -271 -105c-214 0 -360 153 -360 366z" />
    <glyph glyph-name="Ccedilla" unicode="&#xc7;" horiz-adv-x="705" 
d="M212 -172c53 42 105 101 122 166c-177 28 -293 170 -293 360c0 207 151 358 365 358c97 0 181 -31 254 -89l-82 -104c-49 39 -101 65 -169 65c-130 0 -215 -91 -215 -230c0 -144 83 -238 215 -238c70 0 126 27 173 73l90 -96c-71 -66 -152 -100 -252 -104
c-10 -85 -49 -157 -108 -211z" />
    <glyph glyph-name="Dcaron" unicode="&#x10e;" horiz-adv-x="723" 
d="M305 755l-116 133h99l87 -64h2l88 64h100l-117 -133h-143zM68 0v700h230c250 0 385 -129 385 -347c0 -223 -126 -353 -385 -353h-230zM219 123h90c147 0 221 87 221 229c0 137 -79 225 -221 225h-90v-454z" />
    <glyph glyph-name="Dcedilla" unicode="&#x1e10;" horiz-adv-x="723" 
d="M325 -41h93c-15 -73 -51 -134 -102 -181l-100 50c43 35 86 79 109 131zM68 0v700h230c250 0 385 -129 385 -347c0 -223 -126 -353 -385 -353h-230zM219 123h90c147 0 221 87 221 229c0 137 -79 225 -221 225h-90v-454z" />
    <glyph glyph-name="Ddotbelow" unicode="&#x1e0c;" horiz-adv-x="723" 
d="M68 0v700h230c250 0 385 -129 385 -347c0 -223 -126 -353 -385 -353h-230zM219 123h90c147 0 221 87 221 229c0 137 -79 225 -221 225h-90v-454zM318 -188v114h116v-114h-116z" />
    <glyph glyph-name="Dcroat" unicode="&#x110;" horiz-adv-x="763" 
d="M14 309v87h94v304h230c250 0 385 -129 385 -347c0 -223 -126 -353 -385 -353h-230v309h-94zM259 123h90c147 0 221 87 221 229c0 137 -79 225 -221 225h-90v-181h157v-87h-157v-186z" />
    <glyph glyph-name="Eacute" unicode="&#xc9;" horiz-adv-x="634" 
d="M258 755l111 150l115 -67l-120 -83h-106zM68 0v700h510v-132h-359v-154h320v-117h-320v-165h363v-132h-514z" />
    <glyph glyph-name="Egrave" unicode="&#xc8;" horiz-adv-x="634" 
d="M286 755l-119 83l114 67l112 -150h-107zM68 0v700h510v-132h-359v-154h320v-117h-320v-165h363v-132h-514z" />
    <glyph glyph-name="Ecircumflex" unicode="&#xca;" horiz-adv-x="634" 
d="M68 0v700h510v-132h-359v-154h320v-117h-320v-165h363v-132h-514zM138 755l117 133h142l117 -133h-99l-88 65h-1l-89 -65h-99z" />
    <glyph glyph-name="Edieresis" unicode="&#xcb;" horiz-adv-x="634" 
d="M386 764v115h116v-115h-116zM151 764v115h116v-115h-116zM68 0v700h510v-132h-359v-154h320v-117h-320v-165h363v-132h-514z" />
    <glyph glyph-name="Ecaron" unicode="&#x11a;" horiz-adv-x="634" 
d="M254 755l-116 133h99l87 -64h2l88 64h100l-117 -133h-143zM68 0v700h510v-132h-359v-154h320v-117h-320v-165h363v-132h-514z" />
    <glyph glyph-name="Emacron" unicode="&#x112;" horiz-adv-x="634" 
d="M160 776v90h332v-90h-332zM68 0v700h510v-132h-359v-154h320v-117h-320v-165h363v-132h-514z" />
    <glyph glyph-name="Ebreve" unicode="&#x114;" horiz-adv-x="634" 
d="M325 750c-102 0 -162 54 -178 138h94c12 -32 40 -53 84 -53s73 21 85 53h92c-15 -84 -78 -138 -177 -138zM68 0v700h510v-132h-359v-154h320v-117h-320v-165h363v-132h-514z" />
    <glyph glyph-name="Einvertedbreve" unicode="&#x206;" horiz-adv-x="634" 
d="M68 0v700h510v-132h-359v-154h320v-117h-320v-165h363v-132h-514zM326 892c102 0 162 -52 178 -137h-94c-12 33 -41 53 -84 53c-44 0 -72 -20 -84 -53h-93c15 85 78 137 177 137z" />
    <glyph glyph-name="Edoublegrave" unicode="&#x204;" horiz-adv-x="635" 
d="M306 755h-107l-120 83l115 67zM506 755h-107l-121 83l115 67zM70 0v700h510v-132h-359v-154h320v-117h-320v-165h363v-132h-514z" />
    <glyph glyph-name="Edotaccent" unicode="&#x116;" horiz-adv-x="634" 
d="M268 764v115h117v-115h-117zM68 0v700h510v-132h-359v-154h320v-117h-320v-165h363v-132h-514z" />
    <glyph glyph-name="Eacutedotbelow" unicode="&#xe004;" horiz-adv-x="634" 
d="M258 755l111 150l115 -67l-120 -83h-106zM68 0v700h510v-132h-359v-154h320v-117h-320v-165h363v-132h-514zM268 -188v114h116v-114h-116z" />
    <glyph glyph-name="Egravedotbelow" unicode="&#xe005;" horiz-adv-x="634" 
d="M286 755l-119 83l114 67l112 -150h-107zM68 0v700h510v-132h-359v-154h320v-117h-320v-165h363v-132h-514zM268 -188v114h116v-114h-116z" />
    <glyph glyph-name="Eogonek" unicode="&#x118;" horiz-adv-x="634" 
d="M68 0v700h510v-132h-359v-154h320v-117h-320v-165h363v-132c-57 -17 -82 -38 -82 -70c0 -23 17 -36 43 -36c19 0 36 5 49 11l3 -2v-98c-23 -8 -49 -12 -78 -12c-73 0 -120 40 -120 101c0 42 22 79 61 106h-390z" />
    <glyph glyph-name="Gacute" unicode="&#x1f4;" horiz-adv-x="732" 
d="M313 755l111 150l115 -67l-120 -83h-106zM41 354c0 202 142 358 365 358c105 0 187 -34 258 -86l-79 -102c-51 36 -107 60 -175 60c-131 0 -215 -97 -215 -230c0 -145 80 -238 215 -238c47 0 90 11 122 30v140h-158v103h296v-320c-70 -51 -161 -81 -265 -81
c-222 0 -364 151 -364 366z" />
    <glyph glyph-name="Gcircumflex" unicode="&#x11c;" horiz-adv-x="732" 
d="M41 354c0 202 142 358 365 358c105 0 187 -34 258 -86l-79 -102c-51 36 -107 60 -175 60c-131 0 -215 -97 -215 -230c0 -145 80 -238 215 -238c47 0 90 11 122 30v140h-158v103h296v-320c-70 -51 -161 -81 -265 -81c-222 0 -364 151 -364 366zM193 755l117 133h142
l117 -133h-99l-88 65h-1l-89 -65h-99z" />
    <glyph glyph-name="Gcaron" unicode="&#x1e6;" horiz-adv-x="732" 
d="M309 755l-116 133h99l87 -64h2l88 64h100l-117 -133h-143zM41 354c0 202 142 358 365 358c105 0 187 -34 258 -86l-79 -102c-51 36 -107 60 -175 60c-131 0 -215 -97 -215 -230c0 -145 80 -238 215 -238c47 0 90 11 122 30v140h-158v103h296v-320
c-70 -51 -161 -81 -265 -81c-222 0 -364 151 -364 366z" />
    <glyph glyph-name="Gbreve" unicode="&#x11e;" horiz-adv-x="732" 
d="M380 750c-102 0 -162 54 -178 138h94c12 -32 40 -53 84 -53s73 21 85 53h92c-15 -84 -78 -138 -177 -138zM41 354c0 202 142 358 365 358c105 0 187 -34 258 -86l-79 -102c-51 36 -107 60 -175 60c-131 0 -215 -97 -215 -230c0 -145 80 -238 215 -238c47 0 90 11 122 30
v140h-158v103h296v-320c-70 -51 -161 -81 -265 -81c-222 0 -364 151 -364 366z" />
    <glyph glyph-name="Gdotaccent" unicode="&#x120;" horiz-adv-x="732" 
d="M322 764v115h117v-115h-117zM41 354c0 202 142 358 365 358c105 0 187 -34 258 -86l-79 -102c-51 36 -107 60 -175 60c-131 0 -215 -97 -215 -230c0 -145 80 -238 215 -238c47 0 90 11 122 30v140h-158v103h296v-320c-70 -51 -161 -81 -265 -81c-222 0 -364 151 -364 366
z" />
    <glyph glyph-name="Gcommaaccent" unicode="&#x122;" horiz-adv-x="732" 
d="M41 354c0 202 142 358 365 358c105 0 187 -34 258 -86l-79 -102c-51 36 -107 60 -175 60c-131 0 -215 -97 -215 -230c0 -145 80 -238 215 -238c47 0 90 11 122 30v140h-158v103h296v-320c-70 -51 -161 -81 -265 -81c-222 0 -364 151 -364 366zM300 -54c19 5 42 8 61 8
c68 0 98 -35 99 -77c1 -33 -19 -72 -47 -99h-98c27 31 37 50 37 72c0 17 -12 28 -29 26c-8 0 -16 -1 -23 -2v72z" />
    <glyph glyph-name="Gstroke" unicode="&#x1e4;" horiz-adv-x="739" 
d="M41 354c0 202 142 358 365 358c105 0 187 -34 258 -86l-79 -102c-51 36 -107 60 -175 60c-131 0 -215 -97 -215 -230c0 -145 80 -238 215 -238c47 0 90 11 122 30v140h-158v103h296v-120h81v-90h-81v-110c-70 -51 -161 -81 -265 -81c-222 0 -364 151 -364 366z" />
    <glyph glyph-name="Hcircumflex" unicode="&#x124;" horiz-adv-x="712" 
d="M68 0v700h152v-280h273v280h151v-700h-151v290h-273v-290h-152zM168 755l117 133h142l117 -133h-99l-88 65h-1l-89 -65h-99z" />
    <glyph glyph-name="Hcaron" unicode="&#x21e;" horiz-adv-x="712" 
d="M68 0v700h152v-280h273v280h151v-700h-151v290h-273v-290h-152zM284 755l-116 133h99l87 -64h2l88 64h100l-117 -133h-143z" />
    <glyph glyph-name="Hdotbelow" unicode="&#x1e24;" horiz-adv-x="712" 
d="M68 0v700h152v-280h273v280h151v-700h-151v290h-273v-290h-152zM298 -188v114h116v-114h-116z" />
    <glyph glyph-name="Hmacronbelow" unicode="&#xe009;" horiz-adv-x="712" 
d="M68 0v700h152v-280h273v280h151v-700h-151v290h-273v-290h-152zM190 -191v90h332v-90h-332z" />
    <glyph glyph-name="Hbar" unicode="&#x126;" horiz-adv-x="712" 
d="M68 0v700h152v-95h273v95h151v-700h-151v290h-273v-290h-152zM220 420h273v100h-273v-100z" />
    <glyph glyph-name="Iacute" unicode="&#xcd;" horiz-adv-x="287" 
d="M68 0v700h152v-700h-152zM77 755l111 150l115 -67l-120 -83h-106z" />
    <glyph glyph-name="Igrave" unicode="&#xcc;" horiz-adv-x="287" 
d="M68 0v700h152v-700h-152zM105 755l-119 83l114 67l112 -150h-107z" />
    <glyph glyph-name="Icircumflex" unicode="&#xce;" horiz-adv-x="287" 
d="M68 0v700h152v-700h-152zM-44 755l117 133h142l117 -133h-99l-88 65h-1l-89 -65h-99z" />
    <glyph glyph-name="Idieresis" unicode="&#xcf;" horiz-adv-x="287" 
d="M68 0v700h152v-700h-152zM204 764v115h116v-115h-116zM-31 764v115h116v-115h-116z" />
    <glyph glyph-name="Itilde" unicode="&#x128;" horiz-adv-x="287" 
d="M68 0v700h152v-700h-152zM-32 756c-10 88 35 140 107 140c66 0 92 -52 131 -52c24 0 35 16 32 43h82c10 -87 -35 -141 -108 -141c-65 0 -91 52 -131 52c-23 0 -35 -15 -31 -42h-82z" />
    <glyph glyph-name="Icaron" unicode="&#x1cf;" horiz-adv-x="287" 
d="M68 0v700h152v-700h-152zM72 755l-116 133h99l87 -64h2l88 64h100l-117 -133h-143z" />
    <glyph glyph-name="Imacron" unicode="&#x12a;" horiz-adv-x="287" 
d="M68 0v700h152v-700h-152zM-22 776v90h332v-90h-332z" />
    <glyph glyph-name="Ibreve" unicode="&#x12c;" horiz-adv-x="287" 
d="M68 0v700h152v-700h-152zM144 750c-102 0 -162 54 -178 138h94c12 -32 40 -53 84 -53s73 21 85 53h92c-15 -84 -78 -138 -177 -138z" />
    <glyph glyph-name="Iinvertedbreve" unicode="&#x20a;" horiz-adv-x="287" 
d="M68 0v700h152v-700h-152zM143 892c102 0 162 -52 178 -137h-94c-12 33 -41 53 -84 53c-44 0 -72 -20 -84 -53h-93c15 85 78 137 177 137z" />
    <glyph glyph-name="Idoublegrave" unicode="&#x208;" horiz-adv-x="287" 
d="M68 0v700h152v-700h-152zM123 755h-107l-120 83l115 67zM323 755h-107l-121 83l115 67z" />
    <glyph glyph-name="Idotaccent" unicode="&#x130;" horiz-adv-x="287" 
d="M68 0v700h152v-700h-152zM85 764v115h117v-115h-117z" />
    <glyph glyph-name="Idotbelow" unicode="&#x1eca;" horiz-adv-x="287" 
d="M68 0v700h152v-700h-152zM86 -188v114h116v-114h-116z" />
    <glyph glyph-name="Iogonek" unicode="&#x12e;" horiz-adv-x="287" 
d="M68 0v700h152v-700c-57 -17 -82 -38 -82 -70c0 -23 17 -36 43 -36c19 0 36 5 49 11l3 -2v-98c-23 -8 -49 -12 -78 -12c-73 0 -120 40 -120 101c0 42 22 79 61 106h-28z" />
    <glyph glyph-name="Jcircumflex" unicode="&#x134;" horiz-adv-x="572" 
d="M32 126l114 74c27 -49 64 -79 114 -79c61 0 96 41 96 113v466h151v-469c0 -160 -93 -243 -239 -243c-102 0 -183 49 -236 138zM244 755l117 133h142l117 -133h-99l-88 65h-1l-89 -65h-99z" />
    <glyph glyph-name="Jcaron" unicode="&#xe00c;" horiz-adv-x="572" 
d="M360 755l-116 133h99l87 -64h2l88 64h100l-117 -133h-143zM32 126l114 74c27 -49 64 -79 114 -79c61 0 96 41 96 113v466h151v-469c0 -160 -93 -243 -239 -243c-102 0 -183 49 -236 138z" />
    <glyph glyph-name="Kcaron" unicode="&#x1e8;" horiz-adv-x="692" 
d="M68 0v700h152v-327l266 327h167l-219 -261l241 -439h-171l-167 323l-117 -140v-183h-152zM274 755l-116 133h99l87 -64h2l88 64h100l-117 -133h-143z" />
    <glyph glyph-name="Kcommaaccent" unicode="&#x136;" horiz-adv-x="692" 
d="M68 0v700h152v-327l266 327h167l-219 -261l241 -439h-171l-167 323l-117 -140v-183h-152zM265 -54c19 5 42 8 61 8c68 0 98 -35 99 -77c1 -33 -19 -72 -47 -99h-98c27 31 37 50 37 72c0 17 -12 28 -29 26c-8 0 -16 -1 -23 -2v72z" />
    <glyph glyph-name="Kcedilla" unicode="&#xe00d;" horiz-adv-x="692" 
d="M68 0v700h152v-327l266 327h167l-219 -261l241 -439h-171l-167 323l-117 -140v-183h-152zM295 -41h93c-15 -73 -51 -134 -102 -181l-100 50c43 35 86 79 109 131z" />
    <glyph glyph-name="Khook" unicode="&#x198;" horiz-adv-x="692" 
d="M68 0v700h152v-352c55 23 86 81 112 134c62 139 123 208 303 222v-120c-104 -14 -140 -65 -183 -164c-1 -2 -2 -3 -2 -4l225 -416h-171l-146 287c-36 -31 -80 -52 -138 -69v-218h-152z" />
    <glyph glyph-name="Lacute" unicode="&#x139;" horiz-adv-x="602" 
d="M77 755l111 150l115 -67l-120 -83h-106zM68 0v700h152v-569h348v-131h-500z" />
    <glyph glyph-name="Lcaron" unicode="&#x13d;" horiz-adv-x="602" 
d="M68 0v700h152v-569h348v-131h-500zM300 699c19 5 42 8 61 8c68 0 98 -35 99 -77c1 -33 -19 -72 -47 -99h-98c27 31 37 50 37 72c0 17 -12 28 -29 26c-8 0 -16 -1 -23 -2v72z" />
    <glyph glyph-name="Lcommaaccent" unicode="&#x13b;" horiz-adv-x="602" 
d="M68 0v700h152v-569h348v-131h-500zM236 -54c19 5 42 8 61 8c68 0 98 -35 99 -77c1 -33 -19 -72 -47 -99h-98c27 31 37 50 37 72c0 17 -12 28 -29 26c-8 0 -16 -1 -23 -2v72z" />
    <glyph glyph-name="Lcedilla" unicode="&#xe00e;" horiz-adv-x="602" 
d="M261 -41h93c-15 -73 -51 -134 -102 -181l-100 50c43 35 86 79 109 131zM68 0v700h152v-569h348v-131h-500z" />
    <glyph glyph-name="Ldotbelow" unicode="&#x1e36;" horiz-adv-x="602" 
d="M68 0v700h152v-569h348v-131h-500zM259 -188v114h116v-114h-116z" />
    <glyph glyph-name="Ldotbelowmacron" unicode="&#x1e38;" horiz-adv-x="602" 
d="M-21 776v90h332v-90h-332zM68 0v700h152v-569h348v-131h-500zM259 -188v114h116v-114h-116z" />
    <glyph glyph-name="Ldot" unicode="&#x13f;" horiz-adv-x="602" 
d="M68 0v700h152v-569h348v-131h-500zM451 346v114h116v-114h-116z" />
    <glyph glyph-name="Lslash" unicode="&#x141;" horiz-adv-x="631" 
d="M9 209v102l87 46v343h152v-261l180 96v-103l-180 -96v-205h348v-131h-500v255z" />
    <glyph glyph-name="Mmacron" unicode="&#xe00f;" horiz-adv-x="861" 
d="M265 776v90h332v-90h-332zM68 0v700h152l211 -299l212 299h150v-700h-144v484l-219 -302l-218 302v-484h-144z" />
    <glyph glyph-name="Mcedilla" unicode="&#xe010;" horiz-adv-x="861" 
d="M379 -41h93c-15 -73 -51 -134 -102 -181l-100 50c43 35 86 79 109 131zM68 0v700h152l211 -299l212 299h150v-700h-144v484l-219 -302l-218 302v-484h-144z" />
    <glyph glyph-name="Mdotbelow" unicode="&#x1e42;" horiz-adv-x="861" 
d="M68 0v700h152l211 -299l212 299h150v-700h-144v484l-219 -302l-218 302v-484h-144zM373 -188v114h116v-114h-116z" />
    <glyph glyph-name="Nacute" unicode="&#x143;" horiz-adv-x="736" 
d="M301 755l111 150l115 -67l-120 -83h-106zM68 0v700h144l312 -461v461h143v-700h-143l-312 459v-459h-144z" />
    <glyph glyph-name="Ngrave" unicode="&#xe011;" horiz-adv-x="736" 
d="M328 755l-119 83l114 67l112 -150h-107zM68 0v700h144l312 -461v461h143v-700h-143l-312 459v-459h-144z" />
    <glyph glyph-name="Ndieresis" unicode="&#xe012;" horiz-adv-x="736" 
d="M427 764v115h116v-115h-116zM192 764v115h116v-115h-116zM68 0v700h144l312 -461v461h143v-700h-143l-312 459v-459h-144z" />
    <glyph glyph-name="Ntilde" unicode="&#xd1;" horiz-adv-x="736" 
d="M192 756c-10 88 35 140 107 140c66 0 92 -52 131 -52c24 0 35 16 32 43h82c10 -87 -35 -141 -108 -141c-65 0 -91 52 -131 52c-23 0 -35 -15 -31 -42h-82zM68 0v700h144l312 -461v461h143v-700h-143l-312 459v-459h-144z" />
    <glyph glyph-name="Ncaron" unicode="&#x147;" horiz-adv-x="736" 
d="M295 755l-116 133h99l87 -64h2l88 64h100l-117 -133h-143zM68 0v700h144l312 -461v461h143v-700h-143l-312 459v-459h-144z" />
    <glyph glyph-name="Nmacron" unicode="&#xe013;" horiz-adv-x="736" 
d="M202 776v90h332v-90h-332zM68 0v700h144l312 -461v461h143v-700h-143l-312 459v-459h-144z" />
    <glyph glyph-name="Ndotaccent" unicode="&#x1e44;" horiz-adv-x="736" 
d="M309 764v115h117v-115h-117zM68 0v700h144l312 -461v461h143v-700h-143l-312 459v-459h-144z" />
    <glyph glyph-name="Ncommaaccent" unicode="&#x145;" horiz-adv-x="736" 
d="M286 -54c19 5 42 8 61 8c68 0 98 -35 99 -77c1 -33 -19 -72 -47 -99h-98c27 31 37 50 37 72c0 17 -12 28 -29 26c-8 0 -16 -1 -23 -2v72zM68 0v700h144l312 -461v461h143v-700h-143l-312 459v-459h-144z" />
    <glyph glyph-name="Ncedilla" unicode="&#xe014;" horiz-adv-x="736" 
d="M317 -41h93c-15 -73 -51 -134 -102 -181l-100 50c43 35 86 79 109 131zM68 0v700h144l312 -461v461h143v-700h-143l-312 459v-459h-144z" />
    <glyph glyph-name="Ndotbelow" unicode="&#x1e46;" horiz-adv-x="736" 
d="M310 -188v114h116v-114h-116zM68 0v700h144l312 -461v461h143v-700h-143l-312 459v-459h-144z" />
    <glyph glyph-name="Ndescender" unicode="&#xe015;" horiz-adv-x="736" 
d="M68 0v700h144l312 -461v461h143v-900h-143v200l-312 459v-459h-144z" />
    <glyph glyph-name="Oacute" unicode="&#xd3;" horiz-adv-x="808" 
d="M337 755l111 150l115 -67l-120 -83h-106zM41 352c0 210 151 360 363 360c213 0 363 -150 363 -360c0 -212 -150 -364 -363 -364c-212 0 -363 152 -363 364zM195 352c0 -143 87 -236 209 -236c123 0 210 93 210 236c0 140 -86 233 -210 233c-123 0 -209 -93 -209 -233z
" />
    <glyph glyph-name="Ograve" unicode="&#xd2;" horiz-adv-x="808" 
d="M366 755l-119 83l114 67l112 -150h-107zM41 352c0 210 151 360 363 360c213 0 363 -150 363 -360c0 -212 -150 -364 -363 -364c-212 0 -363 152 -363 364zM195 352c0 -143 87 -236 209 -236c123 0 210 93 210 236c0 140 -86 233 -210 233c-123 0 -209 -93 -209 -233z" />
    <glyph glyph-name="Ocircumflex" unicode="&#xd4;" horiz-adv-x="808" 
d="M41 352c0 210 151 360 363 360c213 0 363 -150 363 -360c0 -212 -150 -364 -363 -364c-212 0 -363 152 -363 364zM195 352c0 -143 87 -236 209 -236c123 0 210 93 210 236c0 140 -86 233 -210 233c-123 0 -209 -93 -209 -233zM216 755l117 133h142l117 -133h-99l-88 65
h-1l-89 -65h-99z" />
    <glyph glyph-name="Odieresis" unicode="&#xd6;" horiz-adv-x="808" 
d="M464 764v115h116v-115h-116zM229 764v115h116v-115h-116zM41 352c0 210 151 360 363 360c213 0 363 -150 363 -360c0 -212 -150 -364 -363 -364c-212 0 -363 152 -363 364zM195 352c0 -143 87 -236 209 -236c123 0 210 93 210 236c0 140 -86 233 -210 233
c-123 0 -209 -93 -209 -233z" />
    <glyph glyph-name="Otilde" unicode="&#xd5;" horiz-adv-x="808" 
d="M228 756c-10 88 35 140 107 140c66 0 92 -52 131 -52c24 0 35 16 32 43h82c10 -87 -35 -141 -108 -141c-65 0 -91 52 -131 52c-23 0 -35 -15 -31 -42h-82zM41 352c0 210 151 360 363 360c213 0 363 -150 363 -360c0 -212 -150 -364 -363 -364c-212 0 -363 152 -363 364z
M195 352c0 -143 87 -236 209 -236c123 0 210 93 210 236c0 140 -86 233 -210 233c-123 0 -209 -93 -209 -233z" />
    <glyph glyph-name="Ocaron" unicode="&#x1d1;" horiz-adv-x="808" 
d="M332 755l-116 133h99l87 -64h2l88 64h100l-117 -133h-143zM41 352c0 210 151 360 363 360c213 0 363 -150 363 -360c0 -212 -150 -364 -363 -364c-212 0 -363 152 -363 364zM195 352c0 -143 87 -236 209 -236c123 0 210 93 210 236c0 140 -86 233 -210 233
c-123 0 -209 -93 -209 -233z" />
    <glyph glyph-name="Omacron" unicode="&#x14c;" horiz-adv-x="808" 
d="M238 776v90h332v-90h-332zM41 352c0 210 151 360 363 360c213 0 363 -150 363 -360c0 -212 -150 -364 -363 -364c-212 0 -363 152 -363 364zM195 352c0 -143 87 -236 209 -236c123 0 210 93 210 236c0 140 -86 233 -210 233c-123 0 -209 -93 -209 -233z" />
    <glyph glyph-name="Obreve" unicode="&#x14e;" horiz-adv-x="808" 
d="M404 750c-102 0 -162 54 -178 138h94c12 -32 40 -53 84 -53s73 21 85 53h92c-15 -84 -78 -138 -177 -138zM41 352c0 210 151 360 363 360c213 0 363 -150 363 -360c0 -212 -150 -364 -363 -364c-212 0 -363 152 -363 364zM195 352c0 -143 87 -236 209 -236
c123 0 210 93 210 236c0 140 -86 233 -210 233c-123 0 -209 -93 -209 -233z" />
    <glyph glyph-name="Oinvertedbreve" unicode="&#x20e;" horiz-adv-x="808" 
d="M403 892c102 0 162 -52 178 -137h-94c-12 33 -41 53 -84 53c-44 0 -72 -20 -84 -53h-93c15 85 78 137 177 137zM41 352c0 210 151 360 363 360c213 0 363 -150 363 -360c0 -212 -150 -364 -363 -364c-212 0 -363 152 -363 364zM195 352c0 -143 87 -236 209 -236
c123 0 210 93 210 236c0 140 -86 233 -210 233c-123 0 -209 -93 -209 -233z" />
    <glyph glyph-name="Ohungarumlaut" unicode="&#x150;" horiz-adv-x="808" 
d="M41 352c0 210 151 360 363 360c213 0 363 -150 363 -360c0 -212 -150 -364 -363 -364c-212 0 -363 152 -363 364zM195 352c0 -143 87 -236 209 -236c123 0 210 93 210 236c0 140 -86 233 -210 233c-123 0 -209 -93 -209 -233zM230 755l113 150l114 -67l-120 -83h-107z
M425 755l113 150l114 -67l-120 -83h-107z" />
    <glyph glyph-name="Odoublegrave" unicode="&#x20c;" horiz-adv-x="808" 
d="M383 755h-107l-120 83l115 67zM583 755h-107l-121 83l115 67zM41 352c0 210 151 360 363 360c213 0 363 -150 363 -360c0 -212 -150 -364 -363 -364c-212 0 -363 152 -363 364zM195 352c0 -143 87 -236 209 -236c123 0 210 93 210 236c0 140 -86 233 -210 233
c-123 0 -209 -93 -209 -233z" />
    <glyph glyph-name="Ocommaturnedabove" unicode="&#xe017;" horiz-adv-x="808" 
d="M480 827v-72c-20 -5 -42 -8 -61 -8c-68 0 -99 35 -99 78c-2 28 19 63 47 86h98c-27 -26 -37 -42 -37 -62c0 -16 11 -25 29 -24c8 0 16 1 23 2zM41 352c0 210 151 360 363 360c213 0 363 -150 363 -360c0 -212 -150 -364 -363 -364c-212 0 -363 152 -363 364zM195 352
c0 -143 87 -236 209 -236c123 0 210 93 210 236c0 140 -86 233 -210 233c-123 0 -209 -93 -209 -233z" />
    <glyph glyph-name="Otildemacron" unicode="&#x22c;" horiz-adv-x="808" 
d="M228 754c-10 88 35 140 107 140c66 0 92 -52 131 -52c24 0 35 16 32 43h82c10 -87 -35 -141 -108 -141c-65 0 -91 52 -131 52c-23 0 -35 -15 -31 -42h-82zM238 929v90h332v-90h-332zM41 352c0 210 151 360 363 360c213 0 363 -150 363 -360c0 -212 -150 -364 -363 -364
c-212 0 -363 152 -363 364zM195 352c0 -143 87 -236 209 -236c123 0 210 93 210 236c0 140 -86 233 -210 233c-123 0 -209 -93 -209 -233z" />
    <glyph glyph-name="Odotabove" unicode="&#x22e;" horiz-adv-x="808" 
d="M346 764v115h117v-115h-117zM41 352c0 210 151 360 363 360c213 0 363 -150 363 -360c0 -212 -150 -364 -363 -364c-212 0 -363 152 -363 364zM195 352c0 -143 87 -236 209 -236c123 0 210 93 210 236c0 140 -86 233 -210 233c-123 0 -209 -93 -209 -233z" />
    <glyph glyph-name="Odotabovemacron" unicode="&#x230;" horiz-adv-x="808" 
d="M346 763v115h117v-115h-117zM238 929v90h332v-90h-332zM41 352c0 210 151 360 363 360c213 0 363 -150 363 -360c0 -212 -150 -364 -363 -364c-212 0 -363 152 -363 364zM195 352c0 -143 87 -236 209 -236c123 0 210 93 210 236c0 140 -86 233 -210 233
c-123 0 -209 -93 -209 -233z" />
    <glyph glyph-name="Ocedilla" unicode="&#xe01b;" horiz-adv-x="808" 
d="M354 -41h93c-15 -73 -51 -134 -102 -181l-100 50c43 35 86 79 109 131zM41 352c0 210 151 360 363 360c213 0 363 -150 363 -360c0 -212 -150 -364 -363 -364c-212 0 -363 152 -363 364zM195 352c0 -143 87 -236 209 -236c123 0 210 93 210 236c0 140 -86 233 -210 233
c-123 0 -209 -93 -209 -233z" />
    <glyph glyph-name="Odotbelow" unicode="&#x1ecc;" horiz-adv-x="808" 
d="M41 352c0 210 151 360 363 360c213 0 363 -150 363 -360c0 -212 -150 -364 -363 -364c-212 0 -363 152 -363 364zM195 352c0 -143 87 -236 209 -236c123 0 210 93 210 236c0 140 -86 233 -210 233c-123 0 -209 -93 -209 -233zM346 -188v114h116v-114h-116z" />
    <glyph glyph-name="Ounderlineaccent" unicode="&#xe01c;" horiz-adv-x="808" 
d="M41 352c0 210 151 360 363 360c213 0 363 -150 363 -360c0 -212 -150 -364 -363 -364c-212 0 -363 152 -363 364zM195 352c0 -143 87 -236 209 -236c123 0 210 93 210 236c0 140 -86 233 -210 233c-123 0 -209 -93 -209 -233zM348 -206v160h112v-160h-112z" />
    <glyph glyph-name="Oogonek" unicode="&#x1ea;" horiz-adv-x="808" 
d="M41 352c0 210 151 360 363 360c213 0 363 -150 363 -360c0 -148 -72 -265 -187 -324c-50 -25 -99 -54 -99 -98c0 -22 16 -36 45 -36c19 0 37 5 49 11l3 -2v-98c-22 -8 -49 -12 -77 -12c-77 0 -123 40 -123 102c0 34 15 65 40 93h-14c-212 0 -363 152 -363 364zM195 352
c0 -143 87 -236 209 -236c123 0 210 93 210 236c0 140 -86 233 -210 233c-123 0 -209 -93 -209 -233z" />
    <glyph glyph-name="Oogonekmacron" unicode="&#x1ec;" horiz-adv-x="808" 
d="M41 352c0 210 151 360 363 360c213 0 363 -150 363 -360c0 -148 -72 -265 -187 -324c-50 -25 -99 -54 -99 -98c0 -22 16 -36 45 -36c19 0 37 5 49 11l3 -2v-98c-22 -8 -49 -12 -77 -12c-77 0 -123 40 -123 102c0 34 15 65 40 93h-14c-212 0 -363 152 -363 364zM195 352
c0 -143 87 -236 209 -236c123 0 210 93 210 236c0 140 -86 233 -210 233c-123 0 -209 -93 -209 -233zM239 776v90h332v-90h-332z" />
    <glyph glyph-name="Oslash" unicode="&#xd8;" horiz-adv-x="808" 
d="M41 352c0 210 151 360 363 360c75 0 143 -19 198 -53l61 77l62 -50l-61 -74c65 -64 103 -154 103 -260c0 -212 -150 -364 -363 -364c-75 0 -142 19 -198 52l-62 -76l-61 48l62 76c-66 64 -104 156 -104 264zM614 352c0 61 -17 113 -45 152l-282 -353
c33 -23 72 -35 117 -35c123 0 210 93 210 236zM195 352c0 -62 16 -115 44 -154l282 353c-33 22 -72 34 -117 34c-123 0 -209 -93 -209 -233z" />
    <glyph glyph-name="Oslashacute" unicode="&#x1fe;" horiz-adv-x="808" 
d="M41 352c0 210 151 360 363 360c75 0 143 -19 198 -53l61 77l62 -50l-61 -74c65 -64 103 -154 103 -260c0 -212 -150 -364 -363 -364c-75 0 -142 19 -198 52l-62 -76l-61 48l62 76c-66 64 -104 156 -104 264zM614 352c0 61 -17 113 -45 152l-282 -353
c33 -23 72 -35 117 -35c123 0 210 93 210 236zM195 352c0 -62 16 -115 44 -154l282 353c-33 22 -72 34 -117 34c-123 0 -209 -93 -209 -233zM337 755l111 150l115 -67l-120 -83h-106z" />
    <glyph glyph-name="barredO" unicode="&#x19f;" horiz-adv-x="808" 
d="M41 352c0 210 151 360 363 360c213 0 363 -150 363 -360c0 -212 -150 -364 -363 -364c-212 0 -363 152 -363 364zM404 116c110 0 192 74 207 193h-414c16 -119 97 -193 207 -193zM404 585c-111 0 -192 -75 -207 -192h414c-15 117 -96 192 -207 192z" />
    <glyph glyph-name="OE" unicode="&#x152;" horiz-adv-x="1175" 
d="M42 356c0 195 145 356 352 356c90 0 165 -35 216 -94v82h509v-132h-358v-152h319v-121h-319v-163h363v-132h-514v80c-50 -59 -125 -92 -216 -92c-212 0 -352 158 -352 368zM195 356c0 -139 78 -240 207 -240s208 102 208 240c0 127 -84 228 -208 228
c-125 0 -207 -101 -207 -228z" />
    <glyph glyph-name="Pmacron" unicode="&#xe01e;" horiz-adv-x="677" 
d="M68 0v700h293c201 0 270 -110 270 -222c0 -111 -70 -224 -269 -224h-142v-254h-152zM220 372h140c82 0 120 45 120 104c0 60 -39 103 -119 103h-141v-207zM167 776v90h332v-90h-332z" />
    <glyph glyph-name="Racute" unicode="&#x154;" horiz-adv-x="700" 
d="M68 0v700h308c200 0 269 -110 269 -222c0 -82 -41 -156 -128 -193l134 -285h-163l-108 261h-160v-261h-152zM220 372h154c80 0 119 45 119 104c0 61 -40 103 -118 103h-155v-207zM272 755l111 150l115 -67l-120 -83h-106z" />
    <glyph glyph-name="Rcaron" unicode="&#x158;" horiz-adv-x="700" 
d="M68 0v700h308c200 0 269 -110 269 -222c0 -82 -41 -156 -128 -193l134 -285h-163l-108 261h-160v-261h-152zM220 372h154c80 0 119 45 119 104c0 61 -40 103 -118 103h-155v-207zM268 755l-116 133h99l87 -64h2l88 64h100l-117 -133h-143z" />
    <glyph glyph-name="Rinvertedbreve" unicode="&#x212;" horiz-adv-x="700" 
d="M68 0v700h308c200 0 269 -110 269 -222c0 -82 -41 -156 -128 -193l134 -285h-163l-108 261h-160v-261h-152zM220 372h154c80 0 119 45 119 104c0 61 -40 103 -118 103h-155v-207zM339 892c102 0 162 -52 178 -137h-94c-12 33 -41 53 -84 53c-44 0 -72 -20 -84 -53h-93
c15 85 78 137 177 137z" />
    <glyph glyph-name="Rdoublegrave" unicode="&#x210;" horiz-adv-x="700" 
d="M68 0v700h308c200 0 269 -110 269 -222c0 -82 -41 -156 -128 -193l134 -285h-163l-108 261h-160v-261h-152zM220 372h154c80 0 119 45 119 104c0 61 -40 103 -118 103h-155v-207zM319 755h-107l-120 83l115 67zM519 755h-107l-121 83l115 67z" />
    <glyph glyph-name="Rcommaaccent" unicode="&#x156;" horiz-adv-x="700" 
d="M68 0v700h308c200 0 269 -110 269 -222c0 -82 -41 -156 -128 -193l134 -285h-163l-108 261h-160v-261h-152zM220 372h154c80 0 119 45 119 104c0 61 -40 103 -118 103h-155v-207zM258 -54c19 5 42 8 61 8c68 0 98 -35 99 -77c1 -33 -19 -72 -47 -99h-98
c27 31 37 50 37 72c0 17 -12 28 -29 26c-8 0 -16 -1 -23 -2v72z" />
    <glyph glyph-name="Rcedilla" unicode="&#xe020;" horiz-adv-x="700" 
d="M68 0v700h308c200 0 269 -110 269 -222c0 -82 -41 -156 -128 -193l134 -285h-163l-108 261h-160v-261h-152zM220 372h154c80 0 119 45 119 104c0 61 -40 103 -118 103h-155v-207zM288 -41h93c-15 -73 -51 -134 -102 -181l-100 50c43 35 86 79 109 131z" />
    <glyph glyph-name="Rdotbelow" unicode="&#x1e5a;" horiz-adv-x="700" 
d="M68 0v700h308c200 0 269 -110 269 -222c0 -82 -41 -156 -128 -193l134 -285h-163l-108 261h-160v-261h-152zM220 372h154c80 0 119 45 119 104c0 61 -40 103 -118 103h-155v-207zM282 -188v114h116v-114h-116z" />
    <glyph glyph-name="Rdotbelowmacron" unicode="&#x1e5c;" horiz-adv-x="700" 
d="M68 0v700h308c200 0 269 -110 269 -222c0 -82 -41 -156 -128 -193l134 -285h-163l-108 261h-160v-261h-152zM220 372h154c80 0 119 45 119 104c0 61 -40 103 -118 103h-155v-207zM174 776v90h332v-90h-332zM282 -188v114h116v-114h-116z" />
    <glyph glyph-name="Sacute" unicode="&#x15a;" horiz-adv-x="631" 
d="M38 65l72 118c62 -37 136 -63 206 -63c75 0 114 31 114 76c0 131 -378 43 -378 308c0 115 95 208 257 208c92 0 174 -22 252 -59l-56 -119c-62 31 -127 46 -189 46c-67 0 -107 -32 -107 -74c0 -129 378 -38 378 -308c0 -118 -90 -210 -270 -210c-105 0 -212 35 -279 77z
M250 755l111 150l115 -67l-120 -83h-106z" />
    <glyph glyph-name="Scircumflex" unicode="&#x15c;" horiz-adv-x="631" 
d="M38 65l72 118c62 -37 136 -63 206 -63c75 0 114 31 114 76c0 131 -378 43 -378 308c0 115 95 208 257 208c92 0 174 -22 252 -59l-56 -119c-62 31 -127 46 -189 46c-67 0 -107 -32 -107 -74c0 -129 378 -38 378 -308c0 -118 -90 -210 -270 -210c-105 0 -212 35 -279 77z
M130 755l117 133h142l117 -133h-99l-88 65h-1l-89 -65h-99z" />
    <glyph glyph-name="Scaron" unicode="&#x160;" horiz-adv-x="631" 
d="M38 65l72 118c62 -37 136 -63 206 -63c75 0 114 31 114 76c0 131 -378 43 -378 308c0 115 95 208 257 208c92 0 174 -22 252 -59l-56 -119c-62 31 -127 46 -189 46c-67 0 -107 -32 -107 -74c0 -129 378 -38 378 -308c0 -118 -90 -210 -270 -210c-105 0 -212 35 -279 77z
M246 755l-116 133h99l87 -64h2l88 64h100l-117 -133h-143z" />
    <glyph glyph-name="Scommaaccent" unicode="&#x218;" horiz-adv-x="631" 
d="M38 65l72 118c62 -37 136 -63 206 -63c75 0 114 31 114 76c0 131 -378 43 -378 308c0 115 95 208 257 208c92 0 174 -22 252 -59l-56 -119c-62 31 -127 46 -189 46c-67 0 -107 -32 -107 -74c0 -129 378 -38 378 -308c0 -118 -90 -210 -270 -210c-105 0 -212 35 -279 77z
M236 -54c19 5 42 8 61 8c68 0 98 -35 99 -77c1 -33 -19 -72 -47 -99h-98c27 31 37 50 37 72c0 17 -12 28 -29 26c-8 0 -16 -1 -23 -2v72z" />
    <glyph glyph-name="Scedilla" unicode="&#x15e;" horiz-adv-x="631" 
d="M151 -172c52 41 103 99 121 162c-90 8 -177 39 -234 75l72 118c62 -37 136 -63 206 -63c75 0 114 31 114 76c0 131 -378 43 -378 308c0 115 95 208 257 208c92 0 174 -22 252 -59l-56 -119c-62 31 -127 46 -189 46c-67 0 -107 -32 -107 -74c0 -129 378 -38 378 -308
c0 -109 -76 -195 -228 -208c-10 -86 -49 -158 -108 -212z" />
    <glyph glyph-name="Sdotbelow" unicode="&#x1e62;" horiz-adv-x="631" 
d="M38 65l72 118c62 -37 136 -63 206 -63c75 0 114 31 114 76c0 131 -378 43 -378 308c0 115 95 208 257 208c92 0 174 -22 252 -59l-56 -119c-62 31 -127 46 -189 46c-67 0 -107 -32 -107 -74c0 -129 378 -38 378 -308c0 -118 -90 -210 -270 -210c-105 0 -212 35 -279 77z
M259 -188v114h116v-114h-116z" />
    <glyph glyph-name="germandbls.cap" unicode="&#x1e9e;" horiz-adv-x="714" 
d="M65 0v476c0 153 123 236 285 236c160 0 286 -82 286 -202c0 -76 -50 -124 -120 -150v-1c91 -20 158 -79 158 -176c0 -130 -109 -195 -244 -195c-49 0 -95 8 -135 18l25 112c23 -6 60 -13 87 -13c64 0 116 31 116 93c0 67 -56 97 -139 97h-53v115h29c81 0 126 36 126 93
c0 56 -53 96 -137 96c-82 0 -132 -43 -132 -120v-479h-152z" />
    <glyph glyph-name="Tcaron" unicode="&#x164;" horiz-adv-x="665" 
d="M261 755l-116 133h99l87 -64h2l88 64h100l-117 -133h-143zM257 0v566h-231v134h614v-134h-232v-566h-151z" />
    <glyph glyph-name="Tcommaaccent" unicode="&#x21a;" horiz-adv-x="665" 
d="M257 0v566h-231v134h614v-134h-232v-566h-151zM258 -54c19 5 42 8 61 8c68 0 98 -35 99 -77c1 -33 -19 -72 -47 -99h-98c27 31 37 50 37 72c0 17 -12 28 -29 26c-8 0 -16 -1 -23 -2v72z" />
    <glyph glyph-name="Tcedilla" unicode="&#x162;" horiz-adv-x="665" 
d="M283 -41h93c-15 -73 -51 -134 -102 -181l-100 50c43 35 86 79 109 131zM257 0v566h-231v134h614v-134h-232v-566h-151z" />
    <glyph glyph-name="Tdotbelow" unicode="&#x1e6c;" horiz-adv-x="665" 
d="M257 0v566h-231v134h614v-134h-232v-566h-151zM275 -188v114h116v-114h-116z" />
    <glyph glyph-name="Tbar" unicode="&#x166;" horiz-adv-x="665" 
d="M128 308v87h129v171h-231v134h614v-134h-232v-171h129v-87h-129v-308h-151v308h-129z" />
    <glyph glyph-name="Uacute" unicode="&#xda;" horiz-adv-x="721" 
d="M293 755l111 150l115 -67l-120 -83h-106zM65 266v434h153v-434c0 -95 58 -149 143 -149c84 0 143 54 143 149v434h152v-434c0 -187 -123 -278 -295 -278s-296 91 -296 278z" />
    <glyph glyph-name="Ugrave" unicode="&#xd9;" horiz-adv-x="721" 
d="M321 755l-119 83l114 67l112 -150h-107zM65 266v434h153v-434c0 -95 58 -149 143 -149c84 0 143 54 143 149v434h152v-434c0 -187 -123 -278 -295 -278s-296 91 -296 278z" />
    <glyph glyph-name="Ucircumflex" unicode="&#xdb;" horiz-adv-x="721" 
d="M65 266v434h153v-434c0 -95 58 -149 143 -149c84 0 143 54 143 149v434h152v-434c0 -187 -123 -278 -295 -278s-296 91 -296 278zM173 755l117 133h142l117 -133h-99l-88 65h-1l-89 -65h-99z" />
    <glyph glyph-name="Udieresis" unicode="&#xdc;" horiz-adv-x="721" 
d="M421 764v115h116v-115h-116zM186 764v115h116v-115h-116zM65 266v434h153v-434c0 -95 58 -149 143 -149c84 0 143 54 143 149v434h152v-434c0 -187 -123 -278 -295 -278s-296 91 -296 278z" />
    <glyph glyph-name="Utilde" unicode="&#x168;" horiz-adv-x="721" 
d="M185 756c-10 88 35 140 107 140c66 0 92 -52 131 -52c24 0 35 16 32 43h82c10 -87 -35 -141 -108 -141c-65 0 -91 52 -131 52c-23 0 -35 -15 -31 -42h-82zM65 266v434h153v-434c0 -95 58 -149 143 -149c84 0 143 54 143 149v434h152v-434c0 -187 -123 -278 -295 -278
s-296 91 -296 278z" />
    <glyph glyph-name="Uring" unicode="&#x16e;" horiz-adv-x="721" 
d="M65 266v434h153v-434c0 -95 58 -149 143 -149c84 0 143 54 143 149v434h152v-434c0 -187 -123 -278 -295 -278s-296 91 -296 278zM361 748c-66 0 -120 49 -120 115c0 67 54 116 120 116c67 0 120 -49 120 -116c0 -66 -53 -115 -120 -115zM361 801c35 0 62 28 62 62
c0 36 -27 63 -62 63c-34 0 -62 -27 -62 -63c0 -34 28 -62 62 -62z" />
    <glyph glyph-name="Ucaron" unicode="&#x1d3;" horiz-adv-x="721" 
d="M289 755l-116 133h99l87 -64h2l88 64h100l-117 -133h-143zM65 266v434h153v-434c0 -95 58 -149 143 -149c84 0 143 54 143 149v434h152v-434c0 -187 -123 -278 -295 -278s-296 91 -296 278z" />
    <glyph glyph-name="Umacron" unicode="&#x16a;" horiz-adv-x="721" 
d="M195 776v90h332v-90h-332zM65 266v434h153v-434c0 -95 58 -149 143 -149c84 0 143 54 143 149v434h152v-434c0 -187 -123 -278 -295 -278s-296 91 -296 278z" />
    <glyph glyph-name="Ubreve" unicode="&#x16c;" horiz-adv-x="721" 
d="M360 750c-102 0 -162 54 -178 138h94c12 -32 40 -53 84 -53s73 21 85 53h92c-15 -84 -78 -138 -177 -138zM65 266v434h153v-434c0 -95 58 -149 143 -149c84 0 143 54 143 149v434h152v-434c0 -187 -123 -278 -295 -278s-296 91 -296 278z" />
    <glyph glyph-name="Uinvertedbreve" unicode="&#x216;" horiz-adv-x="721" 
d="M65 266v434h153v-434c0 -95 58 -149 143 -149c84 0 143 54 143 149v434h152v-434c0 -187 -123 -278 -295 -278s-296 91 -296 278zM361 892c102 0 162 -52 178 -137h-94c-12 33 -41 53 -84 53c-44 0 -72 -20 -84 -53h-93c15 85 78 137 177 137z" />
    <glyph glyph-name="Uhungarumlaut" unicode="&#x170;" horiz-adv-x="721" 
d="M65 266v434h153v-434c0 -95 58 -149 143 -149c84 0 143 54 143 149v434h152v-434c0 -187 -123 -278 -295 -278s-296 91 -296 278zM185 755l113 150l114 -67l-120 -83h-107zM380 755l113 150l114 -67l-120 -83h-107z" />
    <glyph glyph-name="Udoublegrave" unicode="&#x214;" horiz-adv-x="721" 
d="M339 755h-107l-120 83l115 67zM539 755h-107l-121 83l115 67zM65 266v434h153v-434c0 -95 58 -149 143 -149c84 0 143 54 143 149v434h152v-434c0 -187 -123 -278 -295 -278s-296 91 -296 278z" />
    <glyph glyph-name="Uogonek" unicode="&#x172;" horiz-adv-x="721" 
d="M65 266v434h153v-434c0 -95 58 -149 143 -149c84 0 143 54 143 149v434h152v-434c0 -121 -52 -202 -134 -244c-61 -32 -89 -59 -89 -92c0 -22 17 -36 45 -36c20 0 37 5 49 11l4 -2v-98c-23 -8 -49 -12 -78 -12c-76 0 -123 40 -123 102c0 34 15 65 41 93h-10
c-172 0 -296 91 -296 278z" />
    <glyph glyph-name="Udotbelow" unicode="&#x1ee4;" horiz-adv-x="721" 
d="M65 266v434h153v-434c0 -95 58 -149 143 -149c84 0 143 54 143 149v434h152v-434c0 -187 -123 -278 -295 -278s-296 91 -296 278zM303 -188v114h116v-114h-116z" />
    <glyph glyph-name="Umacronbelow" unicode="&#xe023;" horiz-adv-x="721" 
d="M195 -191v90h332v-90h-332zM65 266v434h153v-434c0 -95 58 -149 143 -149c84 0 143 54 143 149v434h152v-434c0 -187 -123 -278 -295 -278s-296 91 -296 278z" />
    <glyph glyph-name="Wacute" unicode="&#x1e82;" horiz-adv-x="1071" 
d="M469 755l111 150l115 -67l-120 -83h-106zM242 0l-220 700h158l146 -484h2l139 484h138l139 -484h2l146 484h158l-221 -700h-155l-137 475h-2l-138 -475h-155z" />
    <glyph glyph-name="Wgrave" unicode="&#x1e80;" horiz-adv-x="1071" 
d="M496 755l-119 83l114 67l112 -150h-107zM242 0l-220 700h158l146 -484h2l139 484h138l139 -484h2l146 484h158l-221 -700h-155l-137 475h-2l-138 -475h-155z" />
    <glyph glyph-name="Wcircumflex" unicode="&#x174;" horiz-adv-x="1071" 
d="M242 0l-220 700h158l146 -484h2l139 484h138l139 -484h2l146 484h158l-221 -700h-155l-137 475h-2l-138 -475h-155zM348 755l117 133h142l117 -133h-99l-88 65h-1l-89 -65h-99z" />
    <glyph glyph-name="Wdieresis" unicode="&#x1e84;" horiz-adv-x="1071" 
d="M596 764v115h116v-115h-116zM361 764v115h116v-115h-116zM242 0l-220 700h158l146 -484h2l139 484h138l139 -484h2l146 484h158l-221 -700h-155l-137 475h-2l-138 -475h-155z" />
    <glyph glyph-name="Yacute" unicode="&#xdd;" horiz-adv-x="703" 
d="M275 0v281l-262 419h175l163 -270h2l164 270h173l-262 -419v-281h-153zM285 755l111 150l115 -67l-120 -83h-106z" />
    <glyph glyph-name="Ygrave" unicode="&#x1ef2;" horiz-adv-x="703" 
d="M275 0v281l-262 419h175l163 -270h2l164 270h173l-262 -419v-281h-153zM312 755l-119 83l114 67l112 -150h-107z" />
    <glyph glyph-name="Ycircumflex" unicode="&#x176;" horiz-adv-x="703" 
d="M275 0v281l-262 419h175l163 -270h2l164 270h173l-262 -419v-281h-153zM164 755l117 133h142l117 -133h-99l-88 65h-1l-89 -65h-99z" />
    <glyph glyph-name="Ydieresis" unicode="&#x178;" horiz-adv-x="703" 
d="M275 0v281l-262 419h175l163 -270h2l164 270h173l-262 -419v-281h-153zM412 764v115h116v-115h-116zM177 764v115h116v-115h-116z" />
    <glyph glyph-name="Ytilde" unicode="&#x1ef8;" horiz-adv-x="703" 
d="M275 0v281l-262 419h175l163 -270h2l164 270h173l-262 -419v-281h-153zM176 756c-10 88 35 140 107 140c66 0 92 -52 131 -52c24 0 35 16 32 43h82c10 -87 -35 -141 -108 -141c-65 0 -91 52 -131 52c-23 0 -35 -15 -31 -42h-82z" />
    <glyph glyph-name="Zacute" unicode="&#x179;" horiz-adv-x="651" 
d="M46 0v113l354 452h-354v135h553v-113l-353 -451h366v-136h-566zM254 755l111 150l115 -67l-120 -83h-106z" />
    <glyph glyph-name="Zcaron" unicode="&#x17d;" horiz-adv-x="651" 
d="M253 755l-116 133h99l87 -64h2l88 64h100l-117 -133h-143zM46 0v113l354 452h-354v135h553v-113l-353 -451h366v-136h-566z" />
    <glyph glyph-name="Zdotaccent" unicode="&#x17b;" horiz-adv-x="651" 
d="M259 764v115h117v-115h-117zM46 0v113l354 452h-354v135h553v-113l-353 -451h366v-136h-566z" />
    <glyph glyph-name="Eng" unicode="&#x14a;" horiz-adv-x="736" 
d="M68 0v700h144l312 -457v457h143v-704c0 -142 -66 -206 -183 -206c-47 0 -84 11 -111 20l33 110c19 -5 37 -10 56 -10c38 0 63 20 63 77v17l-313 455v-459h-144z" />
    <glyph glyph-name="Thorn" unicode="&#xde;" horiz-adv-x="673" 
d="M68 0v700h152v-114h116c204 0 290 -99 290 -231c0 -136 -84 -236 -289 -236h-117v-119h-152zM220 238h116c89 0 139 41 139 117c0 73 -54 112 -139 112h-116v-229z" />
    <glyph glyph-name="Eth" unicode="&#xd0;" horiz-adv-x="763" 
d="M14 309v87h94v304h230c250 0 385 -129 385 -347c0 -223 -126 -353 -385 -353h-230v309h-94zM259 123h90c147 0 221 87 221 229c0 137 -79 225 -221 225h-90v-181h157v-87h-157v-186z" />
    <glyph glyph-name="Ezh" unicode="&#x1b7;" horiz-adv-x="636" 
d="M100 295l268 270h-333v135h553v-108l-306 -292c26 6 62 12 92 12c127 0 245 -100 245 -249c0 -186 -156 -273 -338 -273c-97 0 -185 21 -264 61l53 110c66 -33 131 -51 206 -51c112 0 186 52 186 155c0 96 -75 146 -179 146c-39 0 -87 -6 -121 -15z" />
    <glyph glyph-name="Ezhcaron" unicode="&#x1ee;" horiz-adv-x="636" 
d="M242 755l-116 133h99l87 -64h2l88 64h100l-117 -133h-143zM100 295l268 270h-333v135h553v-108l-306 -292c26 6 62 12 92 12c127 0 245 -100 245 -249c0 -186 -156 -273 -338 -273c-97 0 -185 21 -264 61l53 110c66 -33 131 -51 206 -51c112 0 186 52 186 155
c0 96 -75 146 -179 146c-39 0 -87 -6 -121 -15z" />
    <glyph glyph-name="Schwa" unicode="&#x18f;" horiz-adv-x="716" 
d="M52 371h468c-6 136 -85 211 -193 211c-53 0 -109 -15 -167 -57l-79 105c78 55 164 82 249 82c206 0 345 -134 345 -354c0 -230 -141 -370 -339 -370c-193 0 -289 130 -289 311c0 24 2 47 5 72zM337 112c95 0 157 65 176 169h-322c2 -114 63 -169 146 -169z" />
    <glyph glyph-name="aacute" unicode="&#xe1;" horiz-adv-x="566" 
d="M39 130c0 117 111 178 310 192v47c0 40 -23 64 -74 64s-105 -21 -171 -53l-52 108c72 36 156 61 229 61c154 0 214 -75 214 -185v-224c0 -29 17 -42 44 -42v-101c-101 0 -143 15 -173 66c-45 -48 -95 -75 -167 -75c-94 0 -160 57 -160 142zM185 147c0 -32 25 -54 62 -54
c45 0 79 19 102 45v103c-83 -5 -164 -26 -164 -94zM215 592l128 186l98 -65l-134 -121h-92z" />
    <glyph glyph-name="agrave" unicode="&#xe0;" horiz-adv-x="566" 
d="M39 130c0 117 111 178 310 192v47c0 40 -23 64 -74 64s-105 -21 -171 -53l-52 108c72 36 156 61 229 61c154 0 214 -75 214 -185v-224c0 -29 17 -42 44 -42v-101c-101 0 -143 15 -173 66c-45 -48 -95 -75 -167 -75c-94 0 -160 57 -160 142zM185 147c0 -32 25 -54 62 -54
c45 0 79 19 102 45v103c-83 -5 -164 -26 -164 -94zM265 592l-134 121l99 65l127 -186h-92z" />
    <glyph glyph-name="acircumflex" unicode="&#xe2;" horiz-adv-x="566" 
d="M39 130c0 117 111 178 310 192v47c0 40 -23 64 -74 64s-105 -21 -171 -53l-52 108c72 36 156 61 229 61c154 0 214 -75 214 -185v-224c0 -29 17 -42 44 -42v-101c-101 0 -143 15 -173 66c-45 -48 -95 -75 -167 -75c-94 0 -160 57 -160 142zM185 147c0 -32 25 -54 62 -54
c45 0 79 19 102 45v103c-83 -5 -164 -26 -164 -94zM89 592l117 160h161l117 -160h-108l-88 90h-3l-89 -90h-107z" />
    <glyph glyph-name="adieresis" unicode="&#xe4;" horiz-adv-x="566" 
d="M39 130c0 117 111 178 310 192v47c0 40 -23 64 -74 64s-105 -21 -171 -53l-52 108c72 36 156 61 229 61c154 0 214 -75 214 -185v-224c0 -29 17 -42 44 -42v-101c-101 0 -143 15 -173 66c-45 -48 -95 -75 -167 -75c-94 0 -160 57 -160 142zM185 147c0 -32 25 -54 62 -54
c45 0 79 19 102 45v103c-83 -5 -164 -26 -164 -94zM343 615v114h115v-114h-115zM114 615v114h117v-114h-117z" />
    <glyph glyph-name="atilde" unicode="&#xe3;" horiz-adv-x="566" 
d="M39 130c0 117 111 178 310 192v47c0 40 -23 64 -74 64s-105 -21 -171 -53l-52 108c72 36 156 61 229 61c154 0 214 -75 214 -185v-224c0 -29 17 -42 44 -42v-101c-101 0 -143 15 -173 66c-45 -48 -95 -75 -167 -75c-94 0 -160 57 -160 142zM185 147c0 -32 25 -54 62 -54
c45 0 79 19 102 45v103c-83 -5 -164 -26 -164 -94zM112 604c-9 91 36 143 108 143c64 0 89 -53 128 -53c24 0 35 15 31 46h82c10 -91 -35 -143 -107 -143c-63 0 -89 52 -128 52c-24 0 -35 -14 -32 -45h-82z" />
    <glyph glyph-name="aring" unicode="&#xe5;" horiz-adv-x="566" 
d="M39 130c0 117 111 178 310 192v47c0 40 -23 64 -74 64s-105 -21 -171 -53l-52 108c72 36 156 61 229 61c154 0 214 -75 214 -185v-224c0 -29 17 -42 44 -42v-101c-101 0 -143 15 -173 66c-45 -48 -95 -75 -167 -75c-94 0 -160 57 -160 142zM185 147c0 -32 25 -54 62 -54
c45 0 79 19 102 45v103c-83 -5 -164 -26 -164 -94zM286 586c-66 0 -120 48 -120 114c0 67 54 116 120 116s120 -49 120 -116c0 -66 -54 -114 -120 -114zM286 638c34 0 62 28 62 62c0 36 -28 63 -62 63c-35 0 -62 -27 -62 -63c0 -34 27 -62 62 -62z" />
    <glyph glyph-name="acaron" unicode="&#x1ce;" horiz-adv-x="566" 
d="M39 130c0 117 111 178 310 192v47c0 40 -23 64 -74 64s-105 -21 -171 -53l-52 108c72 36 156 61 229 61c154 0 214 -75 214 -185v-224c0 -29 17 -42 44 -42v-101c-101 0 -143 15 -173 66c-45 -48 -95 -75 -167 -75c-94 0 -160 57 -160 142zM185 147c0 -32 25 -54 62 -54
c45 0 79 19 102 45v103c-83 -5 -164 -26 -164 -94zM206 592l-117 160h107l89 -90h3l88 90h108l-117 -160h-161z" />
    <glyph glyph-name="amacron" unicode="&#x101;" horiz-adv-x="566" 
d="M39 130c0 117 111 178 310 192v47c0 40 -23 64 -74 64s-105 -21 -171 -53l-52 108c72 36 156 61 229 61c154 0 214 -75 214 -185v-224c0 -29 17 -42 44 -42v-101c-101 0 -143 15 -173 66c-45 -48 -95 -75 -167 -75c-94 0 -160 57 -160 142zM185 147c0 -32 25 -54 62 -54
c45 0 79 19 102 45v103c-83 -5 -164 -26 -164 -94zM122 627v90h328v-90h-328z" />
    <glyph glyph-name="abreve" unicode="&#x103;" horiz-adv-x="566" 
d="M39 130c0 117 111 178 310 192v47c0 40 -23 64 -74 64s-105 -21 -171 -53l-52 108c72 36 156 61 229 61c154 0 214 -75 214 -185v-224c0 -29 17 -42 44 -42v-101c-101 0 -143 15 -173 66c-45 -48 -95 -75 -167 -75c-94 0 -160 57 -160 142zM185 147c0 -32 25 -54 62 -54
c45 0 79 19 102 45v103c-83 -5 -164 -26 -164 -94zM287 582c-104 0 -165 66 -175 170h92c7 -50 37 -79 83 -79c45 0 75 29 82 79h90c-7 -105 -73 -170 -172 -170z" />
    <glyph glyph-name="ainvertedbreve" unicode="&#x203;" horiz-adv-x="566" 
d="M39 130c0 117 111 178 310 192v47c0 40 -23 64 -74 64s-105 -21 -171 -53l-52 108c72 36 156 61 229 61c154 0 214 -75 214 -185v-224c0 -29 17 -42 44 -42v-101c-101 0 -143 15 -173 66c-45 -48 -95 -75 -167 -75c-94 0 -160 57 -160 142zM185 147c0 -32 25 -54 62 -54
c45 0 79 19 102 45v103c-83 -5 -164 -26 -164 -94zM285 761c102 0 165 -66 174 -169h-92c-7 49 -36 78 -82 78c-45 0 -76 -29 -83 -78h-90c7 104 72 169 173 169z" />
    <glyph glyph-name="adoublegrave" unicode="&#x201;" horiz-adv-x="566" 
d="M39 130c0 117 111 178 310 192v47c0 40 -23 64 -74 64s-105 -21 -171 -53l-52 108c72 36 156 61 229 61c154 0 214 -75 214 -185v-224c0 -29 17 -42 44 -42v-101c-101 0 -143 15 -173 66c-45 -48 -95 -75 -167 -75c-94 0 -160 57 -160 142zM185 147c0 -32 25 -54 62 -54
c45 0 79 19 102 45v103c-83 -5 -164 -26 -164 -94zM131 778l119 -186h-90l-128 124zM326 778l118 -186h-90l-127 124z" />
    <glyph glyph-name="adotabove" unicode="&#x227;" horiz-adv-x="566" 
d="M39 130c0 117 111 178 310 192v47c0 40 -23 64 -74 64s-105 -21 -171 -53l-52 108c72 36 156 61 229 61c154 0 214 -75 214 -185v-224c0 -29 17 -42 44 -42v-101c-101 0 -143 15 -173 66c-45 -48 -95 -75 -167 -75c-94 0 -160 57 -160 142zM185 147c0 -32 25 -54 62 -54
c45 0 79 19 102 45v103c-83 -5 -164 -26 -164 -94zM225 615v114h115v-114h-115z" />
    <glyph glyph-name="aringacute" unicode="&#x1fb;" horiz-adv-x="566" 
d="M39 130c0 117 111 178 310 192v47c0 40 -23 64 -74 64s-105 -21 -171 -53l-52 108c72 36 156 61 229 61c154 0 214 -75 214 -185v-224c0 -29 17 -42 44 -42v-101c-101 0 -143 15 -173 66c-45 -48 -95 -75 -167 -75c-94 0 -160 57 -160 142zM185 147c0 -32 25 -54 62 -54
c45 0 79 19 102 45v103c-83 -5 -164 -26 -164 -94zM215 845l128 186l98 -65l-134 -121h-92zM286 586c-66 0 -120 48 -120 114c0 67 54 116 120 116s120 -49 120 -116c0 -66 -54 -114 -120 -114zM286 638c34 0 62 28 62 62c0 36 -28 63 -62 63c-35 0 -62 -27 -62 -63
c0 -34 27 -62 62 -62z" />
    <glyph glyph-name="adieresismacron" unicode="&#x1df;" horiz-adv-x="566" 
d="M39 130c0 117 111 178 310 192v47c0 40 -23 64 -74 64s-105 -21 -171 -53l-52 108c72 36 156 61 229 61c154 0 214 -75 214 -185v-224c0 -29 17 -42 44 -42v-101c-101 0 -143 15 -173 66c-45 -48 -95 -75 -167 -75c-94 0 -160 57 -160 142zM185 147c0 -32 25 -54 62 -54
c45 0 79 19 102 45v103c-83 -5 -164 -26 -164 -94zM343 615v114h115v-114h-115zM114 615v114h117v-114h-117zM122 798v90h328v-90h-328z" />
    <glyph glyph-name="aogonek" unicode="&#x105;" horiz-adv-x="566" 
d="M553 -99v-96c-23 -8 -50 -12 -78 -12c-73 0 -119 40 -119 101c0 47 29 89 77 116c-31 9 -51 25 -67 53c-45 -48 -95 -75 -167 -75c-94 0 -160 57 -160 142c0 119 111 178 310 192v47c0 40 -23 64 -74 64s-105 -21 -171 -53l-52 108c72 36 156 61 229 61
c154 0 214 -75 214 -185v-224c0 -29 17 -42 44 -42v-98c-56 -18 -82 -39 -82 -72c0 -22 18 -35 43 -35c19 0 36 4 50 11zM185 147c0 -32 25 -54 62 -54c45 0 79 19 102 45v103c-83 -5 -164 -26 -164 -94z" />
    <glyph glyph-name="ae" unicode="&#xe6;" horiz-adv-x="894" 
d="M407 82c-45 -53 -117 -95 -203 -95c-100 0 -164 57 -165 142c-1 118 112 177 311 190v51c0 39 -23 63 -72 63s-105 -20 -174 -53l-52 108c76 36 156 62 228 62c89 0 139 -29 165 -73c42 45 101 73 175 73c152 0 237 -101 237 -245c0 -21 -4 -49 -7 -65h-352
c6 -88 49 -136 132 -136c53 0 102 18 147 46l62 -93c-68 -50 -141 -70 -217 -70c-91 0 -167 33 -215 95zM500 324h217c0 68 -26 120 -96 120c-60 0 -107 -41 -121 -120zM186 147c0 -32 26 -55 62 -55c50 0 89 24 117 66c-8 25 -13 52 -15 82c-82 -4 -164 -24 -164 -93z" />
    <glyph glyph-name="aeacute" unicode="&#x1fd;" horiz-adv-x="894" 
d="M407 82c-45 -53 -117 -95 -203 -95c-100 0 -164 57 -165 142c-1 118 112 177 311 190v51c0 39 -23 63 -72 63s-105 -20 -174 -53l-52 108c76 36 156 62 228 62c89 0 139 -29 165 -73c42 45 101 73 175 73c152 0 237 -101 237 -245c0 -21 -4 -49 -7 -65h-352
c6 -88 49 -136 132 -136c53 0 102 18 147 46l62 -93c-68 -50 -141 -70 -217 -70c-91 0 -167 33 -215 95zM500 324h217c0 68 -26 120 -96 120c-60 0 -107 -41 -121 -120zM186 147c0 -32 26 -55 62 -55c50 0 89 24 117 66c-8 25 -13 52 -15 82c-82 -4 -164 -24 -164 -93z
M380 592l128 186l98 -65l-134 -121h-92z" />
    <glyph glyph-name="aemacron" unicode="&#x1e3;" horiz-adv-x="894" 
d="M407 82c-45 -53 -117 -95 -203 -95c-100 0 -164 57 -165 142c-1 118 112 177 311 190v51c0 39 -23 63 -72 63s-105 -20 -174 -53l-52 108c76 36 156 62 228 62c89 0 139 -29 165 -73c42 45 101 73 175 73c152 0 237 -101 237 -245c0 -21 -4 -49 -7 -65h-352
c6 -88 49 -136 132 -136c53 0 102 18 147 46l62 -93c-68 -50 -141 -70 -217 -70c-91 0 -167 33 -215 95zM282 627v90h328v-90h-328zM500 324h217c0 68 -26 120 -96 120c-60 0 -107 -41 -121 -120zM186 147c0 -32 26 -55 62 -55c50 0 89 24 117 66c-8 25 -13 52 -15 82
c-82 -4 -164 -24 -164 -93z" />
    <glyph glyph-name="cacute" unicode="&#x107;" horiz-adv-x="527" 
d="M219 592l128 186l98 -65l-134 -121h-92zM36 272c0 172 116 277 273 277c65 0 131 -20 190 -66l-74 -95c-31 24 -67 42 -112 42c-71 0 -129 -56 -129 -158c0 -107 57 -166 129 -166c48 0 80 17 113 44l80 -85c-59 -52 -121 -77 -197 -77c-156 0 -273 105 -273 284z" />
    <glyph glyph-name="ccircumflex" unicode="&#x109;" horiz-adv-x="527" 
d="M93 592l117 160h161l117 -160h-108l-88 90h-3l-89 -90h-107zM36 272c0 172 116 277 273 277c65 0 131 -20 190 -66l-74 -95c-31 24 -67 42 -112 42c-71 0 -129 -56 -129 -158c0 -107 57 -166 129 -166c48 0 80 17 113 44l80 -85c-59 -52 -121 -77 -197 -77
c-156 0 -273 105 -273 284z" />
    <glyph glyph-name="ccaron" unicode="&#x10d;" horiz-adv-x="527" 
d="M210 592l-117 160h107l89 -90h3l88 90h108l-117 -160h-161zM36 272c0 172 116 277 273 277c65 0 131 -20 190 -66l-74 -95c-31 24 -67 42 -112 42c-71 0 -129 -56 -129 -158c0 -107 57 -166 129 -166c48 0 80 17 113 44l80 -85c-59 -52 -121 -77 -197 -77
c-156 0 -273 105 -273 284z" />
    <glyph glyph-name="cdotaccent" unicode="&#x10b;" horiz-adv-x="527" 
d="M36 272c0 172 116 277 273 277c65 0 131 -20 190 -66l-74 -95c-31 24 -67 42 -112 42c-71 0 -129 -56 -129 -158c0 -107 57 -166 129 -166c48 0 80 17 113 44l80 -85c-59 -52 -121 -77 -197 -77c-156 0 -273 105 -273 284zM232 615v114h115v-114h-115z" />
    <glyph glyph-name="ccedilla" unicode="&#xe7;" horiz-adv-x="527" 
d="M119 -172c54 42 106 102 122 167c-121 26 -205 125 -205 277c0 172 116 277 273 277c65 0 131 -20 190 -66l-74 -95c-31 24 -67 42 -112 42c-71 0 -129 -56 -129 -158c0 -107 57 -166 129 -166c48 0 80 17 113 44l80 -85c-55 -48 -111 -73 -179 -76
c-10 -85 -49 -157 -108 -211z" />
    <glyph glyph-name="dcaron" unicode="&#x10f;" horiz-adv-x="608" 
d="M608 666v72c20 5 42 8 61 8c67 0 98 -34 98 -77c1 -33 -19 -72 -46 -99h-98c26 31 37 50 37 72c0 17 -12 27 -30 27c-8 0 -14 -2 -22 -3zM243 -12c-121 0 -206 98 -206 287c0 181 84 274 209 274c59 0 114 -28 154 -72v278h147v-755h-130l-9 63c-42 -44 -94 -75 -165 -75
zM289 100c44 0 78 16 111 53v228c-32 36 -68 56 -111 56c-71 0 -105 -57 -105 -163c0 -105 34 -174 105 -174z" />
    <glyph glyph-name="dcedilla" unicode="&#x1e11;" horiz-adv-x="608" 
d="M238 -41h93c-15 -73 -51 -134 -102 -181l-100 50c43 35 86 79 109 131zM243 -12c-121 0 -206 98 -206 287c0 181 84 274 209 274c59 0 114 -28 154 -72v278h147v-755h-130l-9 63c-42 -44 -94 -75 -165 -75zM289 100c44 0 78 16 111 53v228c-32 36 -68 56 -111 56
c-71 0 -105 -57 -105 -163c0 -105 34 -174 105 -174z" />
    <glyph glyph-name="ddotbelow" unicode="&#x1e0d;" horiz-adv-x="608" 
d="M232 -188v114h115v-114h-115zM243 -12c-121 0 -206 98 -206 287c0 181 84 274 209 274c59 0 114 -28 154 -72v278h147v-755h-130l-9 63c-42 -44 -94 -75 -165 -75zM289 100c44 0 78 16 111 53v228c-32 36 -68 56 -111 56c-71 0 -105 -57 -105 -163
c0 -105 34 -174 105 -174z" />
    <glyph glyph-name="dcroat" unicode="&#x111;" horiz-adv-x="608" 
d="M243 -12c-121 0 -206 98 -206 287c0 181 84 274 209 274c59 0 114 -28 154 -72v126h-128v83h128v69h147v-69h75v-85h-75v-601h-130l-9 63c-42 -44 -94 -75 -165 -75zM289 100c44 0 78 16 111 53v228c-32 36 -68 56 -111 56c-71 0 -105 -57 -105 -163
c0 -105 34 -174 105 -174z" />
    <glyph glyph-name="eacute" unicode="&#xe9;" horiz-adv-x="584" 
d="M37 272c0 172 120 278 269 278c154 0 239 -101 239 -245c0 -21 -2 -49 -5 -65h-354c8 -91 51 -136 132 -136c54 0 104 18 149 46l61 -93c-66 -46 -141 -70 -221 -70c-158 0 -270 105 -270 285zM310 444c-60 0 -107 -42 -121 -120h217c0 68 -26 120 -96 120zM233 592
l128 186l98 -65l-134 -121h-92z" />
    <glyph glyph-name="egrave" unicode="&#xe8;" horiz-adv-x="584" 
d="M37 272c0 172 120 278 269 278c154 0 239 -101 239 -245c0 -21 -2 -49 -5 -65h-354c8 -91 51 -136 132 -136c54 0 104 18 149 46l61 -93c-66 -46 -141 -70 -221 -70c-158 0 -270 105 -270 285zM310 444c-60 0 -107 -42 -121 -120h217c0 68 -26 120 -96 120zM283 592
l-134 121l99 65l127 -186h-92z" />
    <glyph glyph-name="ecircumflex" unicode="&#xea;" horiz-adv-x="584" 
d="M37 272c0 172 120 278 269 278c154 0 239 -101 239 -245c0 -21 -2 -49 -5 -65h-354c8 -91 51 -136 132 -136c54 0 104 18 149 46l61 -93c-66 -46 -141 -70 -221 -70c-158 0 -270 105 -270 285zM110 592l117 160h161l117 -160h-108l-88 90h-3l-89 -90h-107zM310 444
c-60 0 -107 -42 -121 -120h217c0 68 -26 120 -96 120z" />
    <glyph glyph-name="edieresis" unicode="&#xeb;" horiz-adv-x="584" 
d="M37 272c0 172 120 278 269 278c154 0 239 -101 239 -245c0 -21 -2 -49 -5 -65h-354c8 -91 51 -136 132 -136c54 0 104 18 149 46l61 -93c-66 -46 -141 -70 -221 -70c-158 0 -270 105 -270 285zM310 444c-60 0 -107 -42 -121 -120h217c0 68 -26 120 -96 120zM135 615v114
h117v-114h-117zM364 615v114h115v-114h-115z" />
    <glyph glyph-name="ecaron" unicode="&#x11b;" horiz-adv-x="584" 
d="M37 272c0 172 120 278 269 278c154 0 239 -101 239 -245c0 -21 -2 -49 -5 -65h-354c8 -91 51 -136 132 -136c54 0 104 18 149 46l61 -93c-66 -46 -141 -70 -221 -70c-158 0 -270 105 -270 285zM227 592l-117 160h107l89 -90h3l88 90h108l-117 -160h-161zM310 444
c-60 0 -107 -42 -121 -120h217c0 68 -26 120 -96 120z" />
    <glyph glyph-name="emacron" unicode="&#x113;" horiz-adv-x="584" 
d="M37 272c0 172 120 278 269 278c154 0 239 -101 239 -245c0 -21 -2 -49 -5 -65h-354c8 -91 51 -136 132 -136c54 0 104 18 149 46l61 -93c-66 -46 -141 -70 -221 -70c-158 0 -270 105 -270 285zM143 627v90h328v-90h-328zM310 444c-60 0 -107 -42 -121 -120h217
c0 68 -26 120 -96 120z" />
    <glyph glyph-name="ebreve" unicode="&#x115;" horiz-adv-x="584" 
d="M37 272c0 172 120 278 269 278c154 0 239 -101 239 -245c0 -21 -2 -49 -5 -65h-354c8 -91 51 -136 132 -136c54 0 104 18 149 46l61 -93c-66 -46 -141 -70 -221 -70c-158 0 -270 105 -270 285zM308 582c-104 0 -165 66 -175 170h92c7 -50 37 -79 83 -79c45 0 75 29 82 79
h90c-7 -105 -73 -170 -172 -170zM310 444c-60 0 -107 -42 -121 -120h217c0 68 -26 120 -96 120z" />
    <glyph glyph-name="einvertedbreve" unicode="&#x207;" horiz-adv-x="584" 
d="M37 272c0 172 120 278 269 278c154 0 239 -101 239 -245c0 -21 -2 -49 -5 -65h-354c8 -91 51 -136 132 -136c54 0 104 18 149 46l61 -93c-66 -46 -141 -70 -221 -70c-158 0 -270 105 -270 285zM305 761c102 0 165 -66 174 -169h-92c-7 49 -36 78 -82 78
c-45 0 -76 -29 -83 -78h-90c7 104 72 169 173 169zM310 444c-60 0 -107 -42 -121 -120h217c0 68 -26 120 -96 120z" />
    <glyph glyph-name="edoublegrave" unicode="&#x205;" horiz-adv-x="584" 
d="M37 272c0 172 120 278 269 278c154 0 239 -101 239 -245c0 -21 -2 -49 -5 -65h-354c8 -91 51 -136 132 -136c54 0 104 18 149 46l61 -93c-66 -46 -141 -70 -221 -70c-158 0 -270 105 -270 285zM310 444c-60 0 -107 -42 -121 -120h217c0 68 -26 120 -96 120zM149 778
l119 -186h-90l-128 124zM344 778l118 -186h-90l-127 124z" />
    <glyph glyph-name="edotaccent" unicode="&#x117;" horiz-adv-x="584" 
d="M37 272c0 172 120 278 269 278c154 0 239 -101 239 -245c0 -21 -2 -49 -5 -65h-354c8 -91 51 -136 132 -136c54 0 104 18 149 46l61 -93c-66 -46 -141 -70 -221 -70c-158 0 -270 105 -270 285zM310 444c-60 0 -107 -42 -121 -120h217c0 68 -26 120 -96 120zM249 615v114
h115v-114h-115z" />
    <glyph glyph-name="eacutedotbelow" unicode="&#xe028;" horiz-adv-x="584" 
d="M37 272c0 172 120 278 269 278c154 0 239 -101 239 -245c0 -21 -2 -49 -5 -65h-354c8 -91 51 -136 132 -136c54 0 104 18 149 46l61 -93c-66 -46 -141 -70 -221 -70c-158 0 -270 105 -270 285zM310 444c-60 0 -107 -42 -121 -120h217c0 68 -26 120 -96 120zM233 592
l128 186l98 -65l-134 -121h-92zM247 -188v114h115v-114h-115z" />
    <glyph glyph-name="egravedotbelow" unicode="&#xe029;" horiz-adv-x="584" 
d="M37 272c0 172 120 278 269 278c154 0 239 -101 239 -245c0 -21 -2 -49 -5 -65h-354c8 -91 51 -136 132 -136c54 0 104 18 149 46l61 -93c-66 -46 -141 -70 -221 -70c-158 0 -270 105 -270 285zM310 444c-60 0 -107 -42 -121 -120h217c0 68 -26 120 -96 120zM282 592
l-134 121l99 65l127 -186h-92zM246 -188v114h115v-114h-115z" />
    <glyph glyph-name="eogonek" unicode="&#x119;" horiz-adv-x="584" 
d="M37 272c0 172 120 278 269 278c154 0 239 -101 239 -245c0 -21 -2 -49 -5 -65h-353c6 -89 51 -136 131 -136c54 0 104 18 149 46l61 -93c-19 -12 -37 -23 -56 -33c-61 -32 -93 -60 -93 -95c0 -23 16 -36 45 -36c19 0 36 4 49 11l4 -3v-96c-24 -8 -50 -12 -78 -12
c-76 0 -122 40 -122 102c0 34 15 65 40 92h-10c-158 0 -270 105 -270 285zM310 444c-60 0 -106 -42 -121 -120h217c0 68 -26 120 -96 120z" />
    <glyph glyph-name="gacute" unicode="&#x1f5;" horiz-adv-x="595" 
d="M219 592l128 186l98 -65l-134 -121h-92zM16 -69c0 50 29 85 78 111c-23 21 -33 46 -33 72c0 39 23 69 57 89c-47 33 -78 84 -78 150c0 118 100 196 232 196c60 0 113 -17 153 -46c36 28 81 46 151 46v-97c-37 0 -68 -2 -96 -10c14 -26 22 -56 22 -89
c0 -126 -113 -196 -230 -196c-28 0 -56 4 -82 11c-14 -6 -21 -17 -21 -30c0 -26 33 -36 146 -40c158 -6 246 -49 246 -151c0 -98 -87 -157 -274 -157c-170 0 -271 47 -271 141zM272 254c55 0 92 39 92 99s-37 100 -92 100c-54 0 -92 -40 -92 -100s38 -99 92 -99zM297 -18
c-42 1 -77 6 -107 14c-24 -14 -37 -34 -37 -59c0 -38 37 -56 130 -56c98 0 143 16 143 50c0 36 -29 47 -129 51z" />
    <glyph glyph-name="gcircumflex" unicode="&#x11d;" horiz-adv-x="595" 
d="M16 -69c0 50 29 85 78 111c-23 21 -33 46 -33 72c0 39 23 69 57 89c-47 33 -78 84 -78 150c0 118 100 196 232 196c60 0 113 -17 153 -46c36 28 81 46 151 46v-97c-37 0 -68 -2 -96 -10c14 -26 22 -56 22 -89c0 -126 -113 -196 -230 -196c-28 0 -56 4 -82 11
c-14 -6 -21 -17 -21 -30c0 -26 33 -36 146 -40c158 -6 246 -49 246 -151c0 -98 -87 -157 -274 -157c-170 0 -271 47 -271 141zM103 592l117 160h161l117 -160h-108l-88 90h-3l-89 -90h-107zM272 254c55 0 92 39 92 99s-37 100 -92 100c-54 0 -92 -40 -92 -100s38 -99 92 -99
zM297 -18c-42 1 -77 6 -107 14c-24 -14 -37 -34 -37 -59c0 -38 37 -56 130 -56c98 0 143 16 143 50c0 36 -29 47 -129 51z" />
    <glyph glyph-name="gcaron" unicode="&#x1e7;" horiz-adv-x="595" 
d="M220 592l-117 160h107l89 -90h3l88 90h108l-117 -160h-161zM16 -69c0 50 29 85 78 111c-23 21 -33 46 -33 72c0 39 23 69 57 89c-47 33 -78 84 -78 150c0 118 100 196 232 196c60 0 113 -17 153 -46c36 28 81 46 151 46v-97c-37 0 -68 -2 -96 -10c14 -26 22 -56 22 -89
c0 -126 -113 -196 -230 -196c-28 0 -56 4 -82 11c-14 -6 -21 -17 -21 -30c0 -26 33 -36 146 -40c158 -6 246 -49 246 -151c0 -98 -87 -157 -274 -157c-170 0 -271 47 -271 141zM272 254c55 0 92 39 92 99s-37 100 -92 100c-54 0 -92 -40 -92 -100s38 -99 92 -99zM297 -18
c-42 1 -77 6 -107 14c-24 -14 -37 -34 -37 -59c0 -38 37 -56 130 -56c98 0 143 16 143 50c0 36 -29 47 -129 51z" />
    <glyph glyph-name="gbreve" unicode="&#x11f;" horiz-adv-x="595" 
d="M16 -69c0 50 29 85 78 111c-23 21 -33 46 -33 72c0 39 23 69 57 89c-47 33 -78 84 -78 150c0 118 100 196 232 196c60 0 113 -17 153 -46c36 28 81 46 151 46v-97c-37 0 -68 -2 -96 -10c14 -26 22 -56 22 -89c0 -126 -113 -196 -230 -196c-28 0 -56 4 -82 11
c-14 -6 -21 -17 -21 -30c0 -26 33 -36 146 -40c158 -6 246 -49 246 -151c0 -98 -87 -157 -274 -157c-170 0 -271 47 -271 141zM272 254c55 0 92 39 92 99s-37 100 -92 100c-54 0 -92 -40 -92 -100s38 -99 92 -99zM297 -18c-42 1 -77 6 -107 14c-24 -14 -37 -34 -37 -59
c0 -38 37 -56 130 -56c98 0 143 16 143 50c0 36 -29 47 -129 51zM301 582c-104 0 -165 66 -175 170h92c7 -50 37 -79 83 -79c45 0 75 29 82 79h90c-7 -105 -73 -170 -172 -170z" />
    <glyph glyph-name="gdotaccent" unicode="&#x121;" horiz-adv-x="595" 
d="M16 -69c0 50 29 85 78 111c-23 21 -33 46 -33 72c0 39 23 69 57 89c-47 33 -78 84 -78 150c0 118 100 196 232 196c60 0 113 -17 153 -46c36 28 81 46 151 46v-97c-37 0 -68 -2 -96 -10c14 -26 22 -56 22 -89c0 -126 -113 -196 -230 -196c-28 0 -56 4 -82 11
c-14 -6 -21 -17 -21 -30c0 -26 33 -36 146 -40c158 -6 246 -49 246 -151c0 -98 -87 -157 -274 -157c-170 0 -271 47 -271 141zM272 254c55 0 92 39 92 99s-37 100 -92 100c-54 0 -92 -40 -92 -100s38 -99 92 -99zM297 -18c-42 1 -77 6 -107 14c-24 -14 -37 -34 -37 -59
c0 -38 37 -56 130 -56c98 0 143 16 143 50c0 36 -29 47 -129 51zM231 615v114h115v-114h-115z" />
    <glyph glyph-name="gcommaaccent" unicode="&#x123;" horiz-adv-x="595" 
d="M375 668v-72c-20 -5 -42 -8 -61 -8c-67 0 -98 34 -98 77c-1 33 19 72 46 99h98c-26 -31 -37 -50 -37 -72c0 -17 12 -27 30 -27c8 0 14 2 22 3zM16 -69c0 50 29 85 78 111c-23 21 -33 46 -33 72c0 39 23 69 57 89c-47 33 -78 84 -78 150c0 118 100 196 232 196
c60 0 113 -17 153 -46c36 28 81 46 151 46v-97c-37 0 -68 -2 -96 -10c14 -26 22 -56 22 -89c0 -126 -113 -196 -230 -196c-28 0 -56 4 -82 11c-14 -6 -21 -17 -21 -30c0 -26 33 -36 146 -40c158 -6 246 -49 246 -151c0 -98 -87 -157 -274 -157c-170 0 -271 47 -271 141z
M272 254c55 0 92 39 92 99s-37 100 -92 100c-54 0 -92 -40 -92 -100s38 -99 92 -99zM297 -18c-42 1 -77 6 -107 14c-24 -14 -37 -34 -37 -59c0 -38 37 -56 130 -56c98 0 143 16 143 50c0 36 -29 47 -129 51z" />
    <glyph glyph-name="gstroke" unicode="&#x1e5;" horiz-adv-x="595" 
d="M-28 -64v87h92c9 7 19 13 30 19c-23 21 -33 46 -33 72c0 39 23 69 57 89c-47 33 -78 84 -78 150c0 118 100 196 232 196c60 0 113 -17 153 -46c36 28 81 46 151 46v-97c-37 0 -68 -2 -96 -10c14 -26 22 -56 22 -89c0 -126 -113 -196 -230 -196c-28 0 -56 4 -82 11
c-14 -6 -21 -17 -21 -30c0 -26 33 -36 146 -40c111 -4 187 -27 223 -75h68v-87h-46c-6 -91 -93 -146 -273 -146c-170 0 -271 47 -271 141v5h-44zM272 254c55 0 92 39 92 99s-37 100 -92 100c-54 0 -92 -40 -92 -100s38 -99 92 -99zM297 -18c-42 1 -77 6 -107 14
c-24 -14 -37 -34 -37 -59c0 -38 37 -56 130 -56c98 0 143 16 143 50c0 36 -29 47 -129 51z" />
    <glyph glyph-name="hcircumflex" unicode="&#x125;" horiz-adv-x="599" 
d="M63 0v755h147v-280c40 41 94 74 161 74c121 0 171 -73 171 -194v-355h-147v359c0 48 -19 81 -70 81c-44 0 -83 -23 -115 -63v-377h-147zM-51 797l117 133h142l117 -133h-99l-88 65h-1l-89 -65h-99z" />
    <glyph glyph-name="hcaron" unicode="&#x21f;" horiz-adv-x="599" 
d="M63 0v755h147v-280c40 41 94 74 161 74c121 0 171 -73 171 -194v-355h-147v359c0 48 -19 81 -70 81c-44 0 -83 -23 -115 -63v-377h-147zM65 797l-116 133h99l87 -64h2l88 64h100l-117 -133h-143z" />
    <glyph glyph-name="hdotbelow" unicode="&#x1e25;" horiz-adv-x="599" 
d="M63 0v755h147v-280c40 41 94 74 161 74c121 0 171 -73 171 -194v-355h-147v359c0 48 -19 81 -70 81c-44 0 -83 -23 -115 -63v-377h-147zM244 -188v114h115v-114h-115z" />
    <glyph glyph-name="hmacronbelow" unicode="&#x1e96;" horiz-adv-x="599" 
d="M63 0v755h147v-280c40 41 94 74 161 74c121 0 171 -73 171 -194v-355h-147v359c0 48 -19 81 -70 81c-44 0 -83 -23 -115 -63v-377h-147zM137 -190v90h328v-90h-328z" />
    <glyph glyph-name="hbar" unicode="&#x127;" horiz-adv-x="604" 
d="M-9 601v85h76v69h147v-69h132v-83h-132v-128c40 41 94 74 161 74c121 0 171 -73 171 -194v-355h-147v359c0 48 -19 81 -70 81c-44 0 -83 -23 -115 -63v-377h-147v601h-76z" />
    <glyph glyph-name="dotlessi" unicode="&#x131;" horiz-adv-x="272" 
d="M63 0v529h147v-529h-147z" />
    <glyph glyph-name="iacute" unicode="&#xed;" horiz-adv-x="272" 
d="M64 592l128 186l98 -65l-134 -121h-92zM63 0v529h147v-529h-147z" />
    <glyph glyph-name="igrave" unicode="&#xec;" horiz-adv-x="272" 
d="M63 0v529h147v-529h-147zM114 592l-134 121l99 65l127 -186h-92z" />
    <glyph glyph-name="icircumflex" unicode="&#xee;" horiz-adv-x="272" 
d="M-62 592l117 160h161l117 -160h-108l-88 90h-3l-89 -90h-107zM63 0v529h147v-529h-147z" />
    <glyph glyph-name="idieresis" unicode="&#xef;" horiz-adv-x="272" 
d="M193 615v114h115v-114h-115zM-36 615v114h117v-114h-117zM63 0v529h147v-529h-147z" />
    <glyph glyph-name="itilde" unicode="&#x129;" horiz-adv-x="272" 
d="M63 0v529h147v-529h-147zM-40 604c-9 91 36 143 108 143c64 0 89 -53 128 -53c24 0 35 15 31 46h82c10 -91 -35 -143 -107 -143c-63 0 -89 52 -128 52c-24 0 -35 -14 -32 -45h-82z" />
    <glyph glyph-name="icaron" unicode="&#x1d0;" horiz-adv-x="272" 
d="M55 592l-117 160h107l89 -90h3l88 90h108l-117 -160h-161zM63 0v529h147v-529h-147z" />
    <glyph glyph-name="imacron" unicode="&#x12b;" horiz-adv-x="272" 
d="M63 0v529h147v-529h-147zM-28 627v90h328v-90h-328z" />
    <glyph glyph-name="ibreve" unicode="&#x12d;" horiz-adv-x="272" 
d="M63 0v529h147v-529h-147zM137 582c-104 0 -165 66 -175 170h92c7 -50 37 -79 83 -79c45 0 75 29 82 79h90c-7 -105 -73 -170 -172 -170z" />
    <glyph glyph-name="iinvertedbreve" unicode="&#x20b;" horiz-adv-x="272" 
d="M135 761c102 0 165 -66 174 -169h-92c-7 49 -36 78 -82 78c-45 0 -76 -29 -83 -78h-90c7 104 72 169 173 169zM63 0v529h147v-529h-147z" />
    <glyph glyph-name="idoublegrave" unicode="&#x209;" horiz-adv-x="272" 
d="M63 0v529h147v-529h-147zM-26 778l119 -186h-90l-128 124zM169 778l118 -186h-90l-127 124z" />
    <glyph glyph-name="idotaccent" unicode="&#xe030;" horiz-adv-x="272" 
d="M63 0v529h147v-529h-147zM63 624v126h147v-126h-147z" />
    <glyph glyph-name="idotbelow" unicode="&#x1ecb;" horiz-adv-x="272" 
d="M63 0v529h147v-529h-147zM63 624v126h147v-126h-147zM78 -188v114h115v-114h-115z" />
    <glyph glyph-name="iogonek" unicode="&#x12f;" horiz-adv-x="272" 
d="M63 0v529h147v-529c-57 -17 -82 -38 -82 -70c0 -23 17 -36 43 -36c19 0 36 5 49 11l3 -2v-98c-23 -8 -49 -12 -78 -12c-73 0 -120 40 -120 101c0 42 22 79 61 106h-23zM63 624v126h147v-126h-147z" />
    <glyph glyph-name="dotlessj" unicode="&#x237;" horiz-adv-x="284" 
d="M74 -13v542h147v-534c0 -141 -67 -205 -187 -205c-45 0 -83 11 -108 20l31 108c18 -6 37 -10 56 -10c40 0 61 20 61 79z" />
    <glyph glyph-name="jcircumflex" unicode="&#x135;" horiz-adv-x="284" 
d="M74 -13v542h147v-534c0 -141 -67 -205 -187 -205c-45 0 -83 11 -108 20l31 108c18 -6 37 -10 56 -10c40 0 61 20 61 79zM-51 592l117 160h161l117 -160h-108l-88 90h-3l-89 -90h-107z" />
    <glyph glyph-name="jcaron" unicode="&#x1f0;" horiz-adv-x="284" 
d="M74 -13v542h147v-534c0 -141 -67 -205 -187 -205c-45 0 -83 11 -108 20l31 108c18 -6 37 -10 56 -10c40 0 61 20 61 79zM66 592l-117 160h107l89 -90h3l88 90h108l-117 -160h-161z" />
    <glyph glyph-name="kcaron" unicode="&#x1e9;" horiz-adv-x="585" 
d="M63 0v755h147v-453l196 235h154l-166 -190l179 -347h-166l-110 236l-87 -99v-137h-147zM67 797l-116 133h99l87 -64h2l88 64h100l-117 -133h-143z" />
    <glyph glyph-name="kcommaaccent" unicode="&#x137;" horiz-adv-x="585" 
d="M63 0v755h147v-453l196 235h154l-166 -190l179 -347h-166l-110 236l-87 -99v-137h-147zM233 -54c20 5 42 8 60 8c68 0 99 -35 99 -77c2 -33 -20 -72 -47 -99h-96c25 31 35 50 35 72c0 17 -12 28 -29 26c-8 0 -16 -1 -22 -2v72z" />
    <glyph glyph-name="kcedilla" unicode="&#xe031;" horiz-adv-x="585" 
d="M63 0v755h147v-453l196 235h154l-166 -190l179 -347h-166l-110 236l-87 -99v-137h-147zM257 -41h93c-15 -73 -51 -134 -102 -181l-100 50c43 35 86 79 109 131z" />
    <glyph glyph-name="khook" unicode="&#x199;" horiz-adv-x="585" 
d="M63 0v568c0 136 77 194 208 194v-118c-39 0 -61 -18 -61 -76v-266l195 235h155l-166 -190l179 -347h-166l-111 236l-86 -99v-137h-147z" />
    <glyph glyph-name="kgreenlandic" unicode="&#x138;" horiz-adv-x="585" 
d="M63 0v537h147v-235l196 235h154l-166 -190l179 -347h-166l-110 236l-87 -99v-137h-147z" />
    <glyph glyph-name="lacute" unicode="&#x13a;" horiz-adv-x="274" 
d="M69 797l111 150l115 -67l-120 -83h-106zM64 0v755h147v-755h-147z" />
    <glyph glyph-name="lcaron" unicode="&#x13e;" horiz-adv-x="274" 
d="M274 666v72c20 5 42 8 61 8c67 0 98 -34 98 -77c1 -33 -19 -72 -46 -99h-98c26 31 37 50 37 72c0 17 -12 27 -30 27c-8 0 -14 -2 -22 -3zM64 0v755h147v-755h-147z" />
    <glyph glyph-name="lcommaaccent" unicode="&#x13c;" horiz-adv-x="274" 
d="M61 -54c20 5 42 8 60 8c68 0 99 -35 99 -77c2 -33 -20 -72 -47 -99h-96c25 31 35 50 35 72c0 17 -12 28 -29 26c-8 0 -16 -1 -22 -2v72zM64 0v755h147v-755h-147z" />
    <glyph glyph-name="lcedilla" unicode="&#xe032;" horiz-adv-x="286" 
d="M98 -41h93c-15 -73 -51 -134 -102 -181l-100 50c43 35 86 79 109 131zM82 0v755h147v-755h-147z" />
    <glyph glyph-name="ldotbelow" unicode="&#x1e37;" horiz-adv-x="274" 
d="M78 -188v114h115v-114h-115zM64 0v755h147v-755h-147z" />
    <glyph glyph-name="ldotbelowmacron" unicode="&#x1e39;" horiz-adv-x="274" 
d="M-30 818v90h332v-90h-332zM78 -188v114h115v-114h-115zM64 0v755h147v-755h-147z" />
    <glyph glyph-name="ldot" unicode="&#x140;" horiz-adv-x="274" 
d="M64 0v755h147v-755h-147zM253 294v114h115v-114h-115z" />
    <glyph glyph-name="lslash" unicode="&#x142;" horiz-adv-x="286" 
d="M-3 252v103l74 40v360h147v-281l71 38v-104l-71 -38v-370h-147v290z" />
    <glyph glyph-name="mmacron" unicode="&#xe033;" horiz-adv-x="906" 
d="M61 0v537h139l6 -58c42 40 101 71 158 71c73 0 118 -30 142 -79c52 50 110 79 176 79c112 0 166 -74 166 -192v-358h-146v361c0 50 -20 78 -65 78c-39 0 -77 -21 -110 -57c1 -12 2 -23 2 -35v-347h-147v361c0 50 -20 78 -65 78c-40 0 -81 -22 -110 -61v-378h-146z
M289 627v90h328v-90h-328z" />
    <glyph glyph-name="mcedilla" unicode="&#xe034;" horiz-adv-x="906" 
d="M398 -41h93c-15 -73 -51 -134 -102 -181l-100 50c43 35 86 79 109 131zM61 0v537h139l6 -58c42 40 101 71 158 71c73 0 118 -30 142 -79c52 50 110 79 176 79c112 0 166 -74 166 -192v-358h-146v361c0 50 -20 78 -65 78c-39 0 -77 -21 -110 -57c1 -12 2 -23 2 -35v-347
h-147v361c0 50 -20 78 -65 78c-40 0 -81 -22 -110 -61v-378h-146z" />
    <glyph glyph-name="mdotbelow" unicode="&#x1e43;" horiz-adv-x="906" 
d="M61 0v537h139l6 -58c42 40 101 71 158 71c73 0 118 -30 142 -79c52 50 110 79 176 79c112 0 166 -74 166 -192v-358h-146v361c0 50 -20 78 -65 78c-39 0 -77 -21 -110 -57c1 -12 2 -23 2 -35v-347h-147v361c0 50 -20 78 -65 78c-40 0 -81 -22 -110 -61v-378h-146z
M395 -188v114h115v-114h-115z" />
    <glyph glyph-name="nacute" unicode="&#x144;" horiz-adv-x="597" 
d="M228 592l128 186l98 -65l-134 -121h-92zM61 0v537h138l7 -62c39 41 96 75 163 75c120 0 171 -74 171 -195v-355h-147v359c0 48 -20 81 -70 81c-45 0 -84 -23 -116 -63v-377h-146z" />
    <glyph glyph-name="ngrave" unicode="&#xe035;" horiz-adv-x="597" 
d="M277 592l-134 121l99 65l127 -186h-92zM61 0v537h138l7 -62c39 41 96 75 163 75c120 0 171 -74 171 -195v-355h-147v359c0 48 -20 81 -70 81c-45 0 -84 -23 -116 -63v-377h-146z" />
    <glyph glyph-name="ndieresis" unicode="&#xe036;" horiz-adv-x="597" 
d="M356 615v114h115v-114h-115zM127 615v114h117v-114h-117zM61 0v537h138l7 -62c39 41 96 75 163 75c120 0 171 -74 171 -195v-355h-147v359c0 48 -20 81 -70 81c-45 0 -84 -23 -116 -63v-377h-146z" />
    <glyph glyph-name="ntilde" unicode="&#xf1;" horiz-adv-x="597" 
d="M61 0v537h138l7 -62c39 41 96 75 163 75c120 0 171 -74 171 -195v-355h-147v359c0 48 -20 81 -70 81c-45 0 -84 -23 -116 -63v-377h-146zM124 604c-9 91 36 143 108 143c64 0 89 -53 128 -53c24 0 35 15 31 46h82c10 -91 -35 -143 -107 -143c-63 0 -89 52 -128 52
c-24 0 -35 -14 -32 -45h-82z" />
    <glyph glyph-name="ncaron" unicode="&#x148;" horiz-adv-x="597" 
d="M219 592l-117 160h107l89 -90h3l88 90h108l-117 -160h-161zM61 0v537h138l7 -62c39 41 96 75 163 75c120 0 171 -74 171 -195v-355h-147v359c0 48 -20 81 -70 81c-45 0 -84 -23 -116 -63v-377h-146z" />
    <glyph glyph-name="nmacron" unicode="&#xe037;" horiz-adv-x="597" 
d="M134 627v90h328v-90h-328zM61 0v537h138l7 -62c39 41 96 75 163 75c120 0 171 -74 171 -195v-355h-147v359c0 48 -20 81 -70 81c-45 0 -84 -23 -116 -63v-377h-146z" />
    <glyph glyph-name="ndotaccent" unicode="&#x1e45;" horiz-adv-x="597" 
d="M241 615v114h115v-114h-115zM61 0v537h138l7 -62c39 41 96 75 163 75c120 0 171 -74 171 -195v-355h-147v359c0 48 -20 81 -70 81c-45 0 -84 -23 -116 -63v-377h-146z" />
    <glyph glyph-name="ncommaaccent" unicode="&#x146;" horiz-adv-x="597" 
d="M223 -54c20 5 42 8 60 8c68 0 99 -35 99 -77c2 -33 -20 -72 -47 -99h-96c25 31 35 50 35 72c0 17 -12 28 -29 26c-8 0 -16 -1 -22 -2v72zM61 0v537h138l7 -62c39 41 96 75 163 75c120 0 171 -74 171 -195v-355h-147v359c0 48 -20 81 -70 81c-45 0 -84 -23 -116 -63v-377
h-146z" />
    <glyph glyph-name="ncedilla" unicode="&#xe038;" horiz-adv-x="597" 
d="M244 -41h93c-15 -73 -51 -134 -102 -181l-100 50c43 35 86 79 109 131zM61 0v537h138l7 -62c39 41 96 75 163 75c120 0 171 -74 171 -195v-355h-147v359c0 48 -20 81 -70 81c-45 0 -84 -23 -116 -63v-377h-146z" />
    <glyph glyph-name="ndotbelow" unicode="&#x1e47;" horiz-adv-x="597" 
d="M241 -188v114h115v-114h-115zM61 0v537h138l7 -62c39 41 96 75 163 75c120 0 171 -74 171 -195v-355h-147v359c0 48 -20 81 -70 81c-45 0 -84 -23 -116 -63v-377h-146z" />
    <glyph glyph-name="ndescender" unicode="&#xe039;" horiz-adv-x="597" 
d="M61 0v537h138l7 -62c39 41 96 75 163 75c120 0 171 -74 171 -195v-555h-147v559c0 48 -20 81 -70 81c-45 0 -84 -23 -116 -63v-377h-146z" />
    <glyph glyph-name="oacute" unicode="&#xf3;" 
d="M234 592l128 186l98 -65l-134 -121h-92zM37 274c0 166 116 275 271 275c153 0 268 -109 268 -275c0 -177 -108 -286 -268 -286c-162 0 -271 109 -271 286zM185 273c0 -106 44 -175 123 -175c76 0 120 69 120 175c0 99 -48 165 -120 165c-74 0 -123 -66 -123 -165z" />
    <glyph glyph-name="ograve" unicode="&#xf2;" 
d="M284 592l-134 121l99 65l127 -186h-92zM37 274c0 166 116 275 271 275c153 0 268 -109 268 -275c0 -177 -108 -286 -268 -286c-162 0 -271 109 -271 286zM185 273c0 -106 44 -175 123 -175c76 0 120 69 120 175c0 99 -48 165 -120 165c-74 0 -123 -66 -123 -165z" />
    <glyph glyph-name="ocircumflex" unicode="&#xf4;" 
d="M109 592l117 160h161l117 -160h-108l-88 90h-3l-89 -90h-107zM37 274c0 166 116 275 271 275c153 0 268 -109 268 -275c0 -177 -108 -286 -268 -286c-162 0 -271 109 -271 286zM185 273c0 -106 44 -175 123 -175c76 0 120 69 120 175c0 99 -48 165 -120 165
c-74 0 -123 -66 -123 -165z" />
    <glyph glyph-name="odieresis" unicode="&#xf6;" 
d="M363 615v114h115v-114h-115zM134 615v114h117v-114h-117zM37 274c0 166 116 275 271 275c153 0 268 -109 268 -275c0 -177 -108 -286 -268 -286c-162 0 -271 109 -271 286zM185 273c0 -106 44 -175 123 -175c76 0 120 69 120 175c0 99 -48 165 -120 165
c-74 0 -123 -66 -123 -165z" />
    <glyph glyph-name="otilde" unicode="&#xf5;" 
d="M37 274c0 166 116 275 271 275c153 0 268 -109 268 -275c0 -177 -108 -286 -268 -286c-162 0 -271 109 -271 286zM185 273c0 -106 44 -175 123 -175c76 0 120 69 120 175c0 99 -48 165 -120 165c-74 0 -123 -66 -123 -165zM131 604c-9 91 36 143 108 143
c64 0 89 -53 128 -53c24 0 35 15 31 46h82c10 -91 -35 -143 -107 -143c-63 0 -89 52 -128 52c-24 0 -35 -14 -32 -45h-82z" />
    <glyph glyph-name="ocaron" unicode="&#x1d2;" 
d="M226 592l-117 160h107l89 -90h3l88 90h108l-117 -160h-161zM37 274c0 166 116 275 271 275c153 0 268 -109 268 -275c0 -177 -108 -286 -268 -286c-162 0 -271 109 -271 286zM185 273c0 -106 44 -175 123 -175c76 0 120 69 120 175c0 99 -48 165 -120 165
c-74 0 -123 -66 -123 -165z" />
    <glyph glyph-name="omacron" unicode="&#x14d;" 
d="M143 627v90h328v-90h-328zM37 274c0 166 116 275 271 275c153 0 268 -109 268 -275c0 -177 -108 -286 -268 -286c-162 0 -271 109 -271 286zM185 273c0 -106 44 -175 123 -175c76 0 120 69 120 175c0 99 -48 165 -120 165c-74 0 -123 -66 -123 -165z" />
    <glyph glyph-name="obreve" unicode="&#x14f;" 
d="M37 274c0 166 116 275 271 275c153 0 268 -109 268 -275c0 -177 -108 -286 -268 -286c-162 0 -271 109 -271 286zM185 273c0 -106 44 -175 123 -175c76 0 120 69 120 175c0 99 -48 165 -120 165c-74 0 -123 -66 -123 -165zM308 582c-104 0 -165 66 -175 170h92
c7 -50 37 -79 83 -79c45 0 75 29 82 79h90c-7 -105 -73 -170 -172 -170z" />
    <glyph glyph-name="oinvertedbreve" unicode="&#x20f;" 
d="M306 761c102 0 165 -66 174 -169h-92c-7 49 -36 78 -82 78c-45 0 -76 -29 -83 -78h-90c7 104 72 169 173 169zM37 274c0 166 116 275 271 275c153 0 268 -109 268 -275c0 -177 -108 -286 -268 -286c-162 0 -271 109 -271 286zM185 273c0 -106 44 -175 123 -175
c76 0 120 69 120 175c0 99 -48 165 -120 165c-74 0 -123 -66 -123 -165z" />
    <glyph glyph-name="ohungarumlaut" unicode="&#x151;" 
d="M161 592l118 186l100 -62l-129 -124h-89zM356 592l118 186l99 -62l-128 -124h-89zM37 274c0 166 116 275 271 275c153 0 268 -109 268 -275c0 -177 -108 -286 -268 -286c-162 0 -271 109 -271 286zM185 273c0 -106 44 -175 123 -175c76 0 120 69 120 175
c0 99 -48 165 -120 165c-74 0 -123 -66 -123 -165z" />
    <glyph glyph-name="odoublegrave" unicode="&#x20d;" 
d="M147 778l119 -186h-90l-128 124zM342 778l118 -186h-90l-127 124zM37 274c0 166 116 275 271 275c153 0 268 -109 268 -275c0 -177 -108 -286 -268 -286c-162 0 -271 109 -271 286zM185 273c0 -106 44 -175 123 -175c76 0 120 69 120 175c0 99 -48 165 -120 165
c-74 0 -123 -66 -123 -165z" />
    <glyph glyph-name="ocommaturnedabove" unicode="&#xe03b;" 
d="M380 668v-72c-20 -5 -42 -8 -61 -8c-67 0 -98 34 -98 77c-1 33 19 72 46 99h98c-26 -31 -37 -50 -37 -72c0 -17 12 -27 30 -27c8 0 14 2 22 3zM37 274c0 166 116 275 271 275c153 0 268 -109 268 -275c0 -177 -108 -286 -268 -286c-162 0 -271 109 -271 286zM185 273
c0 -106 44 -175 123 -175c76 0 120 69 120 175c0 99 -48 165 -120 165c-74 0 -123 -66 -123 -165z" />
    <glyph glyph-name="otildemacron" unicode="&#x22d;" 
d="M143 778v90h328v-90h-328zM37 274c0 166 116 275 271 275c153 0 268 -109 268 -275c0 -177 -108 -286 -268 -286c-162 0 -271 109 -271 286zM185 273c0 -106 44 -175 123 -175c76 0 120 69 120 175c0 99 -48 165 -120 165c-74 0 -123 -66 -123 -165zM131 595
c-9 91 36 143 108 143c64 0 89 -53 128 -53c24 0 35 15 31 46h82c10 -91 -35 -143 -107 -143c-63 0 -89 52 -128 52c-24 0 -35 -14 -32 -45h-82z" />
    <glyph glyph-name="odotabove" unicode="&#x22f;" 
d="M37 274c0 166 116 275 271 275c153 0 268 -109 268 -275c0 -177 -108 -286 -268 -286c-162 0 -271 109 -271 286zM185 273c0 -106 44 -175 123 -175c76 0 120 69 120 175c0 99 -48 165 -120 165c-74 0 -123 -66 -123 -165zM248 615v114h115v-114h-115z" />
    <glyph glyph-name="odotabovemacron" unicode="&#x231;" 
d="M143 778v90h328v-90h-328zM37 274c0 166 116 275 271 275c153 0 268 -109 268 -275c0 -177 -108 -286 -268 -286c-162 0 -271 109 -271 286zM185 273c0 -106 44 -175 123 -175c76 0 120 69 120 175c0 99 -48 165 -120 165c-74 0 -123 -66 -123 -165zM248 609v114h115
v-114h-115z" />
    <glyph glyph-name="ocedilla" unicode="&#xe03f;" 
d="M250 -41h93c-15 -73 -51 -134 -102 -181l-100 50c43 35 86 79 109 131zM37 274c0 166 116 275 271 275c153 0 268 -109 268 -275c0 -177 -108 -286 -268 -286c-162 0 -271 109 -271 286zM185 273c0 -106 44 -175 123 -175c76 0 120 69 120 175c0 99 -48 165 -120 165
c-74 0 -123 -66 -123 -165z" />
    <glyph glyph-name="odotbelow" unicode="&#x1ecd;" 
d="M248 -188v114h115v-114h-115zM37 274c0 166 116 275 271 275c153 0 268 -109 268 -275c0 -177 -108 -286 -268 -286c-162 0 -271 109 -271 286zM185 273c0 -106 44 -175 123 -175c76 0 120 69 120 175c0 99 -48 165 -120 165c-74 0 -123 -66 -123 -165z" />
    <glyph glyph-name="ounderlineaccent" unicode="&#xe040;" 
d="M250 -206v160h112v-160h-112zM37 274c0 166 116 275 271 275c153 0 268 -109 268 -275c0 -177 -108 -286 -268 -286c-162 0 -271 109 -271 286zM185 273c0 -106 44 -175 123 -175c76 0 120 69 120 175c0 99 -48 165 -120 165c-74 0 -123 -66 -123 -165z" />
    <glyph glyph-name="oogonek" unicode="&#x1eb;" 
d="M37 274c0 166 116 275 271 275c153 0 268 -109 268 -275c0 -116 -47 -203 -122 -248c-64 -39 -95 -63 -95 -97c0 -23 16 -36 45 -36c19 0 36 4 49 11l3 -3v-96c-23 -8 -48 -12 -76 -12c-77 0 -123 40 -123 102c0 34 16 65 41 93h-1c-155 5 -260 113 -260 286zM185 273
c0 -106 44 -175 123 -175c76 0 120 69 120 175c0 99 -48 165 -120 165c-74 0 -123 -66 -123 -165z" />
    <glyph glyph-name="oogonekmacron" unicode="&#x1ed;" 
d="M143 627v90h328v-90h-328zM37 274c0 166 116 275 271 275c153 0 268 -109 268 -275c0 -116 -47 -203 -122 -248c-64 -39 -95 -63 -95 -97c0 -23 16 -36 45 -36c19 0 36 4 49 11l3 -3v-96c-23 -8 -48 -12 -76 -12c-77 0 -123 40 -123 102c0 34 16 65 41 93h-1
c-155 5 -260 113 -260 286zM185 273c0 -106 44 -175 123 -175c76 0 120 69 120 175c0 99 -48 165 -120 165c-74 0 -123 -66 -123 -165z" />
    <glyph glyph-name="oslash" unicode="&#xf8;" 
d="M37 274c0 166 116 275 271 275c51 0 98 -13 138 -36l55 71l62 -49l-56 -69c43 -48 69 -114 69 -192c0 -177 -108 -286 -268 -286c-57 0 -106 13 -147 38l-60 -78l-64 47l65 80c-42 49 -65 117 -65 199zM428 273c0 32 -6 60 -15 84l-180 -231c19 -18 44 -28 75 -28
c76 0 120 69 120 175zM185 273c0 -33 4 -62 12 -87l178 228c-19 15 -41 24 -67 24c-74 0 -123 -66 -123 -165z" />
    <glyph glyph-name="oslashacute" unicode="&#x1ff;" 
d="M37 274c0 166 116 275 271 275c51 0 98 -13 138 -36l55 71l62 -49l-56 -69c43 -48 69 -114 69 -192c0 -177 -108 -286 -268 -286c-57 0 -106 13 -147 38l-60 -78l-63 47l64 80c-41 49 -65 116 -65 199zM428 273c0 32 -6 60 -15 84l-180 -231c19 -18 44 -28 75 -28
c76 0 120 69 120 175zM185 273c0 -33 4 -62 12 -87l178 228c-18 15 -41 24 -67 24c-74 0 -123 -66 -123 -165zM230 592l128 186l98 -65l-134 -121h-92z" />
    <glyph glyph-name="barredo" unicode="&#x275;" 
d="M37 274c0 166 116 275 271 275c153 0 268 -109 268 -275c0 -177 -108 -286 -268 -286c-162 0 -271 109 -271 286zM308 98c66 0 107 52 117 135h-238c10 -83 52 -135 121 -135zM308 438c-66 0 -112 -52 -121 -133h239c-9 81 -54 133 -118 133z" />
    <glyph glyph-name="oe" unicode="&#x153;" horiz-adv-x="973" 
d="M37 274c0 166 117 276 272 276c86 0 152 -36 191 -99c43 63 112 99 196 99c155 0 240 -101 240 -245c0 -21 -3 -49 -6 -65h-352c5 -89 49 -136 130 -136c54 0 104 18 148 46l63 -93c-69 -49 -141 -70 -217 -70c-91 0 -160 34 -201 97c-41 -62 -106 -97 -192 -97
c-162 0 -272 111 -272 287zM186 274c0 -107 43 -176 122 -176c76 0 120 69 120 176c0 99 -47 165 -120 165c-74 0 -122 -66 -122 -165zM579 324h217c0 68 -26 120 -97 120c-58 0 -105 -41 -120 -120z" />
    <glyph glyph-name="pmacron" unicode="&#xe042;" horiz-adv-x="607" 
d="M207 57v-257h-145v737h132l11 -65c41 47 95 77 157 77c124 0 208 -93 208 -274c0 -189 -85 -287 -205 -287c-67 0 -118 29 -158 69zM207 153c34 -37 67 -53 111 -53c71 0 106 69 106 174c0 106 -35 163 -106 163c-43 0 -79 -20 -111 -56v-228zM149 627v90h328v-90h-328z
" />
    <glyph glyph-name="racute" unicode="&#x155;" horiz-adv-x="443" 
d="M169 592l128 186l98 -65l-134 -121h-92zM61 0v537h135l10 -83c41 72 92 98 153 98c25 0 48 -4 66 -11l-21 -134c-19 7 -42 12 -72 12c-55 0 -92 -34 -125 -96v-323h-146z" />
    <glyph glyph-name="rcaron" unicode="&#x159;" horiz-adv-x="443" 
d="M161 592l-117 160h107l89 -90h3l88 90h108l-117 -160h-161zM61 0v537h135l10 -83c41 72 92 98 153 98c25 0 48 -4 66 -11l-21 -134c-19 7 -42 12 -72 12c-55 0 -92 -34 -125 -96v-323h-146z" />
    <glyph glyph-name="rinvertedbreve" unicode="&#x213;" horiz-adv-x="443" 
d="M242 761c102 0 165 -66 174 -169h-92c-7 49 -36 78 -82 78c-45 0 -76 -29 -83 -78h-90c7 104 72 169 173 169zM61 0v537h135l10 -83c41 72 92 98 153 98c25 0 48 -4 66 -11l-21 -134c-19 7 -42 12 -72 12c-55 0 -92 -34 -125 -96v-323h-146z" />
    <glyph glyph-name="rdoublegrave" unicode="&#x211;" horiz-adv-x="443" 
d="M61 0v537h135l10 -83c41 72 92 98 153 98c25 0 48 -4 66 -11l-21 -134c-19 7 -42 12 -72 12c-55 0 -92 -34 -125 -96v-323h-146zM84 778l119 -186h-90l-128 124zM279 778l118 -186h-90l-127 124z" />
    <glyph glyph-name="rcommaaccent" unicode="&#x157;" horiz-adv-x="443" 
d="M58 -54c20 5 42 8 60 8c68 0 99 -35 99 -77c2 -33 -20 -72 -47 -99h-96c25 31 35 50 35 72c0 17 -12 28 -29 26c-8 0 -16 -1 -22 -2v72zM61 0v537h135l10 -83c41 72 92 98 153 98c25 0 48 -4 66 -11l-21 -134c-19 7 -42 12 -72 12c-55 0 -92 -34 -125 -96v-323h-146z" />
    <glyph glyph-name="rcedilla" unicode="&#xe044;" horiz-adv-x="443" 
d="M61 0v537h135l10 -83c41 72 92 98 153 98c25 0 48 -4 66 -11l-21 -134c-19 7 -42 12 -72 12c-55 0 -92 -34 -125 -96v-323h-146zM79 -41h93c-15 -73 -51 -134 -102 -181l-100 50c43 35 86 79 109 131z" />
    <glyph glyph-name="rdotbelow" unicode="&#x1e5b;" horiz-adv-x="443" 
d="M61 0v537h135l10 -83c41 72 92 98 153 98c25 0 48 -4 66 -11l-21 -134c-19 7 -42 12 -72 12c-55 0 -92 -34 -125 -96v-323h-146zM75 -188v114h115v-114h-115z" />
    <glyph glyph-name="rdotbelowmacron" unicode="&#x1e5d;" horiz-adv-x="443" 
d="M81 627v90h328v-90h-328zM61 0v537h135l10 -83c41 72 92 98 153 98c25 0 48 -4 66 -11l-21 -134c-19 7 -42 12 -72 12c-55 0 -92 -34 -125 -96v-323h-146zM75 -188v114h115v-114h-115z" />
    <glyph glyph-name="sacute" unicode="&#x15b;" horiz-adv-x="509" 
d="M182 592l128 186l98 -65l-134 -121h-92zM31 46l56 102c52 -29 110 -49 166 -49c50 0 80 16 80 51c0 91 -290 31 -290 232c0 109 99 167 213 167c59 0 124 -12 200 -47l-52 -102c-51 25 -110 38 -146 38c-44 0 -72 -17 -72 -50c0 -89 288 -26 288 -229
c0 -111 -92 -171 -219 -171c-82 0 -156 21 -224 58z" />
    <glyph glyph-name="scircumflex" unicode="&#x15d;" horiz-adv-x="509" 
d="M64 592l117 160h161l117 -160h-108l-88 90h-3l-89 -90h-107zM31 46l56 102c52 -29 110 -49 166 -49c50 0 80 16 80 51c0 91 -290 31 -290 232c0 109 99 167 213 167c59 0 124 -12 200 -47l-52 -102c-51 25 -110 38 -146 38c-44 0 -72 -17 -72 -50c0 -89 288 -26 288 -229
c0 -111 -92 -171 -219 -171c-82 0 -156 21 -224 58z" />
    <glyph glyph-name="scaron" unicode="&#x161;" horiz-adv-x="509" 
d="M181 592l-117 160h107l89 -90h3l88 90h108l-117 -160h-161zM31 46l56 102c52 -29 110 -49 166 -49c50 0 80 16 80 51c0 91 -290 31 -290 232c0 109 99 167 213 167c59 0 124 -12 200 -47l-52 -102c-51 25 -110 38 -146 38c-44 0 -72 -17 -72 -50c0 -89 288 -26 288 -229
c0 -111 -92 -171 -219 -171c-82 0 -156 21 -224 58z" />
    <glyph glyph-name="scommaaccent" unicode="&#x219;" horiz-adv-x="509" 
d="M168 -54c20 5 42 8 60 8c68 0 99 -35 99 -77c2 -33 -20 -72 -47 -99h-96c25 31 35 50 35 72c0 17 -12 28 -29 26c-8 0 -16 -1 -22 -2v72zM31 46l56 102c52 -29 110 -49 166 -49c50 0 80 16 80 51c0 91 -290 31 -290 232c0 109 99 167 213 167c59 0 124 -12 200 -47
l-52 -102c-51 25 -110 38 -146 38c-44 0 -72 -17 -72 -50c0 -89 288 -26 288 -229c0 -111 -92 -171 -219 -171c-82 0 -156 21 -224 58z" />
    <glyph glyph-name="scedilla" unicode="&#x15f;" horiz-adv-x="509" 
d="M84 -172c52 41 103 99 121 163c-63 6 -120 25 -174 55l56 102c52 -29 110 -49 166 -49c50 0 80 16 80 51c0 91 -290 31 -290 232c0 109 99 167 213 167c59 0 124 -12 200 -47l-52 -102c-51 25 -110 38 -146 38c-44 0 -72 -17 -72 -50c0 -89 288 -26 288 -229
c0 -100 -75 -159 -182 -169c-10 -85 -49 -158 -108 -212z" />
    <glyph glyph-name="sdotbelow" unicode="&#x1e63;" horiz-adv-x="509" 
d="M31 46l56 102c52 -29 110 -49 166 -49c50 0 80 16 80 51c0 91 -290 31 -290 232c0 109 99 167 213 167c59 0 124 -12 200 -47l-52 -102c-51 25 -110 38 -146 38c-44 0 -72 -17 -72 -50c0 -89 288 -26 288 -229c0 -111 -92 -171 -219 -171c-82 0 -156 21 -224 58z
M191 -188v114h115v-114h-115z" />
    <glyph glyph-name="germandbls" unicode="&#xdf;" horiz-adv-x="666" 
d="M60 0v532c0 152 113 232 261 232c151 0 261 -85 261 -213c0 -80 -48 -132 -113 -160v-1c90 -22 159 -83 159 -185c0 -139 -110 -215 -235 -215c-44 0 -84 6 -121 18l22 113c23 -7 53 -13 75 -13c63 0 112 36 112 106c0 75 -56 109 -133 109h-41v117h20
c65 0 109 41 109 104c0 67 -44 110 -116 110c-69 0 -113 -41 -113 -120v-534h-147z" />
    <glyph glyph-name="tcaron" unicode="&#x165;" horiz-adv-x="437" 
d="M308 671v72c20 5 42 8 61 8c67 0 98 -34 98 -77c1 -33 -19 -72 -46 -99h-98c26 31 37 50 37 72c0 17 -12 27 -30 27c-8 0 -14 -2 -22 -3zM101 163v270h-85v104h85v134h147v-134h147v-104h-147v-267c0 -40 15 -60 49 -60c27 0 52 9 73 24l54 -88c-41 -32 -98 -54 -157 -54
c-112 0 -166 55 -166 175z" />
    <glyph glyph-name="tcommaaccent" unicode="&#x21b;" horiz-adv-x="437" 
d="M140 -54c20 5 42 8 60 8c68 0 99 -35 99 -77c2 -33 -20 -72 -47 -99h-96c25 31 35 50 35 72c0 17 -12 28 -29 26c-8 0 -16 -1 -22 -2v72zM101 163v270h-85v104h85v134h147v-134h147v-104h-147v-267c0 -40 15 -60 49 -60c27 0 52 9 73 24l54 -88c-41 -32 -98 -54 -157 -54
c-112 0 -166 55 -166 175z" />
    <glyph glyph-name="tcedilla" unicode="&#x163;" horiz-adv-x="437" 
d="M170 -41h93c-15 -73 -51 -134 -102 -181l-100 50c43 35 86 79 109 131zM101 163v270h-85v104h85v134h147v-134h147v-104h-147v-267c0 -40 15 -60 49 -60c27 0 52 9 73 24l54 -88c-41 -32 -98 -54 -157 -54c-112 0 -166 55 -166 175z" />
    <glyph glyph-name="tdotbelow" unicode="&#x1e6d;" horiz-adv-x="437" 
d="M164 -188v114h115v-114h-115zM101 163v270h-85v104h85v134h147v-134h147v-104h-147v-267c0 -40 15 -60 49 -60c27 0 52 9 73 24l54 -88c-41 -32 -98 -54 -157 -54c-112 0 -166 55 -166 175z" />
    <glyph glyph-name="tbar" unicode="&#x167;" horiz-adv-x="437" 
d="M24 251v86h77v96h-85v104h85v134h147v-134h147v-104h-147v-98h131v-84h-131v-85c0 -40 15 -60 49 -60c27 0 52 9 73 24l54 -88c-41 -32 -98 -54 -157 -54c-112 0 -166 55 -166 175v88h-77z" />
    <glyph glyph-name="uacute" unicode="&#xfa;" horiz-adv-x="598" 
d="M232 592l128 186l98 -65l-134 -121h-92zM58 182v355h147v-358c0 -48 17 -81 69 -81c46 0 84 23 117 61v378h147v-537h-136l-9 62c-39 -40 -98 -74 -164 -74c-121 0 -171 73 -171 194z" />
    <glyph glyph-name="ugrave" unicode="&#xf9;" horiz-adv-x="598" 
d="M58 182v355h147v-358c0 -48 17 -81 69 -81c46 0 84 23 117 61v378h147v-537h-136l-9 62c-39 -40 -98 -74 -164 -74c-121 0 -171 73 -171 194zM264 592l-134 121l99 65l127 -186h-92z" />
    <glyph glyph-name="ucircumflex" unicode="&#xfb;" horiz-adv-x="598" 
d="M101 592l117 160h161l117 -160h-108l-88 90h-3l-89 -90h-107zM58 182v355h147v-358c0 -48 17 -81 69 -81c46 0 84 23 117 61v378h147v-537h-136l-9 62c-39 -40 -98 -74 -164 -74c-121 0 -171 73 -171 194z" />
    <glyph glyph-name="udieresis" unicode="&#xfc;" horiz-adv-x="598" 
d="M355 615v114h115v-114h-115zM126 615v114h117v-114h-117zM58 182v355h147v-358c0 -48 17 -81 69 -81c46 0 84 23 117 61v378h147v-537h-136l-9 62c-39 -40 -98 -74 -164 -74c-121 0 -171 73 -171 194z" />
    <glyph glyph-name="utilde" unicode="&#x169;" horiz-adv-x="598" 
d="M58 182v355h147v-358c0 -48 17 -81 69 -81c46 0 84 23 117 61v378h147v-537h-136l-9 62c-39 -40 -98 -74 -164 -74c-121 0 -171 73 -171 194zM123 604c-9 91 36 143 108 143c64 0 89 -53 128 -53c24 0 35 15 31 46h82c10 -91 -35 -143 -107 -143c-63 0 -89 52 -128 52
c-24 0 -35 -14 -32 -45h-82z" />
    <glyph glyph-name="uring" unicode="&#x16f;" horiz-adv-x="598" 
d="M298 586c-66 0 -120 48 -120 114c0 67 54 116 120 116s120 -49 120 -116c0 -66 -54 -114 -120 -114zM298 638c34 0 62 28 62 62c0 36 -28 63 -62 63c-35 0 -62 -27 -62 -63c0 -34 27 -62 62 -62zM58 182v355h147v-358c0 -48 17 -81 69 -81c46 0 84 23 117 61v378h147
v-537h-136l-9 62c-39 -40 -98 -74 -164 -74c-121 0 -171 73 -171 194z" />
    <glyph glyph-name="ucaron" unicode="&#x1d4;" horiz-adv-x="598" 
d="M218 592l-117 160h107l89 -90h3l88 90h108l-117 -160h-161zM58 182v355h147v-358c0 -48 17 -81 69 -81c46 0 84 23 117 61v378h147v-537h-136l-9 62c-39 -40 -98 -74 -164 -74c-121 0 -171 73 -171 194z" />
    <glyph glyph-name="umacron" unicode="&#x16b;" horiz-adv-x="598" 
d="M58 182v355h147v-358c0 -48 17 -81 69 -81c46 0 84 23 117 61v378h147v-537h-136l-9 62c-39 -40 -98 -74 -164 -74c-121 0 -171 73 -171 194zM134 627v90h328v-90h-328z" />
    <glyph glyph-name="ubreve" unicode="&#x16d;" horiz-adv-x="598" 
d="M58 182v355h147v-358c0 -48 17 -81 69 -81c46 0 84 23 117 61v378h147v-537h-136l-9 62c-39 -40 -98 -74 -164 -74c-121 0 -171 73 -171 194zM299 582c-104 0 -165 66 -175 170h92c7 -50 37 -79 83 -79c45 0 75 29 82 79h90c-7 -105 -73 -170 -172 -170z" />
    <glyph glyph-name="uinvertedbreve" unicode="&#x217;" horiz-adv-x="598" 
d="M297 761c102 0 165 -66 174 -169h-92c-7 49 -36 78 -82 78c-45 0 -76 -29 -83 -78h-90c7 104 72 169 173 169zM58 182v355h147v-358c0 -48 17 -81 69 -81c46 0 84 23 117 61v378h147v-537h-136l-9 62c-39 -40 -98 -74 -164 -74c-121 0 -171 73 -171 194z" />
    <glyph glyph-name="uhungarumlaut" unicode="&#x171;" horiz-adv-x="598" 
d="M58 182v355h147v-358c0 -48 17 -81 69 -81c46 0 84 23 117 61v378h147v-537h-136l-9 62c-39 -40 -98 -74 -164 -74c-121 0 -171 73 -171 194zM146 592l118 186l100 -62l-129 -124h-89zM341 592l118 186l99 -62l-128 -124h-89z" />
    <glyph glyph-name="udoublegrave" unicode="&#x215;" horiz-adv-x="598" 
d="M58 182v355h147v-358c0 -48 17 -81 69 -81c46 0 84 23 117 61v378h147v-537h-136l-9 62c-39 -40 -98 -74 -164 -74c-121 0 -171 73 -171 194zM138 778l119 -186h-90l-128 124zM333 778l118 -186h-90l-127 124z" />
    <glyph glyph-name="uogonek" unicode="&#x173;" horiz-adv-x="598" 
d="M58 182v355h147v-358c0 -48 17 -81 69 -81c46 0 84 23 117 61v378h147v-537c-57 -17 -82 -38 -82 -70c0 -23 17 -36 43 -36c19 0 36 5 49 11l3 -2v-98c-23 -8 -49 -12 -78 -12c-73 0 -120 40 -120 101c0 42 22 79 61 106h-12l-9 62c-39 -40 -98 -74 -164 -74
c-121 0 -171 73 -171 194z" />
    <glyph glyph-name="udotbelow" unicode="&#x1ee5;" horiz-adv-x="598" 
d="M58 182v355h147v-358c0 -48 17 -81 69 -81c46 0 84 23 117 61v378h147v-537h-136l-9 62c-39 -40 -98 -74 -164 -74c-121 0 -171 73 -171 194zM240 -188v114h115v-114h-115z" />
    <glyph glyph-name="umacronbelow" unicode="&#xe047;" horiz-adv-x="598" 
d="M58 182v355h147v-358c0 -48 17 -81 69 -81c46 0 84 23 117 61v378h147v-537h-136l-9 62c-39 -40 -98 -74 -164 -74c-121 0 -171 73 -171 194zM134 -190v90h328v-90h-328z" />
    <glyph glyph-name="wacute" unicode="&#x1e83;" horiz-adv-x="845" 
d="M351 592l128 186l98 -65l-134 -121h-92zM189 0l-175 537h143l108 -348h2l97 348h118l98 -348h2l107 348h141l-175 -537h-133l-99 330h-2l-99 -330h-133z" />
    <glyph glyph-name="wgrave" unicode="&#x1e81;" horiz-adv-x="845" 
d="M189 0l-175 537h143l108 -348h2l97 348h118l98 -348h2l107 348h141l-175 -537h-133l-99 330h-2l-99 -330h-133zM402 592l-134 121l99 65l127 -186h-92z" />
    <glyph glyph-name="wcircumflex" unicode="&#x175;" horiz-adv-x="845" 
d="M225 592l117 160h161l117 -160h-108l-88 90h-3l-89 -90h-107zM189 0l-175 537h143l108 -348h2l97 348h118l98 -348h2l107 348h141l-175 -537h-133l-99 330h-2l-99 -330h-133z" />
    <glyph glyph-name="wdieresis" unicode="&#x1e85;" horiz-adv-x="845" 
d="M479 615v114h115v-114h-115zM250 615v114h117v-114h-117zM189 0l-175 537h143l108 -348h2l97 348h118l98 -348h2l107 348h141l-175 -537h-133l-99 330h-2l-99 -330h-133z" />
    <glyph glyph-name="yacute" unicode="&#xfd;" horiz-adv-x="556" 
d="M49 -76c25 -9 50 -17 73 -17c37 0 57 13 71 54l17 45l-195 531h147l118 -354h2l117 354h142l-200 -567c-52 -144 -115 -180 -210 -180c-45 0 -88 9 -122 20zM209 592l128 186l98 -65l-134 -121h-92z" />
    <glyph glyph-name="ygrave" unicode="&#x1ef3;" horiz-adv-x="556" 
d="M49 -76c25 -9 50 -17 73 -17c37 0 57 13 71 54l17 45l-195 531h147l118 -354h2l117 354h142l-200 -567c-52 -144 -115 -180 -210 -180c-45 0 -88 9 -122 20zM258 592l-134 121l99 65l127 -186h-92z" />
    <glyph glyph-name="ycircumflex" unicode="&#x177;" horiz-adv-x="556" 
d="M49 -76c25 -9 50 -17 73 -17c37 0 57 13 71 54l17 45l-195 531h147l118 -354h2l117 354h142l-200 -567c-52 -144 -115 -180 -210 -180c-45 0 -88 9 -122 20zM81 592l117 160h161l117 -160h-108l-88 90h-3l-89 -90h-107z" />
    <glyph glyph-name="ydieresis" unicode="&#xff;" horiz-adv-x="556" 
d="M49 -76c25 -9 50 -17 73 -17c37 0 57 13 71 54l17 45l-195 531h147l118 -354h2l117 354h142l-200 -567c-52 -144 -115 -180 -210 -180c-45 0 -88 9 -122 20zM336 615v114h115v-114h-115zM107 615v114h117v-114h-117z" />
    <glyph glyph-name="ytilde" unicode="&#x1ef9;" horiz-adv-x="556" 
d="M49 -76c25 -9 50 -17 73 -17c37 0 57 13 71 54l17 45l-195 531h147l118 -354h2l117 354h142l-200 -567c-52 -144 -115 -180 -210 -180c-45 0 -88 9 -122 20zM104 604c-9 91 36 143 108 143c64 0 89 -53 128 -53c24 0 35 15 31 46h82c10 -91 -35 -143 -107 -143
c-63 0 -89 52 -128 52c-24 0 -35 -14 -32 -45h-82z" />
    <glyph glyph-name="zacute" unicode="&#x17a;" horiz-adv-x="522" 
d="M192 592l128 186l98 -65l-134 -121h-92zM42 0v96l255 329h-248v112h427v-98l-252 -328h262v-111h-444z" />
    <glyph glyph-name="zcaron" unicode="&#x17e;" horiz-adv-x="522" 
d="M181 592l-117 160h107l89 -90h3l88 90h108l-117 -160h-161zM42 0v96l255 329h-248v112h427v-98l-252 -328h262v-111h-444z" />
    <glyph glyph-name="zdotaccent" unicode="&#x17c;" horiz-adv-x="522" 
d="M42 0v96l255 329h-248v112h427v-98l-252 -328h262v-111h-444zM203 615v114h115v-114h-115z" />
    <glyph glyph-name="eng" unicode="&#x14b;" horiz-adv-x="597" 
d="M61 0v537h138l7 -62c39 41 96 75 163 75c120 0 171 -74 171 -195v-360c0 -141 -68 -205 -186 -205c-46 0 -84 11 -110 20l32 108c18 -6 36 -10 55 -10c40 0 62 20 62 79v375c0 47 -22 78 -70 78c-45 0 -84 -23 -116 -63v-377h-146z" />
    <glyph glyph-name="thorn" unicode="&#xfe;" horiz-adv-x="610" 
d="M210 57v-257h-146v955h146v-282c40 47 93 76 155 76c123 0 208 -93 208 -274c0 -189 -86 -287 -205 -287c-68 0 -119 29 -158 69zM210 153c34 -37 66 -53 111 -53c70 0 106 69 106 174c0 106 -36 163 -106 163c-44 0 -79 -20 -111 -56v-228z" />
    <glyph glyph-name="eth" unicode="&#xf0;" 
d="M164 525l-35 74s64 25 111 43c-39 40 -82 77 -123 113h174c24 -21 46 -42 68 -64l97 42l34 -76s-37 -15 -73 -30c92 -112 153 -240 153 -365c0 -183 -108 -274 -263 -274c-170 0 -265 107 -265 248c0 137 96 230 222 230c50 0 91 -13 131 -40c-23 55 -58 106 -98 154
c-46 -19 -133 -55 -133 -55zM426 256c0 22 -1 44 -4 66c-40 32 -76 46 -124 46c-59 0 -109 -41 -109 -132c0 -81 45 -141 118 -141c70 0 119 58 119 161z" />
    <glyph glyph-name="ezh" unicode="&#x292;" horiz-adv-x="536" 
d="M104 215l206 210h-268v112h441v-93l-226 -224c20 3 45 5 67 5c103 0 193 -79 193 -198c0 -156 -128 -236 -281 -236c-82 0 -162 22 -226 56l48 108c53 -28 114 -48 174 -48c87 0 142 46 142 123c0 78 -62 106 -137 106c-28 0 -59 -2 -84 -6z" />
    <glyph glyph-name="ezhcaron" unicode="&#x1ef;" horiz-adv-x="536" 
d="M183 594l-117 160h107l89 -90h3l88 90h108l-117 -160h-161zM104 215l206 210h-268v112h441v-93l-226 -224c20 3 45 5 67 5c103 0 193 -79 193 -198c0 -156 -128 -236 -281 -236c-82 0 -162 22 -226 56l48 108c53 -28 114 -48 174 -48c87 0 142 46 142 123
c0 78 -62 106 -137 106c-28 0 -59 -2 -84 -6z" />
    <glyph glyph-name="schwa" unicode="&#x259;" horiz-adv-x="591" 
d="M46 298h354c-8 88 -50 134 -131 134c-54 0 -103 -17 -148 -46l-63 94c68 47 142 69 218 69c160 0 273 -104 273 -283c0 -172 -119 -278 -268 -278c-163 0 -239 106 -239 248c0 20 2 40 4 62zM277 94c58 0 105 39 120 118h-216c0 -67 27 -118 96 -118z" />
    <glyph glyph-name="Aacute.small" unicode="&#xe086;" horiz-adv-x="632" 
d="M246 618l128 186l98 -65l-134 -121h-92zM15 0l222 564h159l220 -564h-154l-34 95h-226l-33 -95h-154zM314 411l-75 -211h152l-75 211h-2z" />
    <glyph glyph-name="Agrave.small" unicode="&#xe087;" horiz-adv-x="632" 
d="M15 0l222 564h159l220 -564h-154l-34 95h-226l-33 -95h-154zM297 618l-134 121l99 65l127 -186h-92zM314 411l-75 -211h152l-75 211h-2z" />
    <glyph glyph-name="Adoublegrave.small" unicode="&#xe090;" horiz-adv-x="632" 
d="M15 0l222 564h159l220 -564h-154l-34 95h-226l-33 -95h-154zM314 411l-75 -211h152l-75 211h-2zM161 804l119 -186h-90l-128 124zM356 804l118 -186h-90l-127 124z" />
    <glyph glyph-name="Abreve.small" unicode="&#xe08e;" horiz-adv-x="632" 
d="M15 0l222 564h159l220 -564h-154l-34 95h-226l-33 -95h-154zM314 411l-75 -211h152l-75 211h-2zM318 608c-104 0 -165 66 -175 170h92c7 -50 37 -79 83 -79c45 0 75 29 82 79h90c-7 -105 -73 -170 -172 -170z" />
    <glyph glyph-name="Ainvertedbreve.small" unicode="&#xe08f;" horiz-adv-x="632" 
d="M15 0l222 564h159l220 -564h-154l-34 95h-226l-33 -95h-154zM316 787c102 0 165 -66 174 -169h-92c-7 49 -36 78 -82 78c-45 0 -76 -29 -83 -78h-90c7 104 72 169 173 169zM314 411l-75 -211h152l-75 211h-2z" />
    <glyph glyph-name="Acaron.small" unicode="&#xe08c;" horiz-adv-x="632" 
d="M236 618l-117 160h107l89 -90h3l88 90h108l-117 -160h-161zM15 0l222 564h159l220 -564h-154l-34 95h-226l-33 -95h-154zM314 411l-75 -211h152l-75 211h-2z" />
    <glyph glyph-name="Acircumflex.small" unicode="&#xe088;" horiz-adv-x="632" 
d="M15 0l222 564h159l220 -564h-154l-34 95h-226l-33 -95h-154zM119 618l117 160h161l117 -160h-108l-88 90h-3l-89 -90h-107zM314 411l-75 -211h152l-75 211h-2z" />
    <glyph glyph-name="Adieresis.small" unicode="&#xe089;" horiz-adv-x="632" 
d="M375 641v114h115v-114h-115zM146 641v114h117v-114h-117zM15 0l222 564h159l220 -564h-154l-34 95h-226l-33 -95h-154zM314 411l-75 -211h152l-75 211h-2z" />
    <glyph glyph-name="Adieresismacron.small" unicode="&#xe093;" horiz-adv-x="632" 
d="M375 630v114h115v-114h-115zM146 630v114h117v-114h-117zM153 804v90h328v-90h-328zM15 0l222 564h159l220 -564h-154l-34 95h-226l-33 -95h-154zM314 411l-75 -211h152l-75 211h-2z" />
    <glyph glyph-name="Adotabove.small" unicode="&#xe091;" horiz-adv-x="632" 
d="M15 0l222 564h159l220 -564h-154l-34 95h-226l-33 -95h-154zM314 411l-75 -211h152l-75 211h-2zM261 641v114h115v-114h-115z" />
    <glyph glyph-name="Amacron.small" unicode="&#xe08d;" horiz-adv-x="632" 
d="M153 653v90h328v-90h-328zM15 0l222 564h159l220 -564h-154l-34 95h-226l-33 -95h-154zM314 411l-75 -211h152l-75 211h-2z" />
    <glyph glyph-name="Atilde.small" unicode="&#xe060;" horiz-adv-x="632" 
d="M15 0l222 564h159l220 -564h-154l-34 95h-226l-33 -95h-154zM142 630c-9 91 36 143 108 143c64 0 89 -53 128 -53c24 0 35 15 31 46h82c10 -91 -35 -143 -107 -143c-63 0 -89 52 -128 52c-24 0 -35 -14 -32 -45h-82zM314 411l-75 -211h152l-75 211h-2z" />
    <glyph glyph-name="Aogonek.small" unicode="&#xe094;" horiz-adv-x="632" 
d="M15 0l222 564h159l217 -557l4 -7c-57 -17 -82 -38 -82 -70c0 -23 17 -36 43 -36c19 0 36 5 49 11l3 -2v-98c-23 -8 -49 -12 -78 -12c-73 0 -120 40 -120 101c0 42 22 79 61 106h-31l-34 95h-226l-33 -95h-154zM314 411l-75 -211h152l-75 211h-2z" />
    <glyph glyph-name="Aring.small" unicode="&#xe08b;" horiz-adv-x="632" 
d="M15 0l215 546c-20 20 -32 47 -32 79c0 67 54 116 120 116s120 -49 120 -116c0 -33 -13 -61 -35 -81l213 -544h-154l-34 95h-226l-33 -95h-154zM314 411l-75 -211h152l-75 211h-2zM256 625c0 -31 22 -56 52 -61h20c29 5 52 30 52 61c0 36 -28 63 -62 63
c-35 0 -62 -27 -62 -63z" />
    <glyph glyph-name="Aringacute.small" unicode="&#xe092;" horiz-adv-x="632" 
d="M15 0l215 546c-20 20 -32 47 -32 79c0 67 54 116 120 116s120 -49 120 -116c0 -33 -13 -61 -35 -81l213 -544h-154l-34 95h-226l-33 -95h-154zM246 773l128 186l98 -65l-134 -121h-92zM314 411l-75 -211h152l-75 211h-2zM256 625c0 -31 22 -56 52 -61h20
c29 5 52 30 52 61c0 36 -28 63 -62 63c-35 0 -62 -27 -62 -63z" />
    <glyph glyph-name="AE.small" unicode="&#xe096;" horiz-adv-x="927" 
d="M12 0l263 564h600v-116h-375l34 -111h308v-104h-276l36 -117h277v-116h-397l-26 96h-245l-42 -96h-157zM362 440l-102 -232h165z" />
    <glyph glyph-name="AEacute.small" unicode="&#xe097;" horiz-adv-x="927" 
d="M12 0l263 564h600v-116h-375l34 -111h308v-104h-276l36 -117h277v-116h-397l-26 96h-245l-42 -96h-157zM362 440l-102 -232h165zM367 618l128 186l98 -65l-134 -121h-92z" />
    <glyph glyph-name="AEmacron.small" unicode="&#xe098;" horiz-adv-x="927" 
d="M12 0l263 564h600v-116h-375l34 -111h308v-104h-276l36 -117h277v-116h-397l-26 96h-245l-42 -96h-157zM362 440l-102 -232h165zM283 653v90h328v-90h-328z" />
    <glyph glyph-name="Cacute.small" unicode="&#xe099;" horiz-adv-x="618" 
d="M259 618l128 186l98 -65l-134 -121h-92zM40 287c0 162 121 291 311 291c76 0 156 -24 222 -76l-75 -97c-43 35 -90 55 -142 55c-99 0 -168 -71 -168 -173c0 -106 66 -182 168 -182c59 0 103 22 145 62l85 -85c-61 -58 -139 -94 -236 -94c-193 0 -310 131 -310 299z" />
    <glyph glyph-name="Ccaron.small" unicode="&#xe09b;" horiz-adv-x="618" 
d="M260 618l-117 160h107l89 -90h3l88 90h108l-117 -160h-161zM40 287c0 162 121 291 311 291c76 0 156 -24 222 -76l-75 -97c-43 35 -90 55 -142 55c-99 0 -168 -71 -168 -173c0 -106 66 -182 168 -182c59 0 103 22 145 62l85 -85c-61 -58 -139 -94 -236 -94
c-193 0 -310 131 -310 299z" />
    <glyph glyph-name="Ccircumflex.small" unicode="&#xe09a;" horiz-adv-x="618" 
d="M142 618l117 160h161l117 -160h-108l-88 90h-3l-89 -90h-107zM40 287c0 162 121 291 311 291c76 0 156 -24 222 -76l-75 -97c-43 35 -90 55 -142 55c-99 0 -168 -71 -168 -173c0 -106 66 -182 168 -182c59 0 103 22 145 62l85 -85c-61 -58 -139 -94 -236 -94
c-193 0 -310 131 -310 299z" />
    <glyph glyph-name="Cdotaccent.small" unicode="&#xe09c;" horiz-adv-x="618" 
d="M40 287c0 162 121 291 311 291c76 0 156 -24 222 -76l-75 -97c-43 35 -90 55 -142 55c-99 0 -168 -71 -168 -173c0 -106 66 -182 168 -182c59 0 103 22 145 62l85 -85c-61 -58 -139 -94 -236 -94c-193 0 -310 131 -310 299zM274 641v114h115v-114h-115z" />
    <glyph glyph-name="Ccedilla.small" unicode="&#xe09d;" horiz-adv-x="618" 
d="M167 -172c53 42 104 100 121 165c-156 25 -248 144 -248 294c0 162 121 291 311 291c76 0 156 -24 222 -76l-75 -97c-43 35 -90 55 -142 55c-99 0 -168 -71 -168 -173c0 -106 66 -182 168 -182c59 0 103 22 145 62l85 -85c-56 -53 -126 -88 -211 -93
c-10 -85 -49 -157 -108 -211z" />
    <glyph glyph-name="Dcaron.small" unicode="&#xe09e;" horiz-adv-x="634" 
d="M63 0v564h205c213 0 326 -105 326 -276c0 -179 -106 -288 -326 -288h-205zM211 114h63c120 0 172 66 172 175c0 100 -57 163 -172 163h-63v-338zM246 618l-117 160h107l89 -90h3l88 90h108l-117 -160h-161z" />
    <glyph glyph-name="Dcroat.small" unicode="&#xe0a1;" horiz-adv-x="664" 
d="M8 240v86h88v238h205c213 0 326 -105 326 -276c0 -179 -106 -288 -326 -288h-205v240h-88zM244 114h63c120 0 172 66 172 175c0 100 -57 163 -172 163h-63v-128h123v-83h-123v-127z" />
    <glyph glyph-name="Dcedilla.small" unicode="&#xe09f;" horiz-adv-x="634" 
d="M63 0v564h205c213 0 326 -105 326 -276c0 -179 -106 -288 -326 -288h-205zM211 114h63c120 0 172 66 172 175c0 100 -57 163 -172 163h-63v-338zM279 -41h93c-15 -73 -51 -134 -102 -181l-100 50c43 35 86 79 109 131z" />
    <glyph glyph-name="Ddotbelow.small" unicode="&#xe0a0;" horiz-adv-x="634" 
d="M63 0v564h205c213 0 326 -105 326 -276c0 -179 -106 -288 -326 -288h-205zM211 114h63c120 0 172 66 172 175c0 100 -57 163 -172 163h-63v-338zM268 -188v114h115v-114h-115z" />
    <glyph glyph-name="Eacute.small" unicode="&#xe0a2;" horiz-adv-x="553" 
d="M63 0v564h438v-116h-290v-111h257v-104h-257v-117h294v-116h-442zM217 618l128 186l98 -65l-134 -121h-92z" />
    <glyph glyph-name="Eacutedotbelow.small" unicode="&#xe0ac;" horiz-adv-x="553" 
d="M63 0v564h438v-116h-290v-111h257v-104h-257v-117h294v-116h-442zM227 -188v114h115v-114h-115zM217 618l128 186l98 -65l-134 -121h-92z" />
    <glyph glyph-name="Egrave.small" unicode="&#xe0a3;" horiz-adv-x="553" 
d="M63 0v564h438v-116h-290v-111h257v-104h-257v-117h294v-116h-442zM268 618l-134 121l99 65l127 -186h-92z" />
    <glyph glyph-name="Egravedotbelow.small" unicode="&#xe0ad;" horiz-adv-x="553" 
d="M63 0v564h438v-116h-290v-111h257v-104h-257v-117h294v-116h-442zM227 -188v114h115v-114h-115zM268 618l-134 121l99 65l127 -186h-92z" />
    <glyph glyph-name="Edoublegrave.small" unicode="&#xe0aa;" horiz-adv-x="557" 
d="M68 0v564h438v-116h-290v-111h257v-104h-257v-117h294v-116h-442zM134 804l119 -186h-90l-128 124zM329 804l118 -186h-90l-127 124z" />
    <glyph glyph-name="Ebreve.small" unicode="&#xe0a8;" horiz-adv-x="553" 
d="M63 0v564h438v-116h-290v-111h257v-104h-257v-117h294v-116h-442zM284 608c-104 0 -165 66 -175 170h92c7 -50 37 -79 83 -79c45 0 75 29 82 79h90c-7 -105 -73 -170 -172 -170z" />
    <glyph glyph-name="Einvertedbreve.small" unicode="&#xe0a9;" horiz-adv-x="553" 
d="M63 0v564h438v-116h-290v-111h257v-104h-257v-117h294v-116h-442zM282 787c102 0 165 -66 174 -169h-92c-7 49 -36 78 -82 78c-45 0 -76 -29 -83 -78h-90c7 104 72 169 173 169z" />
    <glyph glyph-name="Ecaron.small" unicode="&#xe0a6;" horiz-adv-x="554" 
d="M203 618l-117 160h107l89 -90h3l88 90h108l-117 -160h-161zM63 0v564h438v-116h-290v-111h257v-104h-257v-117h294v-116h-442z" />
    <glyph glyph-name="Ecircumflex.small" unicode="&#xe0a4;" horiz-adv-x="554" 
d="M86 618l117 160h161l117 -160h-108l-88 90h-3l-89 -90h-107zM63 0v564h438v-116h-290v-111h257v-104h-257v-117h294v-116h-442z" />
    <glyph glyph-name="Edieresis.small" unicode="&#xe0a5;" horiz-adv-x="553" 
d="M341 641v114h115v-114h-115zM112 641v114h117v-114h-117zM63 0v564h438v-116h-290v-111h257v-104h-257v-117h294v-116h-442z" />
    <glyph glyph-name="Edotaccent.small" unicode="&#xe0ab;" horiz-adv-x="553" 
d="M63 0v564h438v-116h-290v-111h257v-104h-257v-117h294v-116h-442zM227 641v114h115v-114h-115z" />
    <glyph glyph-name="Emacron.small" unicode="&#xe0a7;" horiz-adv-x="553" 
d="M63 0v564h438v-116h-290v-111h257v-104h-257v-117h294v-116h-442zM119 653v90h328v-90h-328z" />
    <glyph glyph-name="Eogonek.small" unicode="&#xe0ae;" horiz-adv-x="553" 
d="M63 0v564h438v-116h-290v-111h257v-104h-257v-117h294v-116c-57 -17 -82 -38 -82 -70c0 -23 17 -36 43 -36c19 0 36 5 49 11l3 -2v-98c-23 -8 -49 -12 -78 -12c-73 0 -120 40 -120 101c0 42 22 79 61 106h-318z" />
    <glyph glyph-name="Gacute.small" unicode="&#xe0af;" horiz-adv-x="646" 
d="M260 618l128 186l98 -65l-134 -121h-92zM40 286c0 165 121 292 317 292c73 0 153 -24 220 -67l-69 -96c-45 27 -93 45 -151 45c-107 0 -169 -76 -169 -174c0 -102 59 -181 169 -181c42 0 79 9 107 23v97h-127v93h254v-257c-61 -46 -147 -73 -237 -73
c-192 0 -314 125 -314 298z" />
    <glyph glyph-name="Gbreve.small" unicode="&#xe0b3;" horiz-adv-x="646" 
d="M40 286c0 165 121 292 317 292c73 0 153 -24 220 -67l-69 -96c-45 27 -93 45 -151 45c-107 0 -169 -76 -169 -174c0 -102 59 -181 169 -181c42 0 79 9 107 23v97h-127v93h254v-257c-61 -46 -147 -73 -237 -73c-192 0 -314 125 -314 298zM342 608c-104 0 -165 66 -175 170
h92c7 -50 37 -79 83 -79c45 0 75 29 82 79h90c-7 -105 -73 -170 -172 -170z" />
    <glyph glyph-name="Gcaron.small" unicode="&#xe0b2;" horiz-adv-x="646" 
d="M260 618l-117 160h107l89 -90h3l88 90h108l-117 -160h-161zM40 286c0 165 121 292 317 292c73 0 153 -24 220 -67l-69 -96c-45 27 -93 45 -151 45c-107 0 -169 -76 -169 -174c0 -102 59 -181 169 -181c42 0 79 9 107 23v97h-127v93h254v-257c-61 -46 -147 -73 -237 -73
c-192 0 -314 125 -314 298z" />
    <glyph glyph-name="Gcircumflex.small" unicode="&#xe0b0;" horiz-adv-x="646" 
d="M143 618l117 160h161l117 -160h-108l-88 90h-3l-89 -90h-107zM40 286c0 165 121 292 317 292c73 0 153 -24 220 -67l-69 -96c-45 27 -93 45 -151 45c-107 0 -169 -76 -169 -174c0 -102 59 -181 169 -181c42 0 79 9 107 23v97h-127v93h254v-257c-61 -46 -147 -73 -237 -73
c-192 0 -314 125 -314 298z" />
    <glyph glyph-name="Gcommaaccent.small" unicode="&#xe0b6;" horiz-adv-x="646" 
d="M253 -54c20 5 42 8 60 8c68 0 99 -35 99 -77c2 -33 -20 -72 -47 -99h-96c25 31 35 50 35 72c0 17 -12 28 -29 26c-8 0 -16 -1 -22 -2v72zM40 286c0 165 121 292 317 292c73 0 153 -24 220 -67l-69 -96c-45 27 -93 45 -151 45c-107 0 -169 -76 -169 -174
c0 -102 59 -181 169 -181c42 0 79 9 107 23v97h-127v93h254v-257c-61 -46 -147 -73 -237 -73c-192 0 -314 125 -314 298z" />
    <glyph glyph-name="Gdotaccent.small" unicode="&#xe0b4;" horiz-adv-x="646" 
d="M274 641v114h115v-114h-115zM40 286c0 165 121 292 317 292c73 0 153 -24 220 -67l-69 -96c-45 27 -93 45 -151 45c-107 0 -169 -76 -169 -174c0 -102 59 -181 169 -181c42 0 79 9 107 23v97h-127v93h254v-257c-61 -46 -147 -73 -237 -73c-192 0 -314 125 -314 298z" />
    <glyph glyph-name="Gstroke.small" unicode="&#xe0b7;" horiz-adv-x="655" 
d="M40 286c0 165 121 292 317 292c73 0 153 -24 220 -67l-69 -96c-45 27 -93 45 -151 45c-107 0 -169 -76 -169 -174c0 -102 59 -181 169 -181c42 0 79 9 107 23v97h-127v93h254v-91h73v-91h-73v-75c-61 -46 -147 -73 -237 -73c-192 0 -314 125 -314 298z" />
    <glyph glyph-name="Hbar.small" unicode="&#xe0bc;" horiz-adv-x="638" 
d="M63 0v564h148v-67h217v67h147v-564h-147v228h-217v-228h-148zM211 349h217v68h-217v-68z" />
    <glyph glyph-name="Hcaron.small" unicode="&#xe0b9;" horiz-adv-x="638" 
d="M239 618l-117 160h107l89 -90h3l88 90h108l-117 -160h-161zM63 0v564h148v-215h217v215h147v-564h-147v228h-217v-228h-148z" />
    <glyph glyph-name="Hcircumflex.small" unicode="&#xe0b8;" horiz-adv-x="638" 
d="M122 618l117 160h161l117 -160h-108l-88 90h-3l-89 -90h-107zM63 0v564h148v-215h217v215h147v-564h-147v228h-217v-228h-148z" />
    <glyph glyph-name="Hdotbelow.small" unicode="&#xe0ba;" horiz-adv-x="638" 
d="M63 0v564h148v-215h217v215h147v-564h-147v228h-217v-228h-148zM263 -188v114h115v-114h-115z" />
    <glyph glyph-name="Hmacronbelow.small" unicode="&#xe0bb;" horiz-adv-x="638" 
d="M63 0v564h148v-215h217v215h147v-564h-147v228h-217v-228h-148zM156 -192v90h328v-90h-328z" />
    <glyph glyph-name="Iacute.small" unicode="&#xe0bd;" horiz-adv-x="273" 
d="M67 618l128 186l98 -65l-134 -121h-92zM63 0v564h147v-564h-147z" />
    <glyph glyph-name="Igrave.small" unicode="&#xe0be;" horiz-adv-x="273" 
d="M63 0v564h147v-564h-147zM118 618l-134 121l99 65l127 -186h-92z" />
    <glyph glyph-name="Idoublegrave.small" unicode="&#xe0c6;" horiz-adv-x="273" 
d="M63 0v564h147v-564h-147zM-23 804l119 -186h-90l-128 124zM172 804l118 -186h-90l-127 124z" />
    <glyph glyph-name="Ibreve.small" unicode="&#xe0c4;" horiz-adv-x="273" 
d="M63 0v564h147v-564h-147zM138 608c-104 0 -165 66 -175 170h92c7 -50 37 -79 83 -79c45 0 75 29 82 79h90c-7 -105 -73 -170 -172 -170z" />
    <glyph glyph-name="Icaron.small" unicode="&#xe0c2;" horiz-adv-x="273" 
d="M56 618l-117 160h107l89 -90h3l88 90h108l-117 -160h-161zM63 0v564h147v-564h-147z" />
    <glyph glyph-name="Icircumflex.small" unicode="&#xe0bf;" horiz-adv-x="273" 
d="M-61 618l117 160h161l117 -160h-108l-88 90h-3l-89 -90h-107zM63 0v564h147v-564h-147z" />
    <glyph glyph-name="Idieresis.small" unicode="&#xe0c0;" horiz-adv-x="273" 
d="M195 641v114h115v-114h-115zM-34 641v114h117v-114h-117zM63 0v564h147v-564h-147z" />
    <glyph glyph-name="Idotaccent.small" unicode="&#xe0c7;" horiz-adv-x="273" 
d="M63 0v564h147v-564h-147zM81 641v114h115v-114h-115z" />
    <glyph glyph-name="Idotbelow.small" unicode="&#xe0c8;" horiz-adv-x="273" 
d="M81 -188v114h115v-114h-115zM63 0v564h147v-564h-147z" />
    <glyph glyph-name="Iinvertedbreve.small" unicode="&#xe0c5;" horiz-adv-x="273" 
d="M136 787c102 0 165 -66 174 -169h-92c-7 49 -36 78 -82 78c-45 0 -76 -29 -83 -78h-90c7 104 72 169 173 169zM63 0v564h147v-564h-147z" />
    <glyph glyph-name="Imacron.small" unicode="&#xe0c3;" horiz-adv-x="273" 
d="M-27 653v90h328v-90h-328zM63 0v564h147v-564h-147z" />
    <glyph glyph-name="Itilde.small" unicode="&#xe0c1;" horiz-adv-x="273" 
d="M63 0v564h147v-564h-147zM-38 630c-9 91 36 143 108 143c64 0 89 -53 128 -53c24 0 35 15 31 46h82c10 -91 -35 -143 -107 -143c-63 0 -89 52 -128 52c-24 0 -35 -14 -32 -45h-82z" />
    <glyph glyph-name="Iogonek.small" unicode="&#xe0c9;" horiz-adv-x="273" 
d="M63 0v564h147v-562l1 -2c-57 -17 -82 -38 -82 -70c0 -23 17 -36 43 -36c19 0 36 5 49 11l3 -2v-98c-23 -8 -49 -12 -78 -12c-73 0 -120 40 -120 101c0 42 22 79 61 106h-24z" />
    <glyph glyph-name="Jcaron.small" unicode="&#xe0cb;" horiz-adv-x="499" 
d="M285 618l-117 160h107l89 -90h3l88 90h108l-117 -160h-161zM22 95l101 69c22 -35 52 -58 92 -58c54 0 77 33 77 89v369h148v-371c0 -123 -72 -205 -214 -205c-94 0 -158 40 -204 107z" />
    <glyph glyph-name="Jcircumflex.small" unicode="&#xe0ca;" horiz-adv-x="499" 
d="M168 618l117 160h161l117 -160h-108l-88 90h-3l-89 -90h-107zM22 95l101 69c22 -35 52 -58 92 -58c54 0 77 33 77 89v369h148v-371c0 -123 -72 -205 -214 -205c-94 0 -158 40 -204 107z" />
    <glyph glyph-name="Kcaron.small" unicode="&#xe0cc;" horiz-adv-x="629" 
d="M234 618l-117 160h107l89 -90h3l88 90h108l-117 -160h-161zM64 0v564h147v-243l209 243h174l-193 -212l212 -352h-168l-141 246l-93 -102v-144h-147z" />
    <glyph glyph-name="Kcedilla.small" unicode="&#xe0ce;" horiz-adv-x="629" 
d="M64 0v564h147v-243l209 243h174l-193 -212l212 -352h-168l-141 246l-93 -102v-144h-147zM273 -41h93c-15 -73 -51 -134 -102 -181l-100 50c43 35 86 79 109 131z" />
    <glyph glyph-name="Kcommaaccent.small" unicode="&#xe0cd;" horiz-adv-x="629" 
d="M241 -54c20 5 42 8 60 8c68 0 99 -35 99 -77c2 -33 -20 -72 -47 -99h-96c25 31 35 50 35 72c0 17 -12 28 -29 26c-8 0 -16 -1 -22 -2v72zM64 0v564h147v-243l209 243h174l-193 -212l212 -352h-168l-141 246l-93 -102v-144h-147z" />
    <glyph glyph-name="Khook.small" unicode="&#xe0cf;" horiz-adv-x="628" 
d="M63 0v564h148v-275c46 17 79 58 104 105c56 110 115 166 262 177v-114c-73 -11 -118 -54 -154 -127l-5 -9l194 -321h-168l-121 213c-31 -21 -68 -36 -112 -47v-166h-148z" />
    <glyph glyph-name="Lacute.small" unicode="&#xe0d0;" horiz-adv-x="547" 
d="M63 0v564h147v-443h304v-121h-451zM68 618l128 186l98 -65l-134 -121h-92z" />
    <glyph glyph-name="Lcaron.small" unicode="&#xe0d1;" horiz-adv-x="547" 
d="M63 0v564h147v-443h304v-121h-451zM288 561c20 5 42 8 60 8c68 0 99 -35 99 -77c2 -33 -20 -72 -47 -99h-96c25 31 35 50 35 72c0 17 -12 28 -29 26c-8 0 -16 -1 -22 -2v72z" />
    <glyph glyph-name="Lcedilla.small" unicode="&#xe0d3;" horiz-adv-x="547" 
d="M63 0v564h147v-443h304v-121h-451zM241 -41h93c-15 -73 -51 -134 -102 -181l-100 50c43 35 86 79 109 131z" />
    <glyph glyph-name="Lcommaaccent.small" unicode="&#xe0d2;" horiz-adv-x="547" 
d="M63 0v564h147v-443h304v-121h-451zM210 -54c20 5 42 8 60 8c68 0 99 -35 99 -77c2 -33 -20 -72 -47 -99h-96c25 31 35 50 35 72c0 17 -12 28 -29 26c-8 0 -16 -1 -22 -2v72z" />
    <glyph glyph-name="Ldot.small" unicode="&#xe0d6;" horiz-adv-x="547" 
d="M63 0v564h147v-443h304v-121h-451zM401 285v114h115v-114h-115z" />
    <glyph glyph-name="Ldotbelow.small" unicode="&#xe0d4;" horiz-adv-x="547" 
d="M63 0v564h147v-443h304v-121h-451zM234 -188v114h115v-114h-115z" />
    <glyph glyph-name="Ldotbelowmacron.small" unicode="&#xe0d5;" horiz-adv-x="547" 
d="M63 0v564h147v-443h304v-121h-451zM234 -188v114h115v-114h-115zM-26 653v90h328v-90h-328z" />
    <glyph glyph-name="Lslash.small" unicode="&#xe0d7;" horiz-adv-x="567" 
d="M-1 149v103l84 45v267h147v-187l134 72v-105l-134 -72v-151h304v-121h-451v194z" />
    <glyph glyph-name="Mdotbelow.small" unicode="&#xe0da;" horiz-adv-x="760" 
d="M63 0v564h139l178 -230l179 230h138v-564h-141v362l-176 -222l-175 221v-361h-142zM324 -188v114h115v-114h-115z" />
    <glyph glyph-name="Mmacron.small" unicode="&#xe0d8;" horiz-adv-x="760" 
d="M63 0v564h139l178 -230l179 230h138v-564h-141v362l-176 -222l-175 221v-361h-142zM217 653v90h328v-90h-328z" />
    <glyph glyph-name="Mcedilla.small" unicode="&#xe0d9;" horiz-adv-x="760" 
d="M63 0v564h139l178 -230l179 230h138v-564h-141v362l-176 -222l-175 221v-361h-142zM331 -41h93c-15 -73 -51 -134 -102 -181l-100 50c43 35 86 79 109 131z" />
    <glyph glyph-name="Nacute.small" unicode="&#xe0db;" horiz-adv-x="653" 
d="M259 618l128 186l98 -65l-134 -121h-92zM63 0v564h136l251 -342v342h140v-564h-135l-252 342v-342h-140z" />
    <glyph glyph-name="Ngrave.small" unicode="&#xe0dc;" horiz-adv-x="653" 
d="M63 0v564h136l251 -342v342h140v-564h-135l-252 342v-342h-140zM307 618l-134 121l99 65l127 -186h-92z" />
    <glyph glyph-name="Ncaron.small" unicode="&#xe0df;" horiz-adv-x="653" 
d="M247 618l-117 160h107l89 -90h3l88 90h108l-117 -160h-161zM63 0v564h136l251 -342v342h140v-564h-135l-252 342v-342h-140z" />
    <glyph glyph-name="Ncommaaccent.small" unicode="&#xe0e2;" horiz-adv-x="653" 
d="M259 -54c20 5 42 8 60 8c68 0 99 -35 99 -77c2 -33 -20 -72 -47 -99h-96c25 31 35 50 35 72c0 17 -12 28 -29 26c-8 0 -16 -1 -22 -2v72zM63 0v564h136l251 -342v342h140v-564h-135l-252 342v-342h-140z" />
    <glyph glyph-name="Ndescender.small" unicode="&#xe0e5;" horiz-adv-x="653" 
d="M63 0v564h136l251 -342v342h140v-764h-140v207l-247 335v-342h-140z" />
    <glyph glyph-name="Ndieresis.small" unicode="&#xe0dd;" horiz-adv-x="653" 
d="M385 641v114h115v-114h-115zM156 641v114h117v-114h-117zM63 0v564h136l251 -342v342h140v-564h-135l-252 342v-342h-140z" />
    <glyph glyph-name="Ndotaccent.small" unicode="&#xe0e1;" horiz-adv-x="653" 
d="M63 0v564h136l251 -342v342h140v-564h-135l-252 342v-342h-140zM271 641v114h115v-114h-115z" />
    <glyph glyph-name="Ndotbelow.small" unicode="&#xe0e4;" horiz-adv-x="653" 
d="M271 -188v114h115v-114h-115zM63 0v564h136l251 -342v342h140v-564h-135l-252 342v-342h-140z" />
    <glyph glyph-name="Nmacron.small" unicode="&#xe0e0;" horiz-adv-x="653" 
d="M164 653v90h328v-90h-328zM63 0v564h136l251 -342v342h140v-564h-135l-252 342v-342h-140z" />
    <glyph glyph-name="Ntilde.small" unicode="&#xe0de;" horiz-adv-x="653" 
d="M63 0v564h136l251 -342v342h140v-564h-135l-252 342v-342h-140zM153 630c-9 91 36 143 108 143c64 0 89 -53 128 -53c24 0 35 15 31 46h82c10 -91 -35 -143 -107 -143c-63 0 -89 52 -128 52c-24 0 -35 -14 -32 -45h-82z" />
    <glyph glyph-name="Ncedilla.small" unicode="&#xe0e3;" horiz-adv-x="653" 
d="M283 -41h93c-15 -73 -51 -134 -102 -181l-100 50c43 35 86 79 109 131zM63 0v564h136l251 -342v342h140v-564h-135l-252 342v-342h-140z" />
    <glyph glyph-name="Oacute.small" unicode="&#xe0e6;" horiz-adv-x="696" 
d="M275 618l128 186l98 -65l-134 -121h-92zM40 286c0 171 137 292 309 292c170 0 307 -121 307 -292c0 -181 -135 -298 -307 -298c-174 0 -309 117 -309 298zM188 286c0 -108 68 -181 161 -181c91 0 159 73 159 181c0 101 -69 174 -159 174c-92 0 -161 -73 -161 -174z" />
    <glyph glyph-name="Ograve.small" unicode="&#xe0e7;" horiz-adv-x="696" 
d="M326 618l-134 121l99 65l127 -186h-92zM40 286c0 171 137 292 309 292c170 0 307 -121 307 -292c0 -181 -135 -298 -307 -298c-174 0 -309 117 -309 298zM188 286c0 -108 68 -181 161 -181c91 0 159 73 159 181c0 101 -69 174 -159 174c-92 0 -161 -73 -161 -174z" />
    <glyph glyph-name="Ohungarumlaut.small" unicode="&#xe0ef;" horiz-adv-x="696" 
d="M201 618l118 186l100 -62l-129 -124h-89zM396 618l118 186l99 -62l-128 -124h-89zM40 286c0 171 137 292 309 292c170 0 307 -121 307 -292c0 -181 -135 -298 -307 -298c-174 0 -309 117 -309 298zM188 286c0 -108 68 -181 161 -181c91 0 159 73 159 181
c0 101 -69 174 -159 174c-92 0 -161 -73 -161 -174z" />
    <glyph glyph-name="Odoublegrave.small" unicode="&#xe0f0;" horiz-adv-x="696" 
d="M191 804l119 -186h-90l-128 124zM386 804l118 -186h-90l-127 124zM40 286c0 171 137 292 309 292c170 0 307 -121 307 -292c0 -181 -135 -298 -307 -298c-174 0 -309 117 -309 298zM188 286c0 -108 68 -181 161 -181c91 0 159 73 159 181c0 101 -69 174 -159 174
c-92 0 -161 -73 -161 -174z" />
    <glyph glyph-name="Obreve.small" unicode="&#xe0ed;" horiz-adv-x="696" 
d="M40 286c0 171 137 292 309 292c170 0 307 -121 307 -292c0 -181 -135 -298 -307 -298c-174 0 -309 117 -309 298zM188 286c0 -108 68 -181 161 -181c91 0 159 73 159 181c0 101 -69 174 -159 174c-92 0 -161 -73 -161 -174zM350 608c-104 0 -165 66 -175 170h92
c7 -50 37 -79 83 -79c45 0 75 29 82 79h90c-7 -105 -73 -170 -172 -170z" />
    <glyph glyph-name="Oinvertedbreve.small" unicode="&#xe0ee;" horiz-adv-x="696" 
d="M348 787c102 0 165 -66 174 -169h-92c-7 49 -36 78 -82 78c-45 0 -76 -29 -83 -78h-90c7 104 72 169 173 169zM40 286c0 171 137 292 309 292c170 0 307 -121 307 -292c0 -181 -135 -298 -307 -298c-174 0 -309 117 -309 298zM188 286c0 -108 68 -181 161 -181
c91 0 159 73 159 181c0 101 -69 174 -159 174c-92 0 -161 -73 -161 -174z" />
    <glyph glyph-name="Ocaron.small" unicode="&#xe0eb;" horiz-adv-x="696" 
d="M268 618l-117 160h107l89 -90h3l88 90h108l-117 -160h-161zM40 286c0 171 137 292 309 292c170 0 307 -121 307 -292c0 -181 -135 -298 -307 -298c-174 0 -309 117 -309 298zM188 286c0 -108 68 -181 161 -181c91 0 159 73 159 181c0 101 -69 174 -159 174
c-92 0 -161 -73 -161 -174z" />
    <glyph glyph-name="Ocedilla.small" unicode="&#xe0f5;" horiz-adv-x="696" 
d="M298 -41h93c-15 -73 -51 -134 -102 -181l-100 50c43 35 86 79 109 131zM40 286c0 171 137 292 309 292c170 0 307 -121 307 -292c0 -181 -135 -298 -307 -298c-174 0 -309 117 -309 298zM188 286c0 -108 68 -181 161 -181c91 0 159 73 159 181c0 101 -69 174 -159 174
c-92 0 -161 -73 -161 -174z" />
    <glyph glyph-name="Ocircumflex.small" unicode="&#xe0e8;" horiz-adv-x="696" 
d="M151 618l117 160h161l117 -160h-108l-88 90h-3l-89 -90h-107zM40 286c0 171 137 292 309 292c170 0 307 -121 307 -292c0 -181 -135 -298 -307 -298c-174 0 -309 117 -309 298zM188 286c0 -108 68 -181 161 -181c91 0 159 73 159 181c0 101 -69 174 -159 174
c-92 0 -161 -73 -161 -174z" />
    <glyph glyph-name="Ocommaturnedabove.small" unicode="&#xe0f1;" horiz-adv-x="696" 
d="M435 694v-72c-20 -5 -42 -8 -61 -8c-67 0 -98 34 -98 77c-1 33 19 72 46 99h98c-26 -31 -37 -50 -37 -72c0 -17 12 -27 30 -27c8 0 14 2 22 3zM40 286c0 171 137 292 309 292c170 0 307 -121 307 -292c0 -181 -135 -298 -307 -298c-174 0 -309 117 -309 298zM188 286
c0 -108 68 -181 161 -181c91 0 159 73 159 181c0 101 -69 174 -159 174c-92 0 -161 -73 -161 -174z" />
    <glyph glyph-name="Odieresis.small" unicode="&#xe0e9;" horiz-adv-x="696" 
d="M407 641v114h115v-114h-115zM178 641v114h117v-114h-117zM40 286c0 171 137 292 309 292c170 0 307 -121 307 -292c0 -181 -135 -298 -307 -298c-174 0 -309 117 -309 298zM188 286c0 -108 68 -181 161 -181c91 0 159 73 159 181c0 101 -69 174 -159 174
c-92 0 -161 -73 -161 -174z" />
    <glyph glyph-name="Odotabove.small" unicode="&#xe0f3;" horiz-adv-x="696" 
d="M293 641v114h115v-114h-115zM40 286c0 171 137 292 309 292c170 0 307 -121 307 -292c0 -181 -135 -298 -307 -298c-174 0 -309 117 -309 298zM188 286c0 -108 68 -181 161 -181c91 0 159 73 159 181c0 101 -69 174 -159 174c-92 0 -161 -73 -161 -174z" />
    <glyph glyph-name="Odotabovemacron.small" unicode="&#xe0f4;" horiz-adv-x="696" 
d="M185 804v90h328v-90h-328zM293 634v114h115v-114h-115zM40 286c0 171 137 292 309 292c170 0 307 -121 307 -292c0 -181 -135 -298 -307 -298c-174 0 -309 117 -309 298zM188 286c0 -108 68 -181 161 -181c91 0 159 73 159 181c0 101 -69 174 -159 174
c-92 0 -161 -73 -161 -174z" />
    <glyph glyph-name="Odotbelow.small" unicode="&#xe0f6;" horiz-adv-x="696" 
d="M293 -188v114h115v-114h-115zM40 286c0 171 137 292 309 292c170 0 307 -121 307 -292c0 -181 -135 -298 -307 -298c-174 0 -309 117 -309 298zM188 286c0 -108 68 -181 161 -181c91 0 159 73 159 181c0 101 -69 174 -159 174c-92 0 -161 -73 -161 -174z" />
    <glyph glyph-name="Omacron.small" unicode="&#xe0ec;" horiz-adv-x="696" 
d="M185 653v90h328v-90h-328zM40 286c0 171 137 292 309 292c170 0 307 -121 307 -292c0 -181 -135 -298 -307 -298c-174 0 -309 117 -309 298zM188 286c0 -108 68 -181 161 -181c91 0 159 73 159 181c0 101 -69 174 -159 174c-92 0 -161 -73 -161 -174z" />
    <glyph glyph-name="Otilde.small" unicode="&#xe0ea;" horiz-adv-x="696" 
d="M40 286c0 171 137 292 309 292c170 0 307 -121 307 -292c0 -181 -135 -298 -307 -298c-174 0 -309 117 -309 298zM188 286c0 -108 68 -181 161 -181c91 0 159 73 159 181c0 101 -69 174 -159 174c-92 0 -161 -73 -161 -174zM174 630c-9 91 36 143 108 143
c64 0 89 -53 128 -53c24 0 35 15 31 46h82c10 -91 -35 -143 -107 -143c-63 0 -89 52 -128 52c-24 0 -35 -14 -32 -45h-82z" />
    <glyph glyph-name="Otildemacron.small" unicode="&#xe0f2;" horiz-adv-x="696" 
d="M40 286c0 171 137 292 309 292c170 0 307 -121 307 -292c0 -181 -135 -298 -307 -298c-174 0 -309 117 -309 298zM188 286c0 -108 68 -181 161 -181c91 0 159 73 159 181c0 101 -69 174 -159 174c-92 0 -161 -73 -161 -174zM185 804v90h328v-90h-328zM174 621
c-9 91 36 143 108 143c64 0 89 -53 128 -53c24 0 35 15 31 46h82c10 -91 -35 -143 -107 -143c-63 0 -89 52 -128 52c-24 0 -35 -14 -32 -45h-82z" />
    <glyph glyph-name="Ounderlineaccent.small" unicode="&#xe0f9;" horiz-adv-x="696" 
d="M295 -206v160h112v-160h-112zM40 286c0 171 137 292 309 292c170 0 307 -121 307 -292c0 -181 -135 -298 -307 -298c-174 0 -309 117 -309 298zM188 286c0 -108 68 -181 161 -181c91 0 159 73 159 181c0 101 -69 174 -159 174c-92 0 -161 -73 -161 -174z" />
    <glyph glyph-name="Oogonek.small" unicode="&#xe0f7;" horiz-adv-x="696" 
d="M40 286c0 171 137 292 309 292c170 0 307 -121 307 -292c0 -118 -56 -212 -153 -263c-38 -20 -108 -45 -108 -99c0 -23 16 -36 45 -36c19 0 36 4 49 11l3 -3v-99c-24 -8 -50 -12 -79 -12c-76 0 -123 40 -123 101c0 38 18 73 49 102h-3c-166 5 -296 120 -296 298zM188 286
c0 -108 68 -181 161 -181c91 0 159 73 159 181c0 101 -69 174 -159 174c-92 0 -161 -73 -161 -174z" />
    <glyph glyph-name="Oogonekmacron.small" unicode="&#xe0f8;" horiz-adv-x="696" 
d="M40 286c0 171 137 292 309 292c170 0 307 -121 307 -292c0 -118 -56 -212 -153 -263c-38 -20 -108 -45 -108 -99c0 -23 16 -36 45 -36c19 0 36 4 49 11l3 -3v-99c-24 -8 -50 -12 -79 -12c-76 0 -123 40 -123 101c0 38 18 73 49 102h-3c-166 5 -296 120 -296 298zM188 286
c0 -108 68 -181 161 -181c91 0 159 73 159 181c0 101 -69 174 -159 174c-92 0 -161 -73 -161 -174zM185 653v90h328v-90h-328z" />
    <glyph glyph-name="Oslash.small" unicode="&#xe0fa;" horiz-adv-x="696" 
d="M40 286c0 171 137 292 309 292c56 0 108 -13 153 -37l52 67l65 -48l-52 -65c55 -51 89 -124 89 -209c0 -181 -135 -298 -307 -298c-58 0 -111 13 -157 36l-57 -74l-65 47l59 72c-55 52 -89 127 -89 217zM508 286c0 41 -12 77 -31 106l-209 -266c23 -14 51 -21 81 -21
c91 0 159 73 159 181zM188 286c0 -44 11 -82 31 -112l209 264c-23 14 -50 22 -79 22c-92 0 -161 -73 -161 -174z" />
    <glyph glyph-name="Oslashacute.small" unicode="&#xe0fb;" horiz-adv-x="696" 
d="M40 286c0 171 137 292 309 292c56 0 108 -13 153 -37l52 67l65 -48l-52 -65c55 -51 89 -124 89 -209c0 -181 -135 -298 -307 -298c-58 0 -111 13 -157 36l-57 -74l-65 47l59 72c-55 52 -89 127 -89 217zM508 286c0 41 -12 77 -31 106l-209 -266c23 -14 51 -21 81 -21
c91 0 159 73 159 181zM188 286c0 -44 11 -82 31 -112l209 264c-23 14 -50 22 -79 22c-92 0 -161 -73 -161 -174zM275 618l128 186l98 -65l-134 -121h-92z" />
    <glyph glyph-name="barredO.small" unicode="&#xe0fc;" horiz-adv-x="696" 
d="M40 286c0 171 137 292 309 292c170 0 307 -121 307 -292c0 -181 -135 -298 -307 -298c-174 0 -309 117 -309 298zM349 460c-81 0 -144 -56 -158 -138h314c-15 82 -77 138 -156 138zM349 105c78 0 139 54 155 138h-312c15 -84 77 -138 157 -138z" />
    <glyph glyph-name="OE.small" unicode="&#xe0fd;" horiz-adv-x="999" 
d="M37 287c0 169 138 288 307 288c66 0 124 -21 167 -60v49h436v-116h-289v-111h256v-104h-256v-117h293v-116h-440v49c-43 -39 -101 -61 -167 -61c-172 0 -307 118 -307 299zM186 287c0 -108 67 -183 162 -183s163 75 163 183c0 101 -70 172 -163 172
c-92 0 -162 -71 -162 -172z" />
    <glyph glyph-name="Pmacron.small" unicode="&#xe0fe;" horiz-adv-x="611" 
d="M211 290h111c67 0 95 35 95 79c0 46 -28 81 -95 81h-111v-160zM63 0v564h266c173 0 234 -97 234 -194c0 -95 -61 -193 -234 -193h-118v-177h-148zM139 653v90h328v-90h-328z" />
    <glyph glyph-name="Racute.small" unicode="&#xe0ff;" horiz-adv-x="627" 
d="M63 0v564h276c174 0 235 -97 235 -194c0 -65 -28 -126 -101 -159l106 -211h-153l-84 187h-3h-128v-187h-148zM211 291h121c67 0 96 35 96 80c0 44 -29 79 -96 79h-121v-159zM235 618l128 186l98 -65l-134 -121h-92z" />
    <glyph glyph-name="Rdoublegrave.small" unicode="&#xe102;" horiz-adv-x="627" 
d="M63 0v564h276c174 0 235 -97 235 -194c0 -65 -28 -126 -101 -159l106 -211h-153l-84 187h-3h-128v-187h-148zM211 291h121c67 0 96 35 96 80c0 44 -29 79 -96 79h-121v-159zM147 804l119 -186h-90l-128 124zM342 804l118 -186h-90l-127 124z" />
    <glyph glyph-name="Rcaron.small" unicode="&#xe100;" horiz-adv-x="627" 
d="M63 0v564h276c174 0 235 -97 235 -194c0 -65 -28 -126 -101 -159l106 -211h-153l-84 187h-3h-128v-187h-148zM230 618l-117 160h107l89 -90h3l88 90h108l-117 -160h-161zM211 291h121c67 0 96 35 96 80c0 44 -29 79 -96 79h-121v-159z" />
    <glyph glyph-name="Rcedilla.small" unicode="&#xe104;" horiz-adv-x="627" 
d="M63 0v564h276c174 0 235 -97 235 -194c0 -65 -28 -126 -101 -159l106 -211h-153l-84 187h-3h-128v-187h-148zM211 291h121c67 0 96 35 96 80c0 44 -29 79 -96 79h-121v-159zM264 -41h93c-15 -73 -51 -134 -102 -181l-100 50c43 35 86 79 109 131z" />
    <glyph glyph-name="Rcommaaccent.small" unicode="&#xe103;" horiz-adv-x="627" 
d="M63 0v564h276c174 0 235 -97 235 -194c0 -65 -28 -126 -101 -159l106 -211h-153l-84 187h-3h-128v-187h-148zM211 291h121c67 0 96 35 96 80c0 44 -29 79 -96 79h-121v-159zM232 -54c20 5 42 8 60 8c68 0 99 -35 99 -77c2 -33 -20 -72 -47 -99h-96c25 31 35 50 35 72
c0 17 -12 28 -29 26c-8 0 -16 -1 -22 -2v72z" />
    <glyph glyph-name="Rdotbelow.small" unicode="&#xe105;" horiz-adv-x="627" 
d="M63 0v564h276c174 0 235 -97 235 -194c0 -65 -28 -126 -101 -159l106 -211h-153l-84 187h-3h-128v-187h-148zM211 291h121c67 0 96 35 96 80c0 44 -29 79 -96 79h-121v-159zM255 -188v114h115v-114h-115z" />
    <glyph glyph-name="Rdotbelowmacron.small" unicode="&#xe106;" horiz-adv-x="627" 
d="M63 0v564h276c174 0 235 -97 235 -194c0 -65 -28 -126 -101 -159l106 -211h-153l-84 187h-3h-128v-187h-148zM211 291h121c67 0 96 35 96 80c0 44 -29 79 -96 79h-121v-159zM148 653v90h328v-90h-328zM255 -188v114h115v-114h-115z" />
    <glyph glyph-name="Rinvertedbreve.small" unicode="&#xe101;" horiz-adv-x="627" 
d="M63 0v564h276c174 0 235 -97 235 -194c0 -65 -28 -126 -101 -159l106 -211h-153l-84 187h-131v-187h-148zM311 787c102 0 165 -66 174 -169h-92c-7 49 -36 78 -82 78c-45 0 -76 -29 -83 -78h-90c7 104 72 169 173 169zM211 291h121c67 0 96 35 96 80c0 44 -29 79 -96 79
h-121v-159z" />
    <glyph glyph-name="Sacute.small" unicode="&#xe107;" horiz-adv-x="560" 
d="M209 618l128 186l98 -65l-134 -121h-92zM36 54l67 104c52 -33 120 -54 177 -54c65 0 95 22 95 54c0 101 -323 38 -323 246c0 101 86 174 235 174c75 0 153 -18 217 -49l-56 -105c-52 25 -117 39 -164 39c-55 0 -85 -22 -85 -51c0 -98 322 -29 322 -250
c0 -99 -78 -174 -239 -174c-93 0 -182 27 -246 66z" />
    <glyph glyph-name="Scaron.small" unicode="&#xe109;" horiz-adv-x="560" 
d="M215 618l-117 160h107l89 -90h3l88 90h108l-117 -160h-161zM36 54l67 104c52 -33 120 -54 177 -54c65 0 95 22 95 54c0 101 -323 38 -323 246c0 101 86 174 235 174c75 0 153 -18 217 -49l-56 -105c-52 25 -117 39 -164 39c-55 0 -85 -22 -85 -51c0 -98 322 -29 322 -250
c0 -99 -78 -174 -239 -174c-93 0 -182 27 -246 66z" />
    <glyph glyph-name="Scedilla.small" unicode="&#xe10b;" horiz-adv-x="560" 
d="M120 -172c52 41 103 98 121 162c-78 6 -151 31 -205 64l67 104c52 -33 120 -54 177 -54c65 0 95 22 95 54c0 101 -323 38 -323 246c0 101 86 174 235 174c75 0 153 -18 217 -49l-56 -105c-52 25 -117 39 -164 39c-55 0 -85 -22 -85 -51c0 -98 322 -29 322 -250
c0 -89 -63 -159 -193 -172c-10 -85 -49 -158 -108 -212z" />
    <glyph glyph-name="Scircumflex.small" unicode="&#xe108;" horiz-adv-x="560" 
d="M92 618l117 160h161l117 -160h-108l-88 90h-3l-89 -90h-107zM36 54l67 104c52 -33 120 -54 177 -54c65 0 95 22 95 54c0 101 -323 38 -323 246c0 101 86 174 235 174c75 0 153 -18 217 -49l-56 -105c-52 25 -117 39 -164 39c-55 0 -85 -22 -85 -51
c0 -98 322 -29 322 -250c0 -99 -78 -174 -239 -174c-93 0 -182 27 -246 66z" />
    <glyph glyph-name="Scommaaccent.small" unicode="&#xe10a;" horiz-adv-x="560" 
d="M199 -54c20 5 42 8 60 8c68 0 99 -35 99 -77c2 -33 -20 -72 -47 -99h-96c25 31 35 50 35 72c0 17 -12 28 -29 26c-8 0 -16 -1 -22 -2v72zM36 54l67 104c52 -33 120 -54 177 -54c65 0 95 22 95 54c0 101 -323 38 -323 246c0 101 86 174 235 174c75 0 153 -18 217 -49
l-56 -105c-52 25 -117 39 -164 39c-55 0 -85 -22 -85 -51c0 -98 322 -29 322 -250c0 -99 -78 -174 -239 -174c-93 0 -182 27 -246 66z" />
    <glyph glyph-name="Sdotbelow.small" unicode="&#xe10c;" horiz-adv-x="560" 
d="M36 54l67 104c52 -33 120 -54 177 -54c65 0 95 22 95 54c0 101 -323 38 -323 246c0 101 86 174 235 174c75 0 153 -18 217 -49l-56 -105c-52 25 -117 39 -164 39c-55 0 -85 -22 -85 -51c0 -98 322 -29 322 -250c0 -99 -78 -174 -239 -174c-93 0 -182 27 -246 66z
M223 -188v114h115v-114h-115z" />
    <glyph glyph-name="germandbls.small" unicode="&#xe10d;" horiz-adv-x="652" 
d="M63 0v370c0 141 120 208 265 208c148 0 247 -67 247 -167c0 -60 -39 -101 -101 -121v-1c77 -15 138 -60 138 -137c0 -104 -91 -163 -215 -163c-40 0 -84 6 -121 16l18 103c25 -7 57 -11 80 -11c54 0 93 23 93 68c0 48 -41 69 -114 69h-49v103h26c69 0 102 27 102 67
s-35 69 -104 69c-68 0 -117 -34 -117 -108v-365h-148z" />
    <glyph glyph-name="Tbar.small" unicode="&#xe112;" horiz-adv-x="587" 
d="M95 208v85h125v151h-194v120h535v-120h-194v-151h125v-85h-125v-208h-147v208h-125z" />
    <glyph glyph-name="Tcaron.small" unicode="&#xe10e;" horiz-adv-x="587" 
d="M220 0v444h-194v120h535v-120h-194v-444h-147zM213 618l-117 160h107l89 -90h3l88 90h108l-117 -160h-161z" />
    <glyph glyph-name="Tcommaaccent.small" unicode="&#xe10f;" horiz-adv-x="587" 
d="M220 0v444h-194v120h535v-120h-194v-444h-147zM222 -54c20 5 42 8 60 8c68 0 99 -35 99 -77c2 -33 -20 -72 -47 -99h-96c25 31 35 50 35 72c0 17 -12 28 -29 26c-8 0 -16 -1 -22 -2v72z" />
    <glyph glyph-name="Tcedilla.small" unicode="&#xe110;" horiz-adv-x="587" 
d="M220 0v444h-194v120h535v-120h-194v-444h-147zM245 -41h93c-15 -73 -51 -134 -102 -181l-100 50c43 35 86 79 109 131z" />
    <glyph glyph-name="Tdotbelow.small" unicode="&#xe111;" horiz-adv-x="587" 
d="M220 0v444h-194v120h535v-120h-194v-444h-147zM238 -188v114h115v-114h-115z" />
    <glyph glyph-name="Uacute.small" unicode="&#xe113;" horiz-adv-x="628" 
d="M59 213v351h148v-351c0 -70 43 -108 107 -108c63 0 107 38 107 108v351h148v-351c0 -148 -109 -226 -255 -226s-255 78 -255 226zM245 618l128 186l98 -65l-134 -121h-92z" />
    <glyph glyph-name="Ugrave.small" unicode="&#xe114;" horiz-adv-x="628" 
d="M59 213v351h148v-351c0 -70 43 -108 107 -108c63 0 107 38 107 108v351h148v-351c0 -148 -109 -226 -255 -226s-255 78 -255 226zM296 618l-134 121l99 65l127 -186h-92z" />
    <glyph glyph-name="Uhungarumlaut.small" unicode="&#xe11d;" horiz-adv-x="628" 
d="M59 213v351h148v-351c0 -70 43 -108 107 -108c63 0 107 38 107 108v351h148v-351c0 -148 -109 -226 -255 -226s-255 78 -255 226zM166 618l118 186l100 -62l-129 -124h-89zM361 618l118 186l99 -62l-128 -124h-89z" />
    <glyph glyph-name="Udoublegrave.small" unicode="&#xe11e;" horiz-adv-x="628" 
d="M59 213v351h148v-351c0 -70 43 -108 107 -108c63 0 107 38 107 108v351h148v-351c0 -148 -109 -226 -255 -226s-255 78 -255 226zM156 804l119 -186h-90l-128 124zM351 804l118 -186h-90l-127 124z" />
    <glyph glyph-name="Ubreve.small" unicode="&#xe11b;" horiz-adv-x="628" 
d="M59 213v351h148v-351c0 -70 43 -108 107 -108c63 0 107 38 107 108v351h148v-351c0 -148 -109 -226 -255 -226s-255 78 -255 226zM316 608c-104 0 -165 66 -175 170h92c7 -50 37 -79 83 -79c45 0 75 29 82 79h90c-7 -105 -73 -170 -172 -170z" />
    <glyph glyph-name="Uinvertedbreve.small" unicode="&#xe11c;" horiz-adv-x="628" 
d="M59 213v351h148v-351c0 -70 43 -108 107 -108c63 0 107 38 107 108v351h148v-351c0 -148 -109 -226 -255 -226s-255 78 -255 226zM314 787c102 0 165 -66 174 -169h-92c-7 49 -36 78 -82 78c-45 0 -76 -29 -83 -78h-90c7 104 72 169 173 169z" />
    <glyph glyph-name="Ucaron.small" unicode="&#xe119;" horiz-adv-x="628" 
d="M234 618l-117 160h107l89 -90h3l88 90h108l-117 -160h-161zM59 213v351h148v-351c0 -70 43 -108 107 -108c63 0 107 38 107 108v351h148v-351c0 -148 -109 -226 -255 -226s-255 78 -255 226z" />
    <glyph glyph-name="Ucircumflex.small" unicode="&#xe115;" horiz-adv-x="628" 
d="M117 618l117 160h161l117 -160h-108l-88 90h-3l-89 -90h-107zM59 213v351h148v-351c0 -70 43 -108 107 -108c63 0 107 38 107 108v351h148v-351c0 -148 -109 -226 -255 -226s-255 78 -255 226z" />
    <glyph glyph-name="Udieresis.small" unicode="&#xe116;" horiz-adv-x="628" 
d="M372 641v114h115v-114h-115zM143 641v114h117v-114h-117zM59 213v351h148v-351c0 -70 43 -108 107 -108c63 0 107 38 107 108v351h148v-351c0 -148 -109 -226 -255 -226s-255 78 -255 226z" />
    <glyph glyph-name="Udotbelow.small" unicode="&#xe11f;" horiz-adv-x="628" 
d="M59 213v351h148v-351c0 -70 43 -108 107 -108c63 0 107 38 107 108v351h148v-351c0 -148 -109 -226 -255 -226s-255 78 -255 226zM259 -188v114h115v-114h-115z" />
    <glyph glyph-name="Umacron.small" unicode="&#xe121;" horiz-adv-x="628" 
d="M59 213v351h148v-351c0 -70 43 -108 107 -108c63 0 107 38 107 108v351h148v-351c0 -148 -109 -226 -255 -226s-255 78 -255 226zM151 653v90h328v-90h-328z" />
    <glyph glyph-name="Umacronbelow.small" unicode="&#xe11a;" horiz-adv-x="628" 
d="M59 213v351h148v-351c0 -70 43 -108 107 -108c63 0 107 38 107 108v351h148v-351c0 -148 -109 -226 -255 -226s-255 78 -255 226zM151 -192v90h328v-90h-328z" />
    <glyph glyph-name="Uogonek.small" unicode="&#xe120;" horiz-adv-x="628" 
d="M458 -104v-99c-23 -8 -50 -12 -78 -12c-77 0 -124 40 -124 101c0 38 17 73 48 101h-2c-140 5 -243 82 -243 226v351h148v-351c0 -70 43 -108 107 -108c63 0 107 38 107 108v351h148v-351c0 -88 -39 -153 -100 -189c-49 -28 -108 -53 -108 -100c0 -23 16 -36 45 -36
c19 0 36 4 48 11z" />
    <glyph glyph-name="Uring.small" unicode="&#xe118;" horiz-adv-x="628" 
d="M59 213v351h148v-351c0 -70 43 -108 107 -108c63 0 107 38 107 108v351h148v-351c0 -148 -109 -226 -255 -226s-255 78 -255 226zM316 612c-66 0 -120 48 -120 114c0 67 54 116 120 116s120 -49 120 -116c0 -66 -54 -114 -120 -114zM316 664c34 0 62 28 62 62
c0 36 -28 63 -62 63c-35 0 -62 -27 -62 -63c0 -34 27 -62 62 -62z" />
    <glyph glyph-name="Utilde.small" unicode="&#xe117;" horiz-adv-x="628" 
d="M59 213v351h148v-351c0 -70 43 -108 107 -108c63 0 107 38 107 108v351h148v-351c0 -148 -109 -226 -255 -226s-255 78 -255 226zM140 630c-9 91 36 143 108 143c64 0 89 -53 128 -53c24 0 35 15 31 46h82c10 -91 -35 -143 -107 -143c-63 0 -89 52 -128 52
c-24 0 -35 -14 -32 -45h-82z" />
    <glyph glyph-name="Wacute.small" unicode="&#xe122;" horiz-adv-x="929" 
d="M396 618l128 186l98 -65l-134 -121h-92zM206 0l-187 564h150l115 -370h2l110 370h144l106 -372h2l117 372h144l-186 -564h-144l-115 369h-2l-111 -369h-145z" />
    <glyph glyph-name="Wcircumflex.small" unicode="&#xe124;" horiz-adv-x="929" 
d="M267 618l117 160h161l117 -160h-108l-88 90h-3l-89 -90h-107zM206 0l-187 564h150l115 -370h2l110 370h144l106 -372h2l117 372h144l-186 -564h-144l-115 369h-2l-111 -369h-145z" />
    <glyph glyph-name="Wdieresis.small" unicode="&#xe125;" horiz-adv-x="929" 
d="M523 641v114h115v-114h-115zM294 641v114h117v-114h-117zM206 0l-187 564h150l115 -370h2l110 370h144l106 -372h2l117 372h144l-186 -564h-144l-115 369h-2l-111 -369h-145z" />
    <glyph glyph-name="Wgrave.small" unicode="&#xe123;" horiz-adv-x="929" 
d="M447 618l-134 121l99 65l127 -186h-92zM206 0l-187 564h150l115 -370h2l110 370h144l106 -372h2l117 372h144l-186 -564h-144l-115 369h-2l-111 -369h-145z" />
    <glyph glyph-name="Yacute.small" unicode="&#xe126;" horiz-adv-x="633" 
d="M247 618l128 186l98 -65l-134 -121h-92zM243 0v212l-230 352h173l130 -215h2l129 215h173l-230 -352v-212h-147z" />
    <glyph glyph-name="Ycircumflex.small" unicode="&#xe128;" horiz-adv-x="633" 
d="M119 618l117 160h161l117 -160h-108l-88 90h-3l-89 -90h-107zM243 0v212l-230 352h173l130 -215h2l129 215h173l-230 -352v-212h-147z" />
    <glyph glyph-name="Ydieresis.small" unicode="&#xe129;" horiz-adv-x="633" 
d="M375 641v114h115v-114h-115zM146 641v114h117v-114h-117zM243 0v212l-230 352h173l130 -215h2l129 215h173l-230 -352v-212h-147z" />
    <glyph glyph-name="Ygrave.small" unicode="&#xe127;" horiz-adv-x="633" 
d="M243 0v212l-230 352h173l130 -215h2l129 215h173l-230 -352v-212h-147zM298 618l-134 121l99 65l127 -186h-92z" />
    <glyph glyph-name="Ytilde.small" unicode="&#xe12a;" horiz-adv-x="633" 
d="M243 0v212l-230 352h173l130 -215h2l129 215h173l-230 -352v-212h-147zM143 630c-9 91 36 143 108 143c64 0 89 -53 128 -53c24 0 35 15 31 46h82c10 -91 -35 -143 -107 -143c-63 0 -89 52 -128 52c-24 0 -35 -14 -32 -45h-82z" />
    <glyph glyph-name="Zacute.small" unicode="&#xe12d;" horiz-adv-x="577" 
d="M218 618l128 186l98 -65l-134 -121h-92zM44 0v99l291 346h-292v119h485v-97l-291 -347h302v-120h-495z" />
    <glyph glyph-name="Zcaron.small" unicode="&#xe12e;" horiz-adv-x="577" 
d="M208 618l-117 160h107l89 -90h3l88 90h108l-117 -160h-161zM44 0v99l291 346h-292v119h485v-97l-291 -347h302v-120h-495z" />
    <glyph glyph-name="Zdotaccent.small" unicode="&#xe12f;" horiz-adv-x="577" 
d="M44 0v99l291 346h-292v119h485v-97l-291 -347h302v-120h-495zM226 641v114h115v-114h-115z" />
    <glyph glyph-name="Eth.small" unicode="&#xe131;" horiz-adv-x="667" 
d="M8 240v86h88v238h205c213 0 326 -105 326 -276c0 -179 -106 -288 -326 -288h-205v240h-88zM244 114h63c120 0 172 66 172 175c0 100 -57 163 -172 163h-63v-128h123v-83h-123v-127z" />
    <glyph glyph-name="Thorn.small" unicode="&#xe132;" horiz-adv-x="607" 
d="M64 0v564h147v-84h90c182 0 261 -87 261 -199c0 -116 -77 -204 -261 -204h-90v-77h-147zM293 366h-82v-174h82c83 0 121 32 121 89c0 55 -40 85 -121 85z" />
    <glyph glyph-name="Eng.small" unicode="&#xe971;" horiz-adv-x="653" 
d="M63 0v564h136l251 -342v342h140v-567c0 -142 -67 -207 -184 -207c-48 0 -86 11 -114 20l33 113c19 -5 38 -10 57 -10c44 0 68 19 68 75v18l-247 336v-342h-140z" />
    <glyph glyph-name="Ezh.small" unicode="&#xe133;" horiz-adv-x="568" 
d="M106 231l225 221h-293v112h472v-93l-244 -237c25 3 48 5 74 5c114 0 214 -76 214 -204c0 -161 -139 -245 -308 -245c-87 0 -172 23 -241 58l52 109c55 -28 120 -48 186 -48c100 0 163 49 163 129s-70 113 -159 113c-30 0 -60 -2 -89 -7z" />
    <glyph glyph-name="Ezhcaron.small" unicode="&#xe134;" horiz-adv-x="568" 
d="M198 620l-117 160h107l89 -90h3l88 90h108l-117 -160h-161zM106 231l225 221h-293v112h472v-93l-244 -237c25 3 48 5 74 5c114 0 214 -76 214 -204c0 -161 -139 -245 -308 -245c-87 0 -172 23 -241 58l52 109c55 -28 120 -48 186 -48c100 0 163 49 163 129
s-70 113 -159 113c-30 0 -60 -2 -89 -7z" />
    <glyph glyph-name="Schwa.small" unicode="&#xe135;" horiz-adv-x="643" 
d="M49 312h407c-9 91 -64 146 -159 146c-62 0 -113 -14 -167 -46l-64 95c76 50 155 70 238 70c171 0 300 -112 300 -292c0 -186 -130 -297 -298 -297c-176 0 -263 114 -263 263c0 19 3 41 6 61zM309 95c82 0 128 62 142 135h-270c1 -87 50 -135 128 -135z" />
    <glyph glyph-name="acute" unicode="&#xb4;" horiz-adv-x="588" 
d="M181 592l128 186l98 -65l-134 -121h-92z" />
    <glyph glyph-name="grave" unicode="`" horiz-adv-x="588" 
d="M316 592l-134 121l99 65l127 -186h-92z" />
    <glyph glyph-name="hungarumlaut" unicode="&#x2dd;" horiz-adv-x="626" 
d="M117 592l118 186l100 -62l-129 -124h-89zM312 592l118 186l99 -62l-128 -124h-89z" />
    <glyph glyph-name="doublegrave" unicode="&#x30f;" horiz-adv-x="626" 
d="M216 778l119 -186h-90l-128 124zM411 778l118 -186h-90l-127 124z" />
    <glyph glyph-name="circumflex" unicode="&#x2c6;" horiz-adv-x="625" 
d="M125 592l117 160h161l117 -160h-108l-88 90h-3l-89 -90h-107z" />
    <glyph glyph-name="caron" unicode="&#x2c7;" horiz-adv-x="625" 
d="M242 592l-117 160h107l89 -90h3l88 90h108l-117 -160h-161z" />
    <glyph glyph-name="dieresis" unicode="&#xa8;" horiz-adv-x="616" 
d="M365 615v114h115v-114h-115zM136 615v114h117v-114h-117z" />
    <glyph glyph-name="tilde" unicode="&#x2dc;" horiz-adv-x="616" 
d="M138 604c-9 91 36 143 108 143c64 0 89 -53 128 -53c24 0 35 15 31 46h82c10 -91 -35 -143 -107 -143c-63 0 -89 52 -128 52c-24 0 -35 -14 -32 -45h-82z" />
    <glyph glyph-name="ring" unicode="&#x2da;" horiz-adv-x="592" 
d="M303 586c-66 0 -120 48 -120 114c0 67 54 116 120 116s120 -49 120 -116c0 -66 -54 -114 -120 -114zM303 638c34 0 62 28 62 62c0 36 -28 63 -62 63c-35 0 -62 -27 -62 -63c0 -34 27 -62 62 -62z" />
    <glyph glyph-name="macron" unicode="&#xaf;" horiz-adv-x="609" 
d="M150 627v90h328v-90h-328z" />
    <glyph glyph-name="breve" unicode="&#x2d8;" horiz-adv-x="607" 
d="M315 582c-104 0 -165 66 -175 170h92c7 -50 37 -79 83 -79c45 0 75 29 82 79h90c-7 -105 -73 -170 -172 -170z" />
    <glyph glyph-name="invertedbreve" unicode="&#x311;" horiz-adv-x="607" 
d="M313 761c102 0 165 -66 174 -169h-92c-7 49 -36 78 -82 78c-45 0 -76 -29 -83 -78h-90c7 104 72 169 173 169z" />
    <glyph glyph-name="dotaccent" unicode="&#x2d9;" horiz-adv-x="575" 
d="M230 615v114h115v-114h-115z" />
    <glyph glyph-name="uni0323" unicode="&#x323;" horiz-adv-x="575" 
d="M230 -188v114h115v-114h-115z" />
    <glyph glyph-name="uni0329" unicode="&#x329;" horiz-adv-x="575" 
d="M232 -206v160h112v-160h-112z" />
    <glyph glyph-name="commaaccent" unicode="&#xf6c3;" horiz-adv-x="582" 
d="M211 -54c20 5 42 8 60 8c68 0 99 -35 99 -77c2 -33 -20 -72 -47 -99h-96c25 31 35 50 35 72c0 17 -12 28 -29 26c-8 0 -16 -1 -22 -2v72z" />
    <glyph glyph-name="cedilla" unicode="&#xb8;" horiz-adv-x="588" 
d="M193 -172c59 46 116 113 126 186h84c-5 -96 -45 -177 -110 -236z" />
    <glyph glyph-name="altcedilla" unicode="&#xe166;" horiz-adv-x="587" 
d="M300 -41h93c-15 -73 -51 -134 -102 -181l-100 50c43 35 86 79 109 131z" />
    <glyph glyph-name="ogonek" unicode="&#x2db;" horiz-adv-x="593" 
d="M381 -97v-98c-23 -8 -49 -12 -78 -12c-76 0 -123 40 -123 102c0 74 68 134 173 170l26 -39c-62 -33 -96 -61 -96 -96c0 -22 17 -36 46 -36c19 0 36 5 49 11z" />
    <glyph glyph-name="altogonek" unicode="&#xe969;" horiz-adv-x="593" 
d="M387 -97v-98c-23 -8 -49 -12 -78 -12c-73 0 -120 40 -120 101c0 71 66 129 163 147l22 -41c-57 -17 -82 -38 -82 -70c0 -23 17 -36 43 -36c19 0 36 5 49 11z" />
    <glyph glyph-name="commaabovecmb" unicode="&#x313;" horiz-adv-x="582" 
d="M371 668v-72c-20 -5 -42 -8 -61 -8c-67 0 -98 34 -98 77c-1 33 19 72 46 99h98c-26 -31 -37 -50 -37 -72c0 -17 12 -27 30 -27c8 0 14 2 22 3z" />
    <glyph glyph-name="acute.cap" unicode="&#xf6c9;" horiz-adv-x="602" 
d="M188 755l111 150l115 -67l-120 -83h-106z" />
    <glyph glyph-name="grave.cap" unicode="&#xf6ce;" horiz-adv-x="602" 
d="M307 755l-119 83l114 67l112 -150h-107z" />
    <glyph glyph-name="hungarumlaut.cap" unicode="&#xf6cf;" horiz-adv-x="641" 
d="M109 755l113 150l114 -67l-120 -83h-107zM304 755l113 150l114 -67l-120 -83h-107z" />
    <glyph glyph-name="doublegrave.cap" unicode="&#xe172;" horiz-adv-x="641" 
d="M334 755h-107l-120 83l115 67zM534 755h-107l-121 83l115 67z" />
    <glyph glyph-name="circumflex.cap" unicode="&#xeff7;" horiz-adv-x="624" 
d="M124 755l117 133h142l117 -133h-99l-88 65h-1l-89 -65h-99z" />
    <glyph glyph-name="caron.cap" unicode="&#xf6ca;" horiz-adv-x="624" 
d="M240 755l-116 133h99l87 -64h2l88 64h100l-117 -133h-143z" />
    <glyph glyph-name="dieresis.cap" unicode="&#xf6cb;" horiz-adv-x="625" 
d="M372 764v115h116v-115h-116zM137 764v115h116v-115h-116z" />
    <glyph glyph-name="tilde.cap" unicode="&#xeff5;" horiz-adv-x="624" 
d="M136 756c-10 88 35 140 107 140c66 0 92 -52 131 -52c24 0 35 16 32 43h82c10 -87 -35 -141 -108 -141c-65 0 -91 52 -131 52c-23 0 -35 -15 -31 -42h-82z" />
    <glyph glyph-name="ring.cap" unicode="&#xeff3;" horiz-adv-x="599" 
d="M300 647c-66 0 -120 49 -120 115c0 67 54 116 120 116c67 0 120 -49 120 -116c0 -66 -53 -115 -120 -115zM300 700c35 0 62 28 62 62c0 36 -27 63 -62 63c-34 0 -62 -27 -62 -63c0 -34 28 -62 62 -62z" />
    <glyph glyph-name="macron.cap" unicode="&#xf6d0;" horiz-adv-x="617" 
d="M143 776v90h332v-90h-332z" />
    <glyph glyph-name="breve.cap" unicode="&#xefee;" horiz-adv-x="617" 
d="M309 750c-102 0 -162 54 -178 138h94c12 -32 40 -53 84 -53s73 21 85 53h92c-15 -84 -78 -138 -177 -138z" />
    <glyph glyph-name="invertedbreve.cap" unicode="&#xe170;" horiz-adv-x="617" 
d="M308 892c102 0 162 -52 178 -137h-94c-12 33 -41 53 -84 53c-44 0 -72 -20 -84 -53h-93c15 85 78 137 177 137z" />
    <glyph glyph-name="dotaccent.cap" unicode="&#xefed;" horiz-adv-x="582" 
d="M232 764v115h117v-115h-117z" />
    <glyph glyph-name="dotbelow.cap" unicode="&#xe979;" horiz-adv-x="582" 
d="M233 -188v114h116v-114h-116z" />
    <glyph glyph-name="linebelow.cap" unicode="&#xe978;" horiz-adv-x="582" 
d="M235 -206v160h112v-160h-112z" />
    <glyph glyph-name="commaaccent.cap" unicode="&#xe977;" horiz-adv-x="589" 
d="M214 -54c19 5 42 8 61 8c68 0 98 -35 99 -77c1 -33 -19 -72 -47 -99h-98c27 31 37 50 37 72c0 17 -12 28 -29 26c-8 0 -16 -1 -23 -2v72z" />
    <glyph glyph-name="cedilla.cap" unicode="&#xeff2;" horiz-adv-x="595" 
d="M193 -172c59 46 116 113 126 186h84c-5 -96 -45 -177 -110 -236z" />
    <glyph glyph-name="altcedilla.cap" unicode="&#xe976;" horiz-adv-x="594" 
d="M300 -41h93c-15 -73 -51 -134 -102 -181l-100 50c43 35 86 79 109 131z" />
    <glyph glyph-name="ogonek.cap" unicode="&#xeff1;" horiz-adv-x="593" 
d="M381 -97v-98c-23 -8 -49 -12 -78 -12c-76 0 -123 40 -123 102c0 74 68 134 173 170l26 -39c-62 -33 -96 -61 -96 -96c0 -22 17 -36 46 -36c19 0 36 5 49 11z" />
    <glyph glyph-name="altogonek.cap" unicode="&#xe975;" horiz-adv-x="593" 
d="M387 -97v-98c-23 -8 -49 -12 -78 -12c-73 0 -120 40 -120 101c0 71 66 129 163 147l22 -41c-57 -17 -82 -38 -82 -70c0 -23 17 -36 43 -36c19 0 36 5 49 11z" />
    <glyph glyph-name="commaabovecmb.cap" unicode="&#xe973;" horiz-adv-x="589" 
d="M375 827v-72c-20 -5 -42 -8 -61 -8c-68 0 -99 35 -99 78c-2 28 19 63 47 86h98c-27 -26 -37 -42 -37 -62c0 -16 11 -25 29 -24c8 0 16 1 23 2z" />
    <glyph glyph-name="s_t" unicode="&#xfb06;" horiz-adv-x="935" 
d="M31 45l56 102c52 -28 110 -48 166 -48c50 0 80 15 80 50c0 91 -290 33 -290 234c0 107 96 160 192 160c45 0 91 -11 119 -31c-17 23 -31 54 -31 90c0 90 67 165 199 165c140 0 224 -65 224 -201v-29h147v-104h-147v-266c0 -46 17 -60 56 -60c24 0 50 10 66 23l54 -90
c-41 -32 -98 -52 -154 -52c-114 0 -168 55 -168 175v270h-80v104h80v29c0 63 -33 104 -96 104c-57 0 -92 -39 -92 -85c0 -36 11 -63 43 -86l-51 -98c-51 25 -112 37 -147 37c-45 0 -71 -17 -71 -50c0 -89 288 -26 288 -230c0 -110 -92 -171 -219 -171c-82 0 -156 21 -224 58
z" />
    <glyph glyph-name="c_t" unicode="&#xe990;" horiz-adv-x="959" 
d="M36 272c0 162 103 271 243 271c46 0 84 -13 111 -33c-19 25 -33 56 -33 96c0 89 68 161 194 161c136 0 219 -66 219 -201v-29h146v-104h-146v-266c0 -46 17 -60 56 -60c24 0 49 10 66 23l53 -90c-41 -32 -97 -52 -154 -52c-114 0 -168 55 -168 175v270h-79v104h79v29
c0 63 -32 104 -92 104c-53 0 -88 -38 -88 -86c0 -39 21 -75 52 -105l-70 -90c-31 23 -67 42 -112 42c-71 0 -128 -57 -128 -159c0 -107 56 -166 128 -166c48 0 80 16 113 44l80 -85c-59 -53 -121 -78 -197 -78c-156 0 -273 106 -273 285z" />
    <glyph glyph-name="paragraph" unicode="&#xb6;" horiz-adv-x="748" 
d="M327 0v272h-26c-176 0 -248 115 -248 214c0 105 68 214 246 214h375v-700h-129v600h-89v-600h-129z" />
    <glyph glyph-name="period" unicode="." horiz-adv-x="245" 
d="M47 0v153h152v-153h-152z" />
    <glyph glyph-name="comma" unicode="," horiz-adv-x="246" 
d="M47 0v153h152v-117c0 -104 -42 -157 -129 -186l-30 56c48 18 73 52 73 94h-66z" />
    <glyph glyph-name="colon" unicode=":" horiz-adv-x="245" 
d="M47 0v153h152v-153h-152zM47 385v153h152v-153h-152z" />
    <glyph glyph-name="semicolon" unicode=";" horiz-adv-x="246" 
d="M47 0v153h152v-117c0 -104 -42 -157 -129 -186l-30 56c48 18 73 52 73 94h-66zM47 385v153h152v-153h-152z" />
    <glyph glyph-name="exclamdown" unicode="&#xa1;" horiz-adv-x="277" 
d="M64 -27l37 348h75l37 -348v-135h-149v135zM64 407v131h150v-131h-150z" />
    <glyph glyph-name="exclam" unicode="!" horiz-adv-x="278" 
d="M101 217l-37 348v135h149v-135l-37 -348h-75zM64 0v131h150v-131h-150z" />
    <glyph glyph-name="questiondown" unicode="&#xbf;" horiz-adv-x="551" 
d="M374 321c2 -9 4 -31 4 -40c0 -165 -180 -152 -180 -258c0 -47 43 -78 99 -78c54 0 105 24 152 69l87 -81c-64 -66 -143 -107 -242 -107c-144 0 -241 70 -241 187c0 177 206 177 210 289l2 19h109zM394 538v-131h-150v131h150z" />
    <glyph glyph-name="question" unicode="?" horiz-adv-x="561" 
d="M196 217c-2 9 -4 31 -4 40c0 165 180 152 180 258c0 47 -43 78 -99 78c-54 0 -105 -24 -152 -69l-87 81c64 66 143 107 242 107c144 0 241 -70 241 -187c0 -177 -206 -177 -210 -289l-2 -19h-109zM176 0v131h150v-131h-150z" />
    <glyph glyph-name="interrobangdown" unicode="&#x2e18;" horiz-adv-x="562" 
d="M359 321l14 -367c33 13 65 32 92 58l77 -79c-65 -65 -149 -107 -249 -107c-142 0 -238 70 -238 187c0 177 194 177 198 289l2 19h104zM383 538v-131h-150v131h150zM183 15c0 -35 24 -60 65 -70l37 227c-39 -62 -102 -83 -102 -157z" />
    <glyph glyph-name="interrobang" unicode="&#x203d;" horiz-adv-x="572" 
d="M222 217l-14 367c-33 -13 -65 -32 -92 -58l-77 79c65 65 149 107 249 107c142 0 238 -70 238 -187c0 -177 -194 -177 -198 -289l-2 -19h-104zM198 0v131h150v-131h-150zM398 523c0 35 -24 60 -65 70l-37 -227c39 62 102 83 102 157z" />
    <glyph glyph-name="ellipsis" unicode="&#x2026;" horiz-adv-x="784" 
d="M47 0v153h152v-153h-152zM316 0v153h152v-153h-152zM586 0v153h152v-153h-152z" />
    <glyph glyph-name="quotesingle" unicode="'" horiz-adv-x="233" 
d="M43 403v297h152l-69 -297h-83z" />
    <glyph glyph-name="quotedbl" unicode="&#x22;" horiz-adv-x="454" 
d="M43 403v297h152l-69 -297h-83zM262 403v297h152l-69 -297h-83z" />
    <glyph glyph-name="quoteleft" unicode="&#x2018;" horiz-adv-x="246" 
d="M199 556v-153h-152v117c0 104 42 157 129 186l30 -56c-48 -18 -73 -52 -73 -94h66z" />
    <glyph glyph-name="quoteright" unicode="&#x2019;" horiz-adv-x="246" 
d="M47 547v153h152v-117c0 -104 -42 -157 -129 -186l-30 56c48 18 73 52 73 94h-66z" />
    <glyph glyph-name="quotedblleft" unicode="&#x201c;" horiz-adv-x="479" 
d="M199 556v-153h-152v117c0 104 42 157 129 186l30 -56c-48 -18 -73 -52 -73 -94h66zM432 556v-153h-152v117c0 104 42 157 129 186l30 -56c-48 -18 -73 -52 -73 -94h66z" />
    <glyph glyph-name="quotedblright" unicode="&#x201d;" horiz-adv-x="479" 
d="M280 547v153h152v-117c0 -104 -42 -157 -129 -186l-30 56c48 18 73 52 73 94h-66zM47 547v153h152v-117c0 -104 -42 -157 -129 -186l-30 56c48 18 73 52 73 94h-66z" />
    <glyph glyph-name="quotesinglbase" unicode="&#x201a;" horiz-adv-x="246" 
d="M47 0v153h152v-117c0 -104 -42 -157 -129 -186l-30 56c48 18 73 52 73 94h-66z" />
    <glyph glyph-name="quotedblbase" unicode="&#x201e;" horiz-adv-x="479" 
d="M280 0v153h152v-117c0 -104 -42 -157 -129 -186l-30 56c48 18 73 52 73 94h-66zM47 0v153h152v-117c0 -104 -42 -157 -129 -186l-30 56c48 18 73 52 73 94h-66z" />
    <glyph glyph-name="underscore" unicode="_" horiz-adv-x="555" 
d="M0 -13h555v-124h-555v124z" />
    <glyph glyph-name="slash" unicode="/" horiz-adv-x="556" 
d="M-12 -200l440 955h140l-440 -955h-140z" />
    <glyph glyph-name="backslash" unicode="\" horiz-adv-x="556" 
d="M128 755l440 -955h-140l-440 955h140z" />
    <glyph glyph-name="bar" unicode="|" horiz-adv-x="321" 
d="M93 -200v955h135v-955h-135z" />
    <glyph glyph-name="brokenbar" unicode="&#xa6;" horiz-adv-x="321" 
d="M93 181h135v-381h-135v381zM93 357v398h135v-398h-135z" />
    <glyph glyph-name="asterisk" unicode="*" horiz-adv-x="423" 
d="M107 411l54 108l-2 1l-117 -15l2 100l118 -17l2 2l-47 108l87 24l24 -114l3 -1l89 72l55 -78l-103 -48v-4l99 -61l-60 -73l-84 83l-3 -1l-33 -117z" />
    <glyph glyph-name="guilsinglleft" unicode="&#x2039;" horiz-adv-x="383" 
d="M179 271l156 -200l-96 -71l-200 271l200 267l96 -72z" />
    <glyph glyph-name="guilsinglright" unicode="&#x203a;" horiz-adv-x="383" 
d="M48 71l156 200l-156 195l96 72l200 -267l-200 -271z" />
    <glyph glyph-name="guillemotleft" unicode="&#xab;" horiz-adv-x="653" 
d="M179 271l156 -200l-96 -71l-200 271l200 267l96 -72zM449 271l156 -200l-96 -71l-200 271l200 267l96 -72z" />
    <glyph glyph-name="guillemotright" unicode="&#xbb;" horiz-adv-x="653" 
d="M48 71l156 200l-156 195l96 72l200 -267l-200 -271zM319 71l156 200l-156 195l96 72l200 -267l-200 -271z" />
    <glyph glyph-name="periodcentered" unicode="&#xb7;" horiz-adv-x="245" 
d="M47 193v153h152v-153h-152z" />
    <glyph glyph-name="hyphen" unicode="-" horiz-adv-x="385" 
d="M37 208v123h311v-123h-311z" />
    <glyph glyph-name="endash" unicode="&#x2013;" horiz-adv-x="625" 
d="M38 208v123h549v-123h-549z" />
    <glyph glyph-name="emdash" unicode="&#x2014;" horiz-adv-x="904" 
d="M42 208v123h819v-123h-819z" />
    <glyph glyph-name="bullet" unicode="&#x2022;" horiz-adv-x="564" 
d="M127 270c0 85 70 155 155 155c86 0 156 -70 156 -155c0 -86 -70 -156 -156 -156c-85 0 -155 70 -155 156z" />
    <glyph glyph-name="parenleft" unicode="(" horiz-adv-x="411" 
d="M53 277c0 208 78 365 170 478h158c-94 -103 -187 -265 -187 -478c0 -212 93 -374 187 -477h-157c-92 112 -171 270 -171 477z" />
    <glyph glyph-name="parenright" unicode=")" horiz-adv-x="411" 
d="M358 277c0 -207 -79 -365 -171 -477h-157c94 103 187 265 187 477c0 213 -93 375 -187 478h158c92 -113 170 -270 170 -478z" />
    <glyph glyph-name="bracketleft" unicode="[" horiz-adv-x="435" 
d="M223 -96h156v-104h-303v955h303v-103h-156v-748z" />
    <glyph glyph-name="bracketright" unicode="]" horiz-adv-x="435" 
d="M56 -96h156v748h-156v103h303v-955h-303v104z" />
    <glyph glyph-name="braceleft" unicode="{" horiz-adv-x="495" 
d="M376 -96h64v-104h-74c-141 0 -209 57 -209 172v165c0 53 -18 74 -73 74h-54v129h54c55 0 73 19 73 73v170c0 114 68 172 209 172h74v-104h-64c-53 0 -72 -19 -72 -70v-163c0 -69 -27 -120 -103 -142v-1c76 -25 103 -74 103 -143v-159c0 -50 19 -69 72 -69z" />
    <glyph glyph-name="braceright" unicode="}" horiz-adv-x="495" 
d="M55 -96h64c53 0 72 19 72 69v159c0 69 27 118 103 143v1c-76 22 -103 73 -103 142v163c0 51 -19 70 -72 70h-64v104h74c141 0 209 -58 209 -172v-170c0 -54 18 -73 73 -73h54v-129h-54c-55 0 -73 -21 -73 -74v-165c0 -115 -68 -172 -209 -172h-74v104z" />
    <glyph glyph-name="anglebracketleft" unicode="&#x3008;" horiz-adv-x="441" 
d="M49 275l192 480h151l-196 -480l195 -475h-150z" />
    <glyph glyph-name="anglebracketright" unicode="&#x3009;" horiz-adv-x="441" 
d="M200 755l192 -480l-192 -475h-150l195 475l-196 480h151z" />
    <glyph glyph-name="dagger" unicode="&#x2020;" horiz-adv-x="490" 
d="M176 272v125l20 116l-74 -10h-75v123h75l73 -12l-19 125v16h138v-16l-20 -124l74 11h75v-123h-75l-74 11l20 -117v-125h-138z" />
    <glyph glyph-name="daggerdbl" unicode="&#x2021;" horiz-adv-x="490" 
d="M176 84v91l19 108l-73 -12h-75v124h75l73 -10l-11 72l11 73l-73 -10h-75v124h75l73 -12l-19 107v16h138v-16l-20 -107l74 12h75v-124h-75l-74 11l11 -74l-11 -73l74 11h75v-124h-75l-74 12l20 -108v-91h-138z" />
    <glyph glyph-name="at" unicode="@" horiz-adv-x="825" 
d="M61 284c0 200 162 363 362 363c194 0 342 -142 342 -329c0 -158 -112 -235 -202 -235c-65 0 -100 30 -113 67c-25 -29 -62 -53 -108 -53c-64 0 -119 50 -119 137c0 107 66 240 192 240c43 0 73 -22 90 -47l18 37h87l-67 -237c-16 -55 1 -82 40 -82c56 0 123 60 123 173
c0 154 -122 269 -282 269c-167 0 -303 -136 -303 -303c0 -166 136 -302 303 -302c62 0 120 19 169 52l34 -49c-59 -40 -129 -63 -204 -63c-200 0 -362 162 -362 362zM325 240c0 -41 17 -65 49 -65s63 24 76 72l34 122c-11 13 -29 24 -55 24c-65 0 -104 -89 -104 -153z" />
    <glyph glyph-name="copyright" unicode="&#xa9;" horiz-adv-x="834" 
d="M219 283c0 109 82 197 206 197c50 0 104 -15 152 -54l-60 -72c-28 22 -56 37 -88 37c-58 0 -103 -44 -103 -108c0 -66 43 -107 102 -107c34 0 64 12 91 38l64 -65c-42 -40 -93 -63 -159 -63c-126 0 -205 83 -205 197zM55 284c0 200 162 363 362 363s363 -163 363 -363
s-163 -362 -363 -362s-362 162 -362 362zM116 284c0 -166 135 -302 302 -302c166 0 302 136 302 302c0 167 -136 303 -302 303c-167 0 -302 -136 -302 -303z" />
    <glyph glyph-name="registered" unicode="&#xae;" horiz-adv-x="834" 
d="M262 98v376h190c105 0 147 -64 147 -126c0 -42 -20 -85 -67 -107c13 -23 58 -122 71 -143h-111l-57 131h-68v-131h-105zM367 301h70c43 0 57 25 57 47c0 23 -14 49 -57 49h-70v-96zM55 284c0 200 162 363 362 363s363 -163 363 -363s-163 -362 -363 -362
s-362 162 -362 362zM116 284c0 -166 135 -302 302 -302c166 0 302 136 302 302c0 167 -136 303 -302 303c-167 0 -302 -136 -302 -303z" />
    <glyph glyph-name="published" unicode="&#xe194;" horiz-adv-x="834" 
d="M269 98v376h192c105 0 147 -64 147 -126c0 -64 -42 -126 -147 -126h-85v-124h-107zM375 299h71c41 0 57 24 57 49c0 24 -16 49 -57 49h-71v-98zM55 284c0 200 162 363 362 363s363 -163 363 -363s-163 -362 -363 -362s-362 162 -362 362zM116 284
c0 -166 135 -302 302 -302c166 0 302 136 302 302c0 167 -136 303 -302 303c-167 0 -302 -136 -302 -303z" />
    <glyph glyph-name="ampersand" unicode="&#x26;" horiz-adv-x="750" 
d="M36 198c0 91 60 159 137 203c-28 38 -47 81 -47 132c0 101 87 179 208 179c86 0 152 -38 204 -94l-91 -78c-34 35 -72 58 -111 58c-45 0 -72 -31 -72 -67c0 -40 29 -77 60 -109c60 -59 125 -115 193 -169c16 38 25 81 25 127h129c0 -73 -19 -143 -53 -203
c39 -28 78 -56 119 -84l-79 -100c-39 27 -80 55 -120 85c-64 -56 -148 -90 -246 -90c-161 0 -256 99 -256 210zM440 152c-69 55 -137 113 -199 173c-42 -26 -70 -65 -70 -114c0 -62 50 -105 131 -105c53 0 100 17 138 46z" />
    <glyph glyph-name="zero" unicode="0" horiz-adv-x="680" 
d="M46 283c0 180 133 293 294 293s294 -113 294 -293c0 -183 -133 -295 -294 -295s-294 112 -294 295zM199 283c0 -103 56 -173 141 -173c84 0 141 70 141 173c0 101 -57 171 -141 171c-85 0 -141 -70 -141 -171z" />
    <glyph glyph-name="one" unicode="1" horiz-adv-x="399" 
d="M316 0h-152v424l-105 -39l-48 107l196 79h109v-571z" />
    <glyph glyph-name="two" unicode="2" 
d="M561 0h-500l-1 27c-11 281 360 256 360 366c0 38 -34 66 -99 66c-71 0 -138 -29 -197 -73l-69 101c72 52 163 89 267 89c159 0 248 -73 248 -177c0 -189 -309 -188 -348 -282h339v-117z" />
    <glyph glyph-name="three" unicode="3" 
d="M36 -90l55 108c56 -29 119 -49 183 -49c96 0 161 41 161 107c0 68 -59 91 -140 91h-102v111h97c78 0 122 27 122 93c0 49 -43 88 -123 88c-60 0 -119 -26 -172 -63l-69 99c73 48 150 82 253 82c157 0 262 -77 262 -191c0 -75 -39 -121 -101 -151c83 -34 125 -87 125 -167
c0 -143 -144 -217 -309 -217c-85 0 -169 23 -242 59z" />
    <glyph glyph-name="four" unicode="4" horiz-adv-x="665" 
d="M84 1l-47 110l363 453h146v-450h90v-113h-90v-137h-144v137h-318zM181 114h221v289z" />
    <glyph glyph-name="five" unicode="5" horiz-adv-x="602" 
d="M37 -89l58 112c53 -31 119 -49 179 -49c85 0 143 47 143 119c0 64 -48 108 -120 108c-36 0 -83 -11 -126 -28l-87 52l15 339h425v-112h-290l-7 -163c34 14 81 24 124 24c115 0 217 -79 217 -216c0 -158 -139 -246 -298 -246c-89 0 -164 23 -233 60z" />
    <glyph glyph-name="six" unicode="6" horiz-adv-x="639" 
d="M46 331c0 271 160 381 328 381c65 0 131 -17 194 -50l-58 -101c-38 19 -85 34 -137 34c-98 0 -164 -70 -174 -200c43 35 109 60 173 60c133 0 224 -82 224 -225c0 -130 -103 -242 -269 -242c-197 0 -281 154 -281 343zM200 291c4 -115 45 -188 131 -188
c71 0 117 56 117 126c0 73 -39 122 -109 122c-54 0 -105 -27 -139 -60z" />
    <glyph glyph-name="seven" unicode="7" horiz-adv-x="577" 
d="M117 -136l268 578h-347v122h502v-107l-263 -593h-160z" />
    <glyph glyph-name="eight" unicode="8" horiz-adv-x="676" 
d="M46 187c0 87 67 149 150 178c-65 25 -122 81 -122 153c0 123 113 194 265 194c151 0 263 -71 263 -194c0 -72 -57 -128 -122 -153c83 -29 151 -91 151 -178c0 -128 -123 -199 -292 -199c-170 0 -293 71 -293 199zM196 194c0 -60 61 -97 143 -97c81 0 141 37 141 97
s-63 103 -141 113c-80 -10 -143 -53 -143 -113zM339 417c70 7 112 46 112 100c0 51 -48 86 -112 86c-66 0 -114 -35 -114 -86c0 -54 43 -93 114 -100z" />
    <glyph glyph-name="nine" unicode="9" horiz-adv-x="640" 
d="M65 -92l63 100c36 -24 84 -40 140 -40c98 0 163 69 172 199c-43 -34 -105 -60 -169 -60c-135 0 -230 84 -230 226c0 131 102 242 268 242c199 0 285 -154 285 -343c0 -272 -159 -382 -327 -382c-68 0 -140 21 -202 58zM304 213c54 0 102 25 135 58
c-4 116 -47 189 -133 189c-73 0 -117 -56 -117 -126c0 -72 44 -121 115 -121z" />
    <glyph glyph-name="numbersign" unicode="#" horiz-adv-x="679" 
d="M61 341v101h130l20 122h114l-21 -122h121l20 122h112l-20 -122h112v-101h-128l-19 -118h116v-100h-132l-20 -123h-114l20 123h-121l-20 -123h-112l20 123h-110v100h126l19 118h-113zM287 341l-19 -118h121l19 118h-121z" />
    <glyph glyph-name="section" unicode="&#xa7;" horiz-adv-x="551" 
d="M494 206c0 -45 -28 -78 -58 -101c28 -22 46 -53 46 -99c0 -97 -82 -155 -222 -155c-69 0 -145 27 -197 70l83 79c33 -28 79 -45 120 -45c50 0 79 17 79 48c0 86 -288 47 -288 219c0 44 27 78 57 101c-27 22 -45 53 -45 99c0 97 82 155 222 155c68 0 145 -26 196 -70
l-83 -79c-32 28 -78 45 -120 45c-49 0 -78 -17 -78 -48c0 -85 288 -47 288 -219zM369 186c0 61 -90 70 -171 96c-9 -11 -17 -25 -17 -40c0 -61 89 -71 170 -96c9 10 18 24 18 40z" />
    <glyph glyph-name="Euro" unicode="&#x20ac;" horiz-adv-x="643" 
d="M25 173v78h79c-1 10 -1 20 -1 31s0 21 1 32h-79v78h96c39 111 140 185 273 185c79 0 155 -26 212 -83l-82 -87c-31 31 -75 52 -123 52c-62 0 -109 -27 -135 -74h147v-71h-168c-1 -11 -2 -21 -2 -32s0 -21 2 -31h168v-70h-145c28 -48 77 -75 138 -75c48 0 91 18 120 50
l88 -80c-53 -56 -125 -88 -216 -88c-132 0 -235 74 -276 185h-97z" />
    <glyph glyph-name="dollar" unicode="$" horiz-adv-x="570" 
d="M41 53l65 102c46 -28 105 -50 160 -54v130c-98 23 -216 50 -216 172c0 93 76 162 208 172v86h69v-87c63 -4 125 -20 180 -46l-55 -103c-43 20 -92 34 -134 39v-125c96 -22 211 -51 211 -178c0 -90 -66 -161 -202 -172v-122h-69v121c-82 5 -160 30 -217 65zM395 157
c0 32 -33 48 -77 61v-117c55 6 77 27 77 56zM187 411c0 -32 33 -48 79 -60v114c-55 -4 -79 -26 -79 -54z" />
    <glyph glyph-name="cent" unicode="&#xa2;" horiz-adv-x="627" 
d="M44 286c0 162 121 290 312 290h14l21 87h76l-24 -97c45 -11 91 -32 131 -64l-72 -96c-30 23 -61 40 -94 49l-85 -350c11 -2 23 -3 35 -3c59 0 104 22 146 63l84 -84c-61 -58 -137 -94 -232 -94c-17 0 -33 1 -49 3l-30 -123h-74l34 139c-122 42 -193 150 -193 280z
M184 286c0 -74 34 -133 88 -163l80 338c-97 -3 -168 -73 -168 -175z" />
    <glyph glyph-name="sterling" unicode="&#xa3;" horiz-adv-x="634" 
d="M73 255v80h84c-16 28 -28 60 -28 96c0 80 70 146 196 146c103 0 169 -47 204 -104l-105 -49c-18 26 -50 50 -90 50c-42 0 -66 -20 -66 -51c0 -29 16 -57 37 -90h139v-77h-93c10 -23 17 -47 17 -77c0 -26 -5 -50 -15 -71c28 -13 56 -21 86 -21c47 0 65 33 55 86h121
c26 -114 -30 -185 -138 -185c-71 0 -126 26 -173 56c-42 -36 -99 -56 -155 -56c-70 0 -118 43 -118 103c0 59 48 101 112 101c35 0 68 -12 100 -27c-2 36 -13 62 -31 90h-139zM147 51c31 0 61 19 79 47c-28 18 -53 31 -79 31s-45 -14 -45 -38s17 -40 45 -40z" />
    <glyph glyph-name="florin" unicode="&#x192;" horiz-adv-x="429" 
d="M-32 -84c19 -7 42 -12 65 -12c37 0 59 19 59 78v257h-85v105h85v25c0 154 94 208 221 208c42 0 89 -10 124 -23l-36 -103c-23 7 -46 14 -79 14c-56 0 -80 -33 -80 -93v-29h134v-104h-134v-257c0 -142 -67 -191 -187 -191c-40 0 -84 8 -120 22z" />
    <glyph glyph-name="yen" unicode="&#xa5;" horiz-adv-x="616" 
d="M67 209v76h166l-216 279h172l118 -159h1l118 159h172l-216 -279h165v-76h-165v-52h165v-75h-165v-82h-149v82h-166v75h166v52h-166z" />
    <glyph glyph-name="colonmonitary" unicode="&#x20a1;" horiz-adv-x="627" 
d="M276 -133l29 123c-15 2 -30 5 -45 9l-31 -132h-67l37 155c-98 50 -155 148 -155 264c0 154 110 277 286 289l21 88h69l-22 -89c14 -2 28 -4 43 -8l23 97h70l-29 -118c24 -11 47 -26 69 -43l-70 -92l-32 22l-80 -332c44 8 81 29 115 62l81 -81c-58 -55 -129 -90 -217 -93
l-28 -121h-67zM178 286c0 -59 21 -109 57 -143l75 317c-78 -18 -132 -85 -132 -174zM281 113c17 -8 36 -13 57 -15l85 357c-18 6 -37 10 -57 11z" />
    <glyph glyph-name="plus" unicode="+" horiz-adv-x="615" 
d="M38 209v121h203v208h134v-208h202v-121h-202v-209h-134v209h-203z" />
    <glyph glyph-name="minus" unicode="&#x2212;" horiz-adv-x="615" 
d="M38 209v121h539v-121h-539z" />
    <glyph glyph-name="plusminus" unicode="&#xb1;" horiz-adv-x="615" 
d="M38 0v91h203v152h-203v121h203v174h134v-174h202v-121h-202v-152h202v-91h-539z" />
    <glyph glyph-name="multiply" unicode="&#xd7;" horiz-adv-x="593" 
d="M58 111l152 159l-152 157l87 86l152 -159l152 159l87 -86l-152 -157l152 -159l-87 -85l-152 159l-152 -159z" />
    <glyph glyph-name="divide" unicode="&#xf7;" horiz-adv-x="615" 
d="M245 413v112h125v-112h-125zM245 14v112h125v-112h-125zM38 209v121h539v-121h-539z" />
    <glyph glyph-name="equal" unicode="=" horiz-adv-x="615" 
d="M38 332v121h539v-121h-539zM38 85v121h539v-121h-539z" />
    <glyph glyph-name="notequal" unicode="&#x2260;" horiz-adv-x="615" 
d="M38 332v121h343l58 85h96l-57 -85h99v-121h-180l-84 -126h264v-121h-343l-58 -85h-96l58 85h-100v121h182l84 126h-266z" />
    <glyph glyph-name="approxequal" unicode="&#x2248;" horiz-adv-x="615" 
d="M39 318c-1 9 -1 17 -1 25c0 94 55 159 151 159c108 0 156 -74 231 -74c36 0 52 23 50 60h106c1 -9 1 -18 1 -26c0 -94 -55 -158 -151 -158c-107 0 -154 74 -229 74c-37 0 -54 -24 -51 -60h-107zM39 50c-1 9 -1 17 -1 25c0 94 55 158 151 158c108 0 156 -74 231 -74
c36 0 52 24 50 60h106c1 -9 1 -18 1 -26c0 -94 -55 -159 -151 -159c-107 0 -154 75 -229 75c-37 0 -54 -24 -51 -59h-107z" />
    <glyph glyph-name="less" unicode="&#x3c;" horiz-adv-x="602" 
d="M552 145v-145l-516 205v130l516 203v-147l-343 -122z" />
    <glyph glyph-name="greater" unicode="&#x3e;" horiz-adv-x="602" 
d="M50 0v145l343 124l-343 122v147l516 -203v-130z" />
    <glyph glyph-name="lessequal" unicode="&#x2264;" horiz-adv-x="633" 
d="M36 0v91h545l-545 163v141l549 143v-130l-331 -85l331 -101v-222h-549z" />
    <glyph glyph-name="greaterequal" unicode="&#x2265;" horiz-adv-x="633" 
d="M597 91v-91h-549v222l331 101l-331 85v130l549 -143v-141l-546 -163h546z" />
    <glyph glyph-name="infinity" unicode="&#x221e;" horiz-adv-x="823" 
d="M239 182c45 0 87 41 113 87c-26 46 -68 88 -113 88c-39 0 -73 -30 -73 -88s34 -87 73 -87zM222 66c-107 0 -183 75 -183 203s76 203 183 203c79 0 134 -47 190 -121c56 74 111 121 190 121c106 0 182 -75 182 -203s-76 -203 -182 -203c-79 0 -134 47 -190 122
c-56 -75 -111 -122 -190 -122zM472 269c26 -46 68 -87 113 -87c39 0 72 29 72 87s-33 88 -72 88c-45 0 -87 -42 -113 -88z" />
    <glyph glyph-name="percent" unicode="%" horiz-adv-x="810" 
d="M574 564h94l-433 -564h-94zM41 422c0 89 71 152 164 152s163 -63 163 -152c0 -93 -69 -155 -163 -155s-164 62 -164 155zM134 422c0 -46 28 -79 71 -79c44 0 71 33 71 79c0 43 -28 75 -71 75c-42 0 -71 -32 -71 -75zM442 146c0 89 71 152 164 152c92 0 163 -63 163 -152
c0 -93 -69 -155 -163 -155c-95 0 -164 62 -164 155zM534 146c0 -46 28 -79 72 -79c43 0 71 33 71 79c0 43 -29 76 -71 76c-43 0 -72 -33 -72 -76z" />
    <glyph glyph-name="perthousand" unicode="&#x2030;" horiz-adv-x="1168" 
d="M800 146c0 89 71 152 163 152c93 0 164 -63 164 -152c0 -93 -69 -155 -164 -155c-94 0 -163 62 -163 155zM892 146c0 -46 28 -79 71 -79c44 0 72 33 72 79c0 43 -29 76 -72 76c-42 0 -71 -33 -71 -76zM574 564h94l-433 -564h-94zM41 422c0 89 71 152 164 152
s163 -63 163 -152c0 -93 -69 -155 -163 -155s-164 62 -164 155zM134 422c0 -46 28 -79 71 -79c44 0 71 33 71 79c0 43 -28 75 -71 75c-42 0 -71 -32 -71 -75zM442 146c0 89 71 152 164 152c92 0 163 -63 163 -152c0 -93 -69 -155 -163 -155c-95 0 -164 62 -164 155zM534 146
c0 -46 28 -79 72 -79c43 0 71 33 71 79c0 43 -29 76 -71 76c-43 0 -72 -33 -72 -76z" />
    <glyph glyph-name="degree" unicode="&#xb0;" horiz-adv-x="408" 
d="M204 380c-92 0 -172 63 -172 166c0 99 80 167 172 167c91 0 171 -68 171 -167c0 -103 -79 -166 -171 -166zM204 462c45 0 84 33 84 84c0 50 -39 84 -84 84c-43 0 -84 -34 -84 -84c0 -51 41 -84 84 -84z" />
    <glyph glyph-name="logicalnot" unicode="&#xac;" horiz-adv-x="655" 
d="M55 448v116h545v-302h-152v186h-393z" />
    <glyph glyph-name="mu" unicode="&#xb5;" horiz-adv-x="598" 
d="M196 18l-9 -218h-132v764h149v-390c2 -44 20 -74 70 -74c47 0 87 23 119 60v404h150v-564h-140l-6 52c-32 -36 -74 -60 -118 -60c-38 0 -64 9 -83 26z" />
    <glyph glyph-name="pi" unicode="&#x3c0;" horiz-adv-x="806" 
d="M751 448h-140v-240c0 -71 25 -95 104 -95v-117c-194 0 -251 60 -251 212v240h-128v-448h-148v448h-133v116h696v-116z" />
    <glyph glyph-name="partialdiff" unicode="&#x2202;" horiz-adv-x="646" 
d="M589 262c0 -183 -107 -274 -264 -274c-173 0 -269 107 -269 249c0 139 96 229 225 229c57 0 108 -14 156 -47c-15 134 -58 180 -159 180c-53 0 -120 -16 -164 -34l-45 103c49 23 136 44 208 44c218 0 312 -116 312 -450zM444 256c0 22 0 44 -1 64c-41 32 -78 44 -128 44
c-58 0 -111 -37 -111 -127c0 -81 47 -137 121 -137c72 0 119 54 119 156z" />
    <glyph glyph-name="integral" unicode="&#x222b;" horiz-adv-x="501" 
d="M303 558v-521c0 -188 -114 -247 -303 -247v112c128 0 153 47 153 134v520c0 154 95 208 224 208c42 0 90 -11 124 -24l-36 -102c-23 7 -47 13 -79 13c-59 0 -83 -33 -83 -93z" />
    <glyph glyph-name="radical" unicode="&#x221a;" horiz-adv-x="789" 
d="M45 336l-45 118l259 96l102 -339l280 489h148l-410 -712h-78l-124 398z" />
    <glyph glyph-name="increment" unicode="&#x2206;" horiz-adv-x="915" 
d="M55 0l403 709l401 -709h-804zM457 466l-192 -344h380z" />
    <glyph glyph-name="ohm" unicode="&#x2126;" horiz-adv-x="780" 
d="M721 0h-281v101c81 64 156 172 156 283c0 130 -97 200 -206 200c-110 0 -207 -70 -207 -200c0 -111 75 -219 156 -283v-101h-279v110h130c-63 61 -134 163 -134 278c0 210 157 324 334 324c179 0 334 -114 334 -324c0 -115 -71 -217 -133 -278h130v-110z" />
    <glyph glyph-name="product" unicode="&#x220f;" horiz-adv-x="842" 
d="M787 584h-127v-584h-147v584h-185v-584h-145v584h-128v116h732v-116z" />
    <glyph glyph-name="summation" unicode="&#x2211;" horiz-adv-x="669" 
d="M614 0h-559v89l249 268l-235 259v84h533v-116h-333l205 -227l-224 -241h364v-116z" />
    </font>
</defs>
</svg>
